<mxfile host="app.diagrams.net" modified="2022-03-13T20:51:35.726Z" agent="5.0 (Windows)" etag="aRgMN6et5DqSVI0Gv-HZ" version="17.1.2" type="github" pages="4">
  <diagram id="XANg_6TM7YshqjZFgcF8" name="Overview">
    <mxGraphModel dx="1422" dy="780" grid="0" gridSize="10" guides="1" tooltips="1" connect="1" arrows="1" fold="1" page="1" pageScale="1" pageWidth="1100" pageHeight="850" math="0" shadow="0">
      <root>
        <mxCell id="0" />
        <mxCell id="1" parent="0" />
        <mxCell id="bwABOE7Ox9UtYRpD6rb7-27" value="" style="endArrow=none;dashed=1;html=1;dashPattern=1 3;strokeWidth=2;rounded=0;jumpSize=3;" parent="1" edge="1">
          <mxGeometry width="50" height="50" relative="1" as="geometry">
            <mxPoint x="409.5" y="590" as="sourcePoint" />
            <mxPoint x="409.5" y="100" as="targetPoint" />
          </mxGeometry>
        </mxCell>
        <mxCell id="bwABOE7Ox9UtYRpD6rb7-5" style="edgeStyle=orthogonalEdgeStyle;rounded=0;orthogonalLoop=1;jettySize=auto;html=1;exitX=1;exitY=0.5;exitDx=0;exitDy=0;entryX=0;entryY=0.5;entryDx=0;entryDy=0;" parent="1" source="bwABOE7Ox9UtYRpD6rb7-3" edge="1">
          <mxGeometry relative="1" as="geometry">
            <mxPoint x="200" y="380" as="targetPoint" />
          </mxGeometry>
        </mxCell>
        <mxCell id="bwABOE7Ox9UtYRpD6rb7-3" value="Data Sources" style="shape=datastore;whiteSpace=wrap;html=1;" parent="1" vertex="1">
          <mxGeometry x="70" y="350" width="60" height="60" as="geometry" />
        </mxCell>
        <mxCell id="bwABOE7Ox9UtYRpD6rb7-18" style="edgeStyle=orthogonalEdgeStyle;rounded=0;jumpSize=3;orthogonalLoop=1;jettySize=auto;html=1;exitX=0.875;exitY=0.55;exitDx=0;exitDy=0;entryX=0;entryY=0.5;entryDx=0;entryDy=0;strokeWidth=1;exitPerimeter=0;" parent="1" source="bwABOE7Ox9UtYRpD6rb7-23" target="bwABOE7Ox9UtYRpD6rb7-17" edge="1">
          <mxGeometry relative="1" as="geometry">
            <mxPoint x="470" y="380" as="sourcePoint" />
          </mxGeometry>
        </mxCell>
        <mxCell id="bwABOE7Ox9UtYRpD6rb7-24" style="edgeStyle=orthogonalEdgeStyle;rounded=0;jumpSize=3;orthogonalLoop=1;jettySize=auto;html=1;exitX=1;exitY=0.5;exitDx=0;exitDy=0;entryX=0.013;entryY=0.55;entryDx=0;entryDy=0;entryPerimeter=0;strokeWidth=1;" parent="1" source="bwABOE7Ox9UtYRpD6rb7-11" target="bwABOE7Ox9UtYRpD6rb7-23" edge="1">
          <mxGeometry relative="1" as="geometry" />
        </mxCell>
        <mxCell id="bwABOE7Ox9UtYRpD6rb7-11" value="&amp;nbsp;&amp;nbsp; Transforms" style="shape=step;perimeter=stepPerimeter;whiteSpace=wrap;html=1;fixedSize=1;" parent="1" vertex="1">
          <mxGeometry x="180" y="345" width="120" height="70" as="geometry" />
        </mxCell>
        <mxCell id="bwABOE7Ox9UtYRpD6rb7-14" style="edgeStyle=orthogonalEdgeStyle;rounded=0;jumpSize=3;orthogonalLoop=1;jettySize=auto;html=1;exitX=0.5;exitY=0;exitDx=0;exitDy=0;entryX=0.5;entryY=1;entryDx=0;entryDy=0;strokeWidth=1;" parent="1" source="bwABOE7Ox9UtYRpD6rb7-12" target="bwABOE7Ox9UtYRpD6rb7-11" edge="1">
          <mxGeometry relative="1" as="geometry" />
        </mxCell>
        <mxCell id="bwABOE7Ox9UtYRpD6rb7-16" style="edgeStyle=orthogonalEdgeStyle;rounded=0;jumpSize=3;orthogonalLoop=1;jettySize=auto;html=1;exitX=0;exitY=0.5;exitDx=0;exitDy=0;entryX=0.5;entryY=1;entryDx=0;entryDy=0;strokeWidth=1;" parent="1" source="bwABOE7Ox9UtYRpD6rb7-12" target="bwABOE7Ox9UtYRpD6rb7-3" edge="1">
          <mxGeometry relative="1" as="geometry" />
        </mxCell>
        <mxCell id="bwABOE7Ox9UtYRpD6rb7-12" value="Deterministic UIDs" style="rounded=0;whiteSpace=wrap;html=1;" parent="1" vertex="1">
          <mxGeometry x="180" y="460" width="120" height="60" as="geometry" />
        </mxCell>
        <mxCell id="bwABOE7Ox9UtYRpD6rb7-20" style="edgeStyle=orthogonalEdgeStyle;rounded=0;jumpSize=3;orthogonalLoop=1;jettySize=auto;html=1;exitX=1;exitY=0.5;exitDx=0;exitDy=0;entryX=0;entryY=0.5;entryDx=0;entryDy=0;strokeWidth=1;" parent="1" source="bwABOE7Ox9UtYRpD6rb7-17" target="bwABOE7Ox9UtYRpD6rb7-19" edge="1">
          <mxGeometry relative="1" as="geometry" />
        </mxCell>
        <mxCell id="bwABOE7Ox9UtYRpD6rb7-17" value="&amp;nbsp;&amp;nbsp; Transforms" style="shape=step;perimeter=stepPerimeter;whiteSpace=wrap;html=1;fixedSize=1;" parent="1" vertex="1">
          <mxGeometry x="520" y="345" width="120" height="70" as="geometry" />
        </mxCell>
        <mxCell id="bwABOE7Ox9UtYRpD6rb7-26" style="edgeStyle=orthogonalEdgeStyle;rounded=0;jumpSize=3;orthogonalLoop=1;jettySize=auto;html=1;exitX=1;exitY=0.5;exitDx=0;exitDy=0;entryX=0;entryY=0.5;entryDx=0;entryDy=0;entryPerimeter=0;strokeWidth=1;" parent="1" source="bwABOE7Ox9UtYRpD6rb7-19" target="bwABOE7Ox9UtYRpD6rb7-25" edge="1">
          <mxGeometry relative="1" as="geometry" />
        </mxCell>
        <mxCell id="bwABOE7Ox9UtYRpD6rb7-19" value="Renderer" style="shape=parallelogram;perimeter=parallelogramPerimeter;whiteSpace=wrap;html=1;fixedSize=1;" parent="1" vertex="1">
          <mxGeometry x="690" y="350" width="120" height="60" as="geometry" />
        </mxCell>
        <mxCell id="bwABOE7Ox9UtYRpD6rb7-22" style="edgeStyle=orthogonalEdgeStyle;rounded=0;jumpSize=3;orthogonalLoop=1;jettySize=auto;html=1;exitX=0.5;exitY=1;exitDx=0;exitDy=0;entryX=0.583;entryY=-0.017;entryDx=0;entryDy=0;entryPerimeter=0;strokeWidth=1;" parent="1" source="bwABOE7Ox9UtYRpD6rb7-21" target="bwABOE7Ox9UtYRpD6rb7-19" edge="1">
          <mxGeometry relative="1" as="geometry" />
        </mxCell>
        <mxCell id="bwABOE7Ox9UtYRpD6rb7-21" value="Template" style="rounded=0;whiteSpace=wrap;html=1;" parent="1" vertex="1">
          <mxGeometry x="700" y="250" width="120" height="60" as="geometry" />
        </mxCell>
        <mxCell id="bwABOE7Ox9UtYRpD6rb7-23" value="Common Data Model" style="shape=card;whiteSpace=wrap;html=1;" parent="1" vertex="1">
          <mxGeometry x="370" y="325" width="80" height="100" as="geometry" />
        </mxCell>
        <mxCell id="bwABOE7Ox9UtYRpD6rb7-25" value="Document" style="shape=note;whiteSpace=wrap;html=1;backgroundOutline=1;darkOpacity=0.05;" parent="1" vertex="1">
          <mxGeometry x="890" y="330" width="80" height="100" as="geometry" />
        </mxCell>
        <mxCell id="bwABOE7Ox9UtYRpD6rb7-29" value="&lt;font style=&quot;font-size: 23px&quot;&gt;Data&lt;/font&gt;" style="text;html=1;strokeColor=none;fillColor=none;align=center;verticalAlign=middle;whiteSpace=wrap;rounded=0;" parent="1" vertex="1">
          <mxGeometry x="260" y="150" width="110" height="30" as="geometry" />
        </mxCell>
        <mxCell id="bwABOE7Ox9UtYRpD6rb7-30" value="&lt;font style=&quot;font-size: 23px&quot;&gt;Rendering&lt;/font&gt;" style="text;html=1;strokeColor=none;fillColor=none;align=center;verticalAlign=middle;whiteSpace=wrap;rounded=0;" parent="1" vertex="1">
          <mxGeometry x="450" y="150" width="110" height="30" as="geometry" />
        </mxCell>
      </root>
    </mxGraphModel>
  </diagram>
  <diagram id="0tGAQzCwJ2YJJ1QBi-OQ" name="Data Transforms">
    <mxGraphModel dx="1422" dy="780" grid="1" gridSize="10" guides="1" tooltips="1" connect="1" arrows="1" fold="1" page="1" pageScale="1" pageWidth="1100" pageHeight="850" math="0" shadow="0">
      <root>
        <mxCell id="CWNUDlz_4AmAF2-oJrpr-0" />
        <mxCell id="CWNUDlz_4AmAF2-oJrpr-1" parent="CWNUDlz_4AmAF2-oJrpr-0" />
        <mxCell id="zhw8hxR-eLDXixzwx9a5-0" value="" style="shape=image;verticalLabelPosition=bottom;labelBackgroundColor=default;verticalAlign=top;aspect=fixed;imageAspect=0;image=data:image/png,iVBORw0KGgoAAAANSUhEUgAAA5IAAAH/CAYAAAAlhOK/AAAgAElEQVR4Xu3dC9gkZXkn/HsyCgoqiqcIKoiM4xgmUYxxgWjAQxTEb9GNaESJn+YasruaMGpUUE6iUTQGEk02sDmweFpxV7giQhT8BjWAJojEUQkOIiioIQiigcgIztfV79sz/R76requqq6qp3/vdc01p6qnnud3P9Xd/67Tqm29n/BDgAABAgQIECBAgAABAgQKCqwSJAtKWYwAAQIECBAgQIAAAQIE+gKCpIlAgAABAgQIECBAgAABAmMJCJJjcVmYAAECBAgQIECAAAECBARJc4AAAQIECBAgQIAAAQIExhIQJMfisjABAgQIECBAgAABAgQICJLmAAECBAgQIECAAAECBAiMJSBIjsVlYQIECBAgQIAAAQIECBAQJM0BAgQI1CRw8sknxymnnBInnXRSZH/2Q4AAAQIECBBIRUCQTKWSxkGAQOsEBMnWlUSHCBAgQIAAgYoEBMmKIDVDgAABAgQIECBAgACBWREQJGel0sZJgAABAgQIECBAgACBigQEyYogNUOAAAECBAgQIECAAIFZERAkZ6XSxkmAAAECBAgQIECAAIGKBATJiiA1Q4AAAQIECBAgQIAAgVkRECRnpdLGSYAAAQIECBAgQIAAgYoEBMmKIDVDgACBxQIe/2FOECBAgAABAqkKCJKpVta4CBBoXECQbLwEOkCAAAECBAjUJCBI1gSrWQIECBAgQIAAAQIECKQqIEimWlnjIkCAAAECBAgQIECAQE0CgmRNsJolQIAAAQIECBAgQIBAqgKCZKqVNS4CBAgQIECAAAECBAjUJCBI1gSrWQIECBAgQIAAAQIECKQqIEimWlnjIkCAAAECBAgQIECAQE0CgmRNsJolQICAx3+YAwQIECBAgECqAoJkqpU1LgIEGhcQJBsvgQ4QIECAAAECNQkIkjXBapYAAQIECBAgQIAAAQKpCgiSqVbWuAgQIECAAAECBAgQIFCTgCBZE6xmCRAgQIAAAQIECBAgkKqAIJlqZY2LAAECBAgQIECAAAECNQkIkjXBapYAAQIECBAgQIAAAQKpCgiSqVbWuAgQIECAAAECBAgQIFCTgCBZE6xmCRAg4PEf5gABAgQIECCQqoAgmWpljYsAgcYFBMnGS6ADBAgQIECAQE0CgmRNsJolQIAAAQIECBAgQIBAqgKCZKqVNS4CBAgQIECAAAECBAjUJCBI1gSrWQIECBAgQIAAAQIECKQqIEimWlnjIkCAAAECBAgQIECAQE0CgmRNsJolQIAAAQIECBAgQIBAqgKCZKqVNS4CBAgQIECAAAECBAjUJCBI1gSrWQIECHj8hzlAgAABAgQIpCogSKZaWeMiQKBxAUGy8RLoAAECBAgQIFCTgCBZE6xmCRAgQIAAAQIECBAgkKqAIJlqZY2LAAECBAgQIECAAAECNQkIkjXBapYAAQIECBAgQIAAAQKpCgiSqVbWuAgQIECAAAECBAgQIFCTgCBZE6xmCRAgQIAAAQIECBAgkKqAIJlqZY2LAAECBAgQIECAAAECNQkIkjXBapYAAQIe/2EOECBAgAABAqkKCJKpVta4CBBoXECQbLwEOkCAAAECBAjUJCBI1gSrWQIECBAgQIAAAQIECKQqIEimWlnjIkCAAAECBAgQIECAQE0CgmRNsJolQIAAAQIECBAgQIBAqgKCZKqVNS4CBAgQIECAAAECBAjUJCBI1gSrWQIECBAgQIAAAQIECKQqIEimWlnjIkCAAAECBAgQIECAQE0CgmRNsJolQICAx3+YAwQIECBAgECqAoJkqpU1LgIEGhcQJBsvgQ4QIECAAAECNQkIkjXBapYAAQIECBAgQIAAAQKpCgiSqVbWuAgQIECAAAECBAgQIFCTgCBZE6xmCRAgQIAAAQIECBAgkKqAIJlqZY2LAAECBAgQIECAAAECNQkIkjXBapYAAQIECBAgQIAAAQKpCgiSqVbWuAgQIECAAAECBAgQIFCTgCBZE6xmCRAg4PEf5gABAgQIECCQqoAgmWpljaubAh86PFa98lMj+77Tgx4R+z75t+I17zwuXvvrj46dKhrlXV87K37nTd+Pt114UvxKRW1qJqKTQfKf3xyPf/J74voVC7hTPOgRe8SaQ4+Ls/9iQ+y3S/uq/c9vfnw8+T3Xxz5vujq+dVpNs3pgtc+b4upvnWbfad800CMCBAgQqFFAkKwRV9MExhbICZI72lsdDz3i7PjGea+IR4y9kUUrfONt8cRfemdc68NwWck01t8eJB8Vv/riA+Kxy4zqzhu/FF+4+ua4697ef+72gvjgNy+IV5SeiNXyCZLVemqNAAECBAgsFhAkzQkCbRIYBMllQ91d8W83bo7z3vjb8br/8+3Ymn2Gf/kn45YPH17uyKSjKm2aAc33ZXuQ7AXEbb2AOKJHW2/6m3jxfq+JT91R0TyseORTCZIV91lzBAgQIECgSwKCZJeqpa/pC6wYJAfD3xrXnnpA/NKJV8W98aj475d9Lz5wYAkaQbIEXoKrFgyS2chv/8AzY/fXfSHi4Rti0y1nxsEt4hAkW1QMXSFAgACBJAUEySTLalCdFSgUJLPR3RIfeOYe8bov3Bu7HvmJuO1jLxo6Krk1bvqHD8Tbjn1/fPKa78Zt/fMPI3Z60N6x/kULr2n70OGrYuklmQuPRN31tY/EKW96Z5x92XVxy4+z46ARq3fZPdb+xh/EH5/1ljj00VVdqdnZqqXV8TGCZGw/FXuZo5dbb4qL3r0h3vinn4trb7ur96VH77rKvdfHi447O/5iw36x4LLKwTZf8MG4+y8fGu/e8MZ432e/Edl0W73LnvHkl7w9PnzWq2PtMlMtu773v73q7fHx/qm2O8Uv/saxcc65p8Uj3jf6Gsm5dd4V522+YX4bo+fz3D6yT7zpM38Z8c6j44zP/SC27vSgeNLrLoyvv/Lv5q4nXXAGwYfi8FWvjE9l/7b5lfGl//aqePvHr46bs/0wW+/Zb4gzzj4xnrvMqcALx7I6dtl9bRz2ro/F/9rlLbFrtqP2fLZdMOoYcVrT0GgIECBAoP0CgmT7a6SHsyRQOEiOOhq0Na5821PjoHd+Lbau3iX2fPIz4ul77Rpx6+b4+8u29K9pW732TfHFr54Wv9r7UH7Ze/5L/Mlnvhaf/uw3485dnxDPft5+sVs8PV7/f98UB2Vx9UMviie96vz4Ye8D+oOe9J/iOU98WMSdN8blm74cP+ifW9vO6+NmacpUPtbCQXJrnPfS3ePF594Z8ZQ/ihuvOm7H9ZRbr4w3//J/ivdce+9cEHzG02OvGMybZa7v3X5U/Nfi1374j/GP//GL8dRDDhxaJ5u3b40v/8s7FtzQZsf87LX5y8+J39g34sbLN8XVux0bZx32f+I1py+92c4tvX3sCb1QdkcWbOfn9K2b/z4u29ILuzvtF2+97MvxjmznmP+ZC5K7xm67/TTu+I/HxjMPf0rE5kti59ffEJ854N2jg+TDnxK/tvNX4x+/v3OsOej5sf5ht8bmv78stmQ74W5HxP/+9nnx0ofsqN4t5x0VT33JR+Kme3sBcs1B8fz19++P5cs/uDce+tAHxA9/2DuHWJCsfLprkAABAgQmFxAkJ7ezJoHqBcYIkrH9A/9T4o9uvCqOy+6K8q13xf5rj4+vxNp40xe/GqcNfSDeetNZ8cInHhOfuXN17/PoXXHBK+Y/LI86tXXrBXHUI14YH7ljt97y3+wtP3QI5a4r4nXrD4wP9G7tWetdMasX1mKeQG6Q3Bo/uvkrceHbfjf+37N7X1j0vnp4+SdviQ8fPghft8fHXvS4eNn5d8RuB78/vvTp1+44knjLxXHMMw+Ns67Nsue1cdVxj5/rzdCdYlev3RhfuOpP4oDBIctb/iaet89revN21952/r23nfkB3N478veY3pG/O3vz86+/Fp949eAuxrf0DpQ+IX7v0nvizjvvXDg//7l3Y6mn9m4s1ds/Nlz0+Thz+2HB3uniH3hePP11l8Ydu708PnnLh2MwnO1H7Vc/I97/vc/Ha4ePJC6778wfkcy62fui5a+/9ol49eCofS9gv37d06KXb3vjv7E3/vlbGQ3va4vGcvExz4xDe2D98woEybzZ6/8JECBAYIoCguQUsW2KQK7AOEEyBh9Ye6fdXf2tyJ5w8IO/eH78yglfiLuf86G4ZcHprnNbvuCoB8QLP7L4w/X84x4W3+Dn//v9WPPb/yu+88g3xDe+emLMf+TfPoTvvGv/2Ov4r/hwu0JR0338x9ygVz/0wHjDR8+L04bP0/zW2+OX9z0pNu/aO1r93d7NeoaOumXrbL30mNj7kLPi+4/673HZ9z4Q/ct7h+4Uu9w1v8vN28H8W33w/4h/2/R7sWAzW3tH+3Z/cWQHS3d80bHjCOryX34MThePOPh//Fts+r25FgdBcnUvxN3VO610wdm1KwbJ1QvaGUyT5fabwb/t2tvGd3vbWDiWS+OYvQ+Js74vSOa+flqAAAECBKYqIEhOldvGCOQIlAySeb7L3oBk0pvtDPrqKMlI9m4HyUWP/xg6pfn+T3hVnPWJ0+PIX3rwkjsGbw9Kv/nXcfenX73MHYV7R7of0DvSfefaeOvX/yXe8aShILm6d8rnPb0QuEh06bzdGn/zvJ3jNZ+JeMb7b4vPv3ZRWl32S5PBdveKjf90Q/zJry4t2/ZwesT/jnvOm+vFIEiufevX41/6nR36WTFIDo1veJ0l+83tveudd+9d7xzxm399d3z61UsvBL3y9XvH006/0Zc2eS9w/p8AAQIEpiogSE6V28YIVBgkt/ZO+du5d8pf7DgiuaD1u/4tbvz25rjiiutjy1cuiksuvTSuvPa2/nWSC47IFAmSW38UN3//2vjyxZvjW1u+0Lum8vNxxfyNSpxul9isXunU1lt6Ie/JvSN9vaNju/3aH8UlXziuf63t8M/g6OGuT3h2PG+/3ZbBuSO+9unPxjd7Rwtf8MFtvVOmh4LkiGeZLg2S/xxvfvyT4z3XPzw2bLolzjx46Wa+8bYnxi+989odc/07vdO+98pO+x79fMz4zhXxiSt7gxvqxyBIbu9r4SA54vEpS4LkYCwj9uO5NBur3GwnsR3NcAgQINB9AUGy+zU0gpQExjkieeXrY++nnd67hUnv2q3betduzR+UueuK98Vv/c6J8Zns5iFDNtlNT/bZ/Uex5aaCp7b21t1607mx8Yg/iL/6cu9OlcPO2d0n99w1vvHt3oduRyRTmoFDp5kuH4S2Xvnm+OX/9J7o3UcnHrVhU9zQS3HDWXL5OwEvT1Q+SOaHr+1fmgxdh5lbsKkGyaWnqC/pnyCZWzILECBAgMD0BQTJ6ZvbIoHRAmMEyeWe4bfjQ/7cnR9f9cpXxjMOOiAOWP+42Ovhu/QuRVvmkQijjkje0vuA+4TezUx6N4vc6RefGi88+qh4/kEHxnOfujYetWfvlEYfbtOcyQVutnPl69f1TrXs3TGmd3Rvw6YbekcEd0TJj73oPr0b7dw73k2Yco6KT3JEcrB/bA+S3+jdaOeXshvtjDhSOKKa9R+R7N2AZ+/eDXhuzA/FvrRJc5czKgIECHRVQJDsauX0O02BwkHyW/H2X943Ttrc+yj/3y+L730gu2XJ1t4ZcLv0HlVw77JHijKwZT/kj/gQP/jwvvoZ74/vff61sfixd4NTB324TWwq5gbJbKoN7ujbu+FO79Ef1/Ye/TG4GdNgXix7c5pRVGMHyfxrJC895hFxyFn/NhRoPxYvus/L4vx7Vwhsy/Sv/iDpGsnE9iDDIUCAwMwICJIzU2oD7YRAoSC5NW76k+fE3m/4Qu/U1fVxynVfjRP7n+IH11oNXXs2POitO+7+WOQaycEH6JXvcNk7v9GprZ2YWoU7WSRI9hq7vTdXH9O7bu/O2LU3Bb7bu9Zx/tzqy18bexz05/H95R6XkXXi9r+MQx7+B3HVQ9fHxk9fGSc/OZu6I+4cPN/p5Y6k3/6Xh8TD/+ul2d12lvmi4/J47R4HxZ/3L3e8Or6V3dI4bo+/POTh8V8vHf1Fy+Wv3SOe+bd3xyP/nz+Paz/6snhAb636g2TEindtjR1fGtnXCs9iCxIgQIDAFAQEySkg2wSBwgIrBsm74t++/sX44Mm/G8f9n2/3jj+ujrVv+mJ89bRfnb9GbccH5V17d8y8vnfHzO1HEbfeFH/z4v3iNdl5qr2fBeFwcNOeXXvPz/v33vPz5jubfag+qP9JfGP80zV/MnRTlbviitfvH8843bPtCte1SwsWDJK9h5bGu/ZfG8d/pfdlwoJnLw4eo3Fv74Y8p8RFm07c8UzIoXm44EjmBEFyx1HRxfvBwvk5PNe3P3pk9aPj5R+5Iv72yMGzJyPuuuL1sf8zTu9d+7nwuZjTCJI7xrL4mZj2tS7tOvpKgACBWRMQJGet4sbbboFBkMzt5ep49Ms/Hl/+8IsWnHK69dLXxprn/Hl8p/fZPruu8ZAD94pdb/2XuOSL34gf39v78PxfHh0fOfeLi44iDo7erI6H/vJz4jf2fVa8/v++KQ66pXfk6DH/NS7t3WVn9S5r4qDnr4+H9R4B8aUvXB033/WA+LWXPz3+9SOfiRtH3GkzdwgzsEC3H/+Rfy3h9mC2+MuJ3t1dj3rqS+IjN/UnYjz1kANjr11vjc1/f1lsyW4bvFuv7W/2njE5+KZjkiDZ2+bWK98WTz3onfG1rXPXBD9//f3jxss3xZd/cG/s1Ltsc+vWxddqbo0r3/WMeM7x/xh39L6ImVvnYXHnjZfHpv4NpRaH0ukckcx2hVs+9KJ40qvOjx/eu3Qsu+12v7jjjkU3yZqB/ccQCRAgQKDdAoJku+ujd7MmsGKQ7H3A3P0xse6QI+P1bz0ufuspS5/h1/9AevHb41XHvi8++40f9++0utOD9o71L3pdnPGO18av//x9c49A2PXI+MRtvWvG5u+RcsvFb44jjz4jPveDbI0dz7/beu3fxIajToyPX31z/7Ehq3fZPdb+xu/GW99zUrx8v/9v/nmAw6fXzlrBVh5v6kGyN9t6z0Dco/cMxGxy9O4e/L3e3YMH4bB39PGid2+IN/7p5+La2+buIDw3F4+Ls/9iQ+y3y5DdhEEya2HrTRfFuze8Md732d6XJb3pu9ODnhTPfsMZsfHO34vffM/1y970566vnRX/7VXvivMGj7BZvUvsvvY34g/++Kx4y6E7jlJm7U/liOQ8xVy/3j6/v/X29z2fHC95+4fjtdceFk8bMRZ7HAECBAgQaEpAkGxK3nYJECBAgEABgcE1omvf+vX4l3c8qcAaFiFAgAABAvULCJL1G9sCAQIECBAYKfDPb14fzzz7lnja8f8Ul/zBYxctN7ir667x8k/+e3x4cBEzTwIECBAg0LCAINlwAWyeAAECBGZbYOt5L43dX3xu3LnPa+Pyze/fcXOi3snpN/3Ni2O/13wq7lhwQ6PZ9jJ6AgQIEGiHgCDZjjroBQECBAjMrMA/xynrfy1O/lp2kefg5kQRt27++7hsS+/60tVr401f/Gqc9qvzFzXPrJOBEyBAgECbBATJNlVDXwgQIEBgNgV6Nyf6hw+8LY59/3mx+Ya5G2XN3dzqD+KPz3pLHPpoIXI2J4ZREyBAoL0CgmR7a6NnBAgQIECAAAECBAgQaKWAINnKsugUAQIpCHTy8R8pwBsDAQIECBAgULuAIFk7sQ0QIDCrAoLkrFbeuAkQIECAQPoCgmT6NTZCAgQIECBAgAABAgQIVCogSFbKqTECBAgQIECAAAECBAikLyBIpl9jIyRAgAABAgQIECBAgEClAoJkpZwaI0CAAAECBAgQIECAQPoCgmT6NTZCAgQIECBAgAABAgQIVCogSFbKqTECBAgQIECAAAECBAikLyBIpl9jIyRAoCEBj/9oCN5mCRAgQIAAgdoFBMnaiW2AAIFZFRAkZ7Xyxk2AAAECBNIXECTTr7EREiBAgAABAgQIECBAoFIBQbJSTo0RIECAAAECBAgQIEAgfQFBMv0aGyEBAgQIECBAgAABAgQqFRAkK+XUGAECBAgQIECAAAECBNIXECTTr7EREiBAgAABAgQIECBAoFIBQbJSTo0RIECAAAECBAgQIEAgfQFBMv0aGyEBAg0JePxHQ/A2S4AAAQIECNQuIEjWTmwDBAjMqoAgOauVN24CBAgQIJC+gCCZfo2NkAABAgQIECBAgAABApUKCJKVcmqMAAECBAgQIECAAAEC6QsIkunX2AgJECBAgAABAgQIECBQqYAgWSmnxggQIECAAAECBAgQIJC+gCCZfo2NkAABAgQIECBAgAABApUKCJKVcmqMAAECBAgQIECAAAEC6QsIkunX2AgJEGhIwOM/GoK3WQIECBAgQKB2AUGydmIbIEBgVgUEyVmtvHETIECAAIH0BQTJ9GtshAQIECBAgAABAgQIEKhUQJCslFNjBAgQIECAAAECBAgQSF9AkEy/xkZIgAABAgQIECBAgACBSgUEyUo5NUaAAAECBAgQIECAAIH0BQTJ9GtshAQIECBAgAABAgQIEKhUQJCslFNjBAgQIECAAAECBAgQSF9AkEy/xkZIgEBDAh7/0RC8zRIgQIAAAQK1CwiStRPbAAECsyogSM5q5Y2bAAECBAikLyBIpl9jIyRAgAABAgQIECBAgEClAoJkpZwaI0CAAAECBAgQIECAQPoCgmT6NTZCAgQIECBAgAABAgQIVCogSFbKqTECBAgQIECAAAECBAikLyBIpl9jIyRAgAABAgQIECBAgEClAoJkpZwaI0CAAAECBAgQIECAQPoCgmT6NTZCAgQaEvD4j4bgbZYAAQIECBCoXUCQrJ3YBggQmFUBQXJWK2/cBAgQIEAgfQFBMv0aGyEBAgQIECBAgAABAgQqFRAkK+XUGAECBAgQIECAAAECBNIXECTTr7EREiBAgAABAgQIECBAoFIBQbJSTo0RIECAAAECBAgQIEAgfQFBMv0aGyEBAgQIECBAgAABAgQqFRAkK+XUGAECBAgQIECAAAECBNIXECTTr7EREiDQkIDHfzQEb7MECBAgQIBA7QKCZO3ENkCAwKwKCJKzWnnjJkCAAAEC6QsIkunX2AgJECBAgAABAgQIECBQqYAgWSmnxggQIECAAAECBAgQIJC+gCCZfo2NkAABAgQIECBAgAABApUKCJKVcmqMAAECBAgQIECAAAEC6QsIkunX2AgJECBAgAABAgQIECBQqYAgWSmnxggQIECAAAECBAgQIJC+gCCZfo2NkACBhgQ8/qMheJslQIAAAQIEahcQJGsntgECBGZVQJCc1cobNwECBAgQSF9AkEy/xkZIgAABAgQIECBAgACBSgUEyUo5NUaAAAECBAgQIECAAIH0BQTJ9GtshAQIECBAgAABAgQIEKhUQJCslFNjBAgQIECAAAECBAgQSF9AkEy/xkZIgAABAgQIECBAgACBSgUEyUo5NUaAAAECBAgQIECAAIH0BQTJ9GtshAQINCTg8R8NwdssAQIECBAgULuAIFk7sQ0QIDCrAoLkrFbeuAkQIECAQPoCgmT6NTZCAgQIECBAgAABAgQIVCogSFbKqTECBAgQIECAAAECBAikLyBIpl9jIyRAgAABAgQIECBAgEClAoJkpZwaI0CAAAECBAgQIECAQPoCgmT6NTZCAgQIECBAYMYFVq1aNeMC6Q9/27Zt6Q/SCFslIEi2qhw6Q4AAAQIECBCoXiALkoJG9a5taVF921KJ2eqHIDlb9TZaAgSmKODxH1PEtikCBFYUEDTSniDqm3Z92zo6QbKtldEvAgQ6LyBIdr6EBkAgGQFBI5lSLjsQ9U27vm0dnSDZ1sroFwECBAgQIECgIgFBoyLIljajvi0tTOLdEiQTL7DhESBAgAABAgQEjbTngPqmXd+2jk6QbGtl9IsAAQIECBAgUJGAoFERZEubUd+WFibxbgmSiRfY8AgQIECAAAECgkbac0B9065vW0cnSLa1MvpFgAABAgQIEKhIQNCoCLKlzahvSwuTeLcEycQLbHgECBAgQIAAAUEj7TmgvmnXt62jEyTbWhn9IkCg8wIe/9H5EhoAgWQEBI1kSrnsQNQ37fq2dXSCZFsro18ECHReQJDsfAkNgEAyAoJGMqUUJNMuZadGJ0h2qlw6S4AAAQIECBAYX0CQHN+sS2uob5eqlU5fBcl0amkkBAgQIECAAAFHrGZwDgiSM1j0FgxZkGxBEXSBAAECBAgQIFCngKBRp27zbatv8zWYxR4IkrNYdWMmQIAAAQIEZkpA0Ei73Oqbdn3bOjpBsq2V0S8CBAgQIECAQEUCgkZFkC1tRn1bWpjEuyVIJl5gwyNAgAABAgQICBppzwH1Tbu+bR2dINnWyugXAQKdF/D4j86X0AAIJCMgaCRTymUHor5p17etoxMk21oZ/SJAoPMCgmTnS2gABJIREDSSKaUgmXYpOzU6QbJT5dJZAgQIECBAgMD4AoLk+GZdWkN9u1StdPoqSKZTSyMhQIAAAQIECDhiNYNzQJCcwaK3YMiCZAuKoAsECBAgQIAAgToFBI06dZtvW32br8Es9kCQnMWqGzMBAgQIECAwUwKCRtrlVt+069vW0QmSba2MfhEgQIAAAQIEKhIQNCqCbGkz6tvSwiTeLUEy8QIbHgECBAgQIEBA0Eh7Dqhv2vVt6+gEybZWRr8IEOi8gMd/dL6EBkAgGYH2BI3r4owD18TGK5ahPeD02HL5sbFvnerXnREHrrkmTth2Zhy60naKLldnX8douz31HaPTFu28gCDZ+RIaAAECbRUQJNtaGf0iMHsCrQwaTYS1otssulxLplIr69sSG92oT0CQrM9WywQIECBAgACBVgi0MmgsG9YuimNWHRZn9dU2xIXbjxxmRzKPjjhyfWzcOPe/B5y+JS5f+95YddjQ34/NjmdmbZwf607f3Fs2O/NW5LQAACAASURBVPR5QJy+5fLo/9fibfb/vjEGB0g3XLgtzjx0uT6M6lcryhutrG87aPSiRgFBskZcTRMgQIAAAQIE2iDQyqCxTJC86JhVceq6XkDspb7rzjgw1lxzQmw7MzsJdf6U2PUXzv19EAA3DP99cMrqfOgbnCp70TG9sBlzoXTBNrPlTo11y4XMRX0b3a82VDcEyXaUYeZ6IUjOXMkNmAABAgQIEJg1gW4EyUXBbv7I4hH9o5LzRyTPmT+yuOTvw+vOBclecuwdXcwqPbRurHSN5NyRzP72VgqcC/rVjpnUyvq2g0YvahQQJGvE1TQBAgQIECBAoA0CrQwaS45IDp8+OlAbnJY6bpAcOtLYayo7onj+Eb1guWZpkMz+b/7s2N6S86fTLgmSg9NtF/erDdV1RLIdVZi9XgiSs1dzIyZAgAABAgRmTKA7QXL+iOCS+pQJkqOOSC46cjkcHpcEyVH9asdEamV920GjFzUKCJI14mqaAAECBAgQINAGgVYGjZxrJHuHEWPVqevmHwkybpDsHUEcXD853M7IsNirUv//zo0js2smF50CO3yN5MJ+taG6jki2owqz1wtBcvZqbsQECExJwOM/pgRtMwQI5Ap0JUjO3XF1cBrp0N1Wx75G8tTsLNU466yV79rav6HP4KGWB2zordK7A+wJ2bWVg+ddDu4cO6pfufRTWaCV9Z3KyG2kSQFBskl92yZAIGkBQTLp8hocgU4JzFbQWHzTnk6VaqLOzlZ9JyKyUg0CgmQNqJokQIAAAQIECLRJYLaChiDZprmnL+kKCJLp1tbICBAgQIAAAQJ9gdkKkrNXdPWdvZq3YcSCZBuqoA8ECBAgQIAAgRoFBI0acVvQtPq2oAgz2AVBcgaLbsgECBAgQIDAbAkIGmnXW33Trm9bRydItrUy+kWAAAECBAgQqEhA0KgIsqXNqG9LC5N4twTJxAtseAQIECBAgAABQSPtOaC+ade3raMTJNtaGf0iQKDzAh7/0fkSGgCBZAQEjWRKuexA1Dft+rZ1dIJkWyujXwQIdF5AkOx8CQ2AQDICgkYypRQk0y5lp0YnSHaqXDpLgAABAgQIEBhfQJAc36xLa6hvl6qVTl8FyXRqaSQECBAgQIAAAUesZnAOCJIzWPQWDFmQbEERdIEAAQIECBAgUKeAoFGnbvNtq2/zNZjFHgiSs1h1YyZAgAABAgRmSkDQSLvc6pt2fds6OkGyrZXRLwIECBAgQIBARQKCRkWQLW1GfVtamMS7JUgmXmDDI0CAAAECBAgIGmnPAfVNu75tHZ0g2dbK6BcBAp0X8PiPzpfQAAgkIyBoJFPKZQeivmnXt62jEyTbWhn9IkCg8wKCZOdLaAAEkhEQNJIppSCZdik7NTpBslPl0lkCBAgQIECAwPgCguT4Zl1aQ327VK10+ipIplNLIyFAgAABAgQIOGI1g3NAkJzBordgyIJkC4qgCwQIECBAgACBOgUEjTp1m29bfZuvwSz2QJCcxaobMwECBAgQIDBTAoJG2uVW37Tr29bRCZJtrYx+ESBAgAABAgQqEhA0KoJsaTPq29LCJN4tQTLxAhseAQIECBAgQEDQSHsOqG/a9W3r6ATJtlZGvwgQ6LyAx390voQGQCAZAUEjmVIuOxD1Tbu+bR2dINnWyugXAQKdFxAkO19CAyCQjICgkUwpBcm0S9mp0QmSnSqXzhIgQIAAAQIExhfIgqSftAW2bduW9gCNrnUCgmTrSqJDBAgQIECAAAECZQQcgS2jZ10CxQQEyWJOliJAgAABAgQIEOiIgCDZkULpZqcFBMlOl0/nCRAgQIAAAQIEFgsIkuYEgfoFBMn6jW2BAAECBAgQIEBgigKC5BSxbWpmBQTJmS29gRMgQIAAAQIE0hPIbjqzevXq+PnPf57e4IyIQIsEBMkWFUNXCBBIS8DjP9Kqp9EQINANAUGyG3XSy+4LCJLdr6ERECDQUgFBsqWF0S0CBJIWECSTLq/BtUhAkGxRMXSFAAECBAgQIECgnIAgWc7P2gSKCgiSRaUsR4AAAQIECBAg0HqB7NrI+973vnHvvfe2vq86SKDLAoJkl6un7wQIECBAgAABAgsEBEkTgsB0BATJ6TjbCgECBAgQIECAwBQEBMkpINsEgZ6AIGkaECBAgAABAgQIJCMgSCZTSgNpuYAg2fIC6R4BAgQIECBAgEBxgezayJ133jnuueee4itZkgCBsQUEybHJrECAAIFiAh7/UczJUgQIEKhSQJCsUlNbBEYLCJJmBwECBCYUOOSQQ+LSSy+dcO32rHbwwQfHpk2b2tMhPSFAgEAJAUGyBJ5VCYwhIEiOgWVRAgQIDARWrVoV2bPKUvhJaSwp1MMYCBAoJyBIlvOzNoGiAoJkUSnLESBAYF4gteCV2nhMVAIEZlsguzby/ve/f/zsZz+bbQijJ1CzgCBZM7DmCRBISyDF0JXimNKadUZDgMA4AoLkOFqWJTC5gCA5uZ01CRCYMYFUA1eq45qx6Wm4BAjMCwiSpgKB6QgIktNxthUCBDoukHLYSnlsHZ92uk+AwAQCguQEaImukspN8fbaa6+44YYbWlclQbJ1JdEhAgTaJpB60Ep9fG2bT/pDgEC9Atm1kbvuumts3bq13g1pvfUCqby/ZePIftp2kz9BsvW7gA4SINCkQCpvQisZzsIYm5xDtk2AwHQFBMnperd5a6m8v2Xj+PGPfxwPetCDWhUmBck2z359I0CgUYFU3oDyEGdlnHkO/p8AgTQEBMk06ljFKFJ5fxsEycykTWFSkKxilmqDAIHkBFJ58ylSmFkaaxEPyxAg0G0BQbLb9auy96m8vw0HyTaFSUGyytmqLQIEkhBI5Y2naDFmbbxFXSxHgEA3BbJrIx/4wAfG3Xff3c0B6HVlAqm8vy0Okm0Jk4JkZVNVQwQIpCCQypvOOLWYxTGP42NZAgS6JSBIdqtedfY2lfe35YJkG8KkIFnn7NU2AQKdEkjlDWdc9Fkd97hOlidAoBsCgmQ36jSNXqby/jYqSDYdJgXJacxi2yBAoPUCqbzZTAI9y2OfxMs6BAi0W0CQbHd9ptm7VN7fVgqSTYZJQXKas9m2CBBopUAqbzST4s76+Cd1sx4BAu0UyK6N3G233eKnP/1pOzuoV1MTSOX9LS9INhUmBcmpTWUbIkCgjQKpvMmUsWVQRs+6BAi0QeDnP/95/MIv/EK/K4JkGyrSjj6k8v5WJEg2ESYFyXbMc70gQKABgVTeYMrScSgraH0CBJoW+Lu/+7t4xSteEe973/vi6KOP3n5E8owzzogTTzwxsv8/+OCDm+6m7U9ZIJX3t6JBctphUpCc8oS2OQIE2iGQyptLFZosqlDUBgECTQvstNNO/aOS97///ePOO++MnXfeObLrJXfZZZe4/fbbm+6e7TcgkMr72zhBcpphUpBsYFLbJAECzQqk8sZSlSKPqiS1Q4BAkwJ/9Ed/FO9617vi3//937d348EPfnC8973vjd/93d9tsmu23ZBAKu9v4wbJaYVJQbKhiW2zBAg0I5DKm0qVekyq1NQWAQJNCmRHJX/2s59t78Luu+8eP/zhD5vskm03KJDK+9skQXIaYVKQbHBy17HpQw45JC699NI6mtbmBALZ9RibNm2aYE2r1CGQyhtK1TZclhf1elr1TCvXntfTcn6zsvY73/nOePe7390/KpkdjfzjP/7jeM1rXjMrwzfORQKpvL9NGiTrDpOCZGK73Pvf//7YsmVL/Nmf/VliI+vmcNSjPXVL5c2kDlE2y6vaf+uYbZO3qR6T283amve9733jnnvuiYc+9KFx6623ztrwjXdIIJX3tzJBss4wKUgmuLutWbMmLrrooth3330THF33hqQezdcslTeSuiT5jJa1/9Y16yZrVz0mc5u1td7xjnfEaaedFn/6p38ar371q2dt+MYrSC47Bx70oAfFtm3bKp0fgmSlnO1oLAuR2Te3F154YTs6NOO9UI9mJ4CQlO/PaLSR/Td//kxzCfWYpnZ3t3XXXXfF8ccfH6effnpkr29+Zlcglfe3skckBzOg6jDZuiCZJWU7ffkd/rDDDovXve51ceihh5ZvTAulBdSjNOFEDaTyBjLR4MdYidPKWPbfMSbTFBZVjykg2wSBRARSeX+rKkhmZa0yTNYSJLNn9tx4441xww039H//8Y9/HNddd13/GT633XZb/1cG8t3vfrf/fJ/s7lrZ79mv7GL67GYx2V23sl/Zee7Z73vuuWd/nezuW4Nfj3/84/sYe++9d+y1117937Pl/UTfOwuR2fWSfpoXUI/p1yCVN49pyLFaWdn+O41ZWHwb6lHcapIl3WRqErX61nGTqXK2qby/VRkkqwyTpYPk9ddfH1dddVV85Stf6f++evXquPjii7cHuyzg/cqv/Er/3x/ykIdsD4HZBdDZA2OHw2L250HBB8FyEDL/4z/+o3/75kEQzX7Pjl5effXV2wNrFlyf97znxb333htPecpT+r/233//2GeffcrNwo6u/fu///uRXU+SHZn007yAekyvBqm8cUxLjFe+tP0332iaS6hHPdof//jHI/t17rnn1rMBrY4loB5jcS27cCrvb1UHyarC5NhBMgt4F1xwQf/6uyuvvDJ+8pOf9MPaILRlvz/ykY8sX/kJW/jBD37QD7WDX1m4fcADHhBPe9rT4gUveEEcfvjhM3XUMpUdaMLp0LrV1KP+kjAe35hZMTNOxZymtZR6VC995JFHxkte8pL+Lz/NC6hH+Rqk8jpRR5CsIkwWDpKbN2/u3wErC5HPfvazI7tG4YUvfGE84hGPKF/lmlu45ZZb4pOf/GR86lOf6p82mwXKN7/5zbHffvvVvOXmm3e79OZrMNwD9ai3Hqm8YdSrtLR1bsXE7b/FnKa1lHpUL+21oHrTMi2qRxm9uXVTMawrSJYNk7lBMju19GUve1n/WrssfB111FHlq9pwCx/60If6ofgJT3hCfOxjH4v73Oc+Dfeo3s27XXq9vuO2rh7jihVbPpU3i2KjrXYpdsU97b/FraaxpHpUp+w0yuosq2hJPapQFCSLKk56A54Vg+S3vvWtWLduXf9I3nOf+9yifenMctm1nNmR1SwkZzfqSfXH7dLbVVn1qL4e2c0hNm3aVH3DM9KiIFm80Pbf4lbTWFI9qlN2GmV1llW0pB5VKAqS4yhOEiZHBsmbbropXvrSl8Zll102Th86uexBBx3Uv7h8jz326GT/i3Ta7dKLKE1vGfWo1loQKufJbzw/++94XnUvrR7VCHsdqMaxqlbUoxrJVBzrPLV1WHrcMDkySGansGbXEr785S+vppItbuWDH/xg/06z55xzTot7Wa5rbpdezq/qtdWjWtFU3iiqVSneGr/iVtmS9t/xvOpeWj3KCzuNsrxhlS2oR3Waqby/TStIZvLjhMmRQfJxj3tcfPvb366uki1vaRbG63bp7ZqE6lFdPVJ5o6hOZLyW+I3nlS1t/x3frM411KOcrtMoy/lVvbZ6VCeayvvbNIPkOGFyZJDMOvya17wm/uqv/qq6ara0pVe/+tXxt3/7t/3nUqb+k8oOlUqd1KOaSnIs58hvMj9uk7nVtZZ6TC7LbnK7OtZUj+pUU7GcdpAsGiZXDJInnHBC/MM//EO8613viqc//enVVbUlLX3pS1+Kt7zlLfGsZz0rTjzxxJkIkm6X3pLJN98N9aimHqm8UVSjMX4r/MY3y9aw/07mVtda6jGZrNMoJ3Oray31qFY2lfe3gw8+OD73uc9Vi1Ogtb322ituuOGGkUuuGCSzI3TZnRCzIPnNb34zfvu3f7t/3WQWKu973/sW2Hy7FskeZfLFL36xfxfaj370o7F27do4/vjjIytOKhOtiLjbpRdRmt4y6lHeepb23/JaS1vgN7mq/XdyuzrWVI/xVZ1GOb5ZnWuoR7W63t/Keeb55QbJweZvvPHGfvi65JJL4vOf/3ysX7++fyTv8Y9/fGQv3Nmvxz72seV6W+HaWX+zC/CzR3tcf/318dnPfjY2b97cD43Pfvaz+6F4uL95UBV2rfGm3C698RIs6IB6lK/HLO2/5bUEySoN7b9VapZvSz3GN/T6Ob5ZnWuoR7W6PMt55vlNfI3kVVddFV/+8pcj+z0La9mvH/zgB/Gf//N/jltvvTV+8Rd/sf/rkY98ZGQ3srnPfe4TD3zgA/t3Asp+32233WKnnXbq/3t2dDP7ffDrnnvuicGv7Chi9ue77747fvzjH8dPfvKT7b9n/57dECjbbvbrX//1X+PhD394nHfeef1Heey77779gLv//vvHU5/61P7vy/3M0jWSg/G7XXq5HavqtdWjnGjeC11u6xcdE6sOO2vHYgecHlsuPzb2zV0xjQVK+6XBMPEo7L8T09WyonoUZ3UaZXGraSypHtUre38rZ5rnV+k1klu3bu0f/fv+97+/INxlnchOjR0OgVmIvPnmm/shcRAWsz//+q//ev+6zEGoHITMLBhmyw2H0Sc84Qn96xqHQ2u23D777FPo1NtZvEZyMJ3cLr3cjlX12upRTjTvhW6l1q8748BYs3F9XLjtzDh0fsGLjlkVh22enTBZxq9c5dJY2/7brjqqR/F6OI2yuNU0llSP6pW9v5UzzfPLPbXVNZLlCtDmtd0uvV3VUY/J65H3Qje65YvimFWnxrotl8exCw4/XhdnHLgmrjlhW5zZT5fZcofF3DHLDUOhM1vu6Igj18fGjXP/e8DpW+Lyte/dfoSz//d+4+Msu8I2rzsj5ja5MeY3GRsuHPRzMsPJ/SbbXopr2X/bVVX1KFYP+34xp2ktpR7VSzMtZ5rnlxskB5t3jWS5QrR17bwJ0tZ+p9ov9ZisshO7Zae0nrou9zTW7AjlqevmA+GCdeYC58b1F8a2LHFmIW/Nxrhiw/Dfr4kT+kc7x1m2F11HbXN+GzEIqAXHsJLsxH6TlSvZtTi2q7TqsXI9nEbZrvmqHvXUw+tAOdc8P9dI9nxn8RrJwbRyu/RyO1jVa6vHZKJ5L3QjW81C2PlHzIXA0Qv1jkaeH0dsP/V1+Cjm/FHGcwZHNBf/fdJls/VGbDOysDoIp71O94Pl0N8nIJzYb4JtpbyK/bdd1VWPlevhNMp2zVf1qKce3t/Kueb5uUZyxp4judx0crv0cjtZ1Wurx/iieS90I1ucP030nJVurLMkqA2HxZqC5OKwODgtNgusguT4E2SKa9h/p4hdYFPqMRpp4tfNAu4WGV9APcY3K7IG1yJKk79O5J7a6hrJcgXowtpul96uKqnH+PWY/I2iyDWSKxwd3LemILmvI5Ljz4J2rGH/bUcdBr1Qj+Xr4TTKds1T9aivHpN/PqivT11qOc8vN0gOBusayS6Vffy+ul36+GZ1rqEe4+nmvdCt1FqRu7aufI1k7843lZ/amneNpFNbx5sh013a/jtd77ytqcdSIadR5s2a6f6/etTnXebzQX296k7LeX6Fg+TiIaf0HMlsbHlQ3Sn5ZD11u/TJ3OpaSz3Gky29/+Y+RzLnrq01BMmRd4pdfKqtayTHmyxTWNr+OwXkMTahHkuxSr9mjuFv0XwB9cg3mnQJtpPKza2X5zdxkFyuW117juTwGPKgypWhG2u7XXq76qQexeth/y1utdyS/Mr5Lbe2/bd60zItqscOPadRlplJ1a+rHtWb+nxfnWne54NKg2R13Z5+S3lQ0+9RM1vk0Iz7qK2qR7F6cCrmZJ6Vcxp3bfNyXLF6l1ePOV+nUdY7z8ZtXT3GFRtvefv9eF6Ll87zEyTnxfKgypWhO2u7XXq7aqUexeph/y3mJEiWcxp3bfvvuGL1Lq8ec75eL+udZ+O2rh7jio23PN/xvATJCb1MtB1wbpc+4SSqaTX1yIe1/+YbrbQEv3J+K61t/63PdpKWZ70eTqOcZNbUt4561Gc7aNn7WznjPD9HJOd986DKlaG9a1988cXx3Oc+d0EHy90uPXscwprYeMUyYz7g9Niy0vP6KmPa0YcDTt8Slx+7b2UtN9FQuXo00eN6tnnJJZfEc57znGUbn9X9typpftVIej2txrHOVlJ+PV1u/i22rPU0yv6NvzbG0rf/DXHhtjPj0EoLO/c+f80J2+LMahuutJd5jdVaj7yNJ/L/efN+7Pe3EfN4w4Xdnmsx4Y358vwEyRkPkg9+8IPj7rvvjne84x3xhje8YfvLSiW3S59w0pZ+bWtqu6U7PrqBSupRY/+m0fTDH/7wuOOOO+KUU06J4447bsEm817optG/Lm+DXzXV83pajWPdraT6ejpq/g171rqvj3jv7T9i6dwjK/4iOY0gWWs96t6RWtJ+3rwf23jZeTx35/beNyLd/eJiws/GeX71BsmyqX7CQU8yt/OgJmmzC+ucffbZkd3N7t57741t27bFqaee2g+Uldwufbn6Zf929DWxPs6Ks66Y/5Zy0TzZ/q1Pf9nejQHWb4yNZ81pLvhGaMEjGwbfeA4/puGAOH3L5XFs/+Huh/W22G9hxzejS/ryh3Ht3AZj4/wG+0c01743Vh02t/aCI5zLbr+eqldSj3q6NrVWP/axj8WGDRviZz/7WX++nnTSSXH88cf3t19o/23i9WiwzQ0Xxrahr82z51IedtYk39IX/PA05mtnIb+pVbq7G/J6Ovza7vV02jN51Pwb9KP20yhHve4s+feV3pNXeM+PofUO2NB7N++9L28/Iln0fT47MjrOsvVVsfZ61Nf1VrWcN+/Hfn9baR73Hxt9bMyd5zbqsWCL/2/+s2hkR+xHPQM6e28f4/PninN4uX1opb6uXM48vykEySG0IfhCqX7MD0NlZnYeVJm2275udqTn1ltv7Xdzl1122R4ov/3tb8fatWvjda973WRDGBUke6e+rN/+rU42uU+Ndf3A19vM8DrzH8J7aXDu9NQsuJ26bv5bzWy98+OI+dNl+t94XnPC3If1Rdsd+TD5+fZ39GX+lNj18x/6F4eABe2usP3JtHLXcvv6iEc/+tFx8803963ud7/7xc9//vN+oHzrW9/an7cr/pT9lnGS16P+Ouf2vr84Ms45c+jN58BTY/MV63ufgcY93UuQzN1RGl7A6+ngG3uvp01MxVHzL3v/OOqoo+IlL3lJ/1ctPwWPSA6/Jy99794Yy7/nZx8BVsWp64Y+D/S+4B18uZzX5o73+YXtLLf94WVrcZpv1Gmt1emuNO932mmn/M8Hw10Z+V6/8PPqyM+Wseh9evDZ9ZyIo1cMkr3Lwgp9/syfw8vuQ5N8hum55OWjBoLkfFgYTvXLHpFaJj2POnJVwVzMoGb5Z/Xq1f2jPIOf7EP6K1/5ytiyZUts2rRpMpqRQXLxlwvDzQ8FtMXrLwlyQwF05IvAwsA39w3S/HqLvx3q7/z9iTkXapf8ffhFZFEAnkxo7LX222+/+PrXvz72eimtkL0pZM+sHfzsvPPO/dOzJwuSNb8ezc/Z9Rs2x7o/3PFlyTHvvSY2979MHwTJgt9sjvMt/PAbVs4EmPXXv6r3D6+ny71+Ln599Xpa9bwbtDdq/v3P//k/818ny3RqxFkfvVN5hk5rXfzeOc57/o4vj+fenwfXSI7R5vBngP77/ArbL2NRYF2vuwWQxliksnk/MnANv4aN89lyfhArfqYt8/mz4D6UVJBcsCPnHZEahI4Vlhtjoo1aNC9xV7CJ1jYx/E3Orrvu2g+U2SmuN9xwQ01HJJcGyblT/QZEw6e8jjoNYD4AbL+wf3Aa6+Df59dbsuMM7aylguQK26+p0o5ILn9E8sQTT4y3ve1t+R+QCn3LWPHr0WCbF0acH2f2r6247oxj4oK16+Lcw3bM7dHfbJb5Fn6lL2wWTtJZfv2renf1ejr4cmScD0ZeT6uah6Pm35577hnnnXdenHtu7wyJun4Wv8b2L//YPH+JyWCjw1+aDf6twKl/y7x+Z6+b5x+RHQEfo80FpwTmbL8up167TmutFnfUvM8+N2VfNud+0TzcnSKfFVb6/Jj934JTYOsIkoPLtcrtQ0WqkPf5oJkjkkuO9AwPpei3Q4u/DSjCMXqZPKhyrbd37cG55dkpgoMA+cY3vrHeayQXHCmZewPYfqrzklNbVwiSC6bN0GmvK5yCWt0RyUU1XXDabfX1do1kxOJrJLMAmZ3Smv0U2n8Lfcu4uHYlX48G29yyLk5979q4/Mw1vW/R3xtrz+n9fft+sMI3m/3re6v4Fn7lOVnIr/ppnVyLXk+Hv7wYM0iOej2vYZak+no6av5lhFM5jXKZ19j+qaMb1w/dtXWFz265ZyGt9Fo4/H9Dk2ZJn8bYfg1zb9DkVOpRY//b1PRK877w54MiQXKFy6tW/mxZR5AsON9X+kxdsIh5nw8aCpJLTwssdESqN+hllyuIsdJieVAVbKKVTWR3u/rpT3/av2trFiAHP5Xc1a7Iqa3LvnGcG0dm10yudGHy4uA2/PdFba58jeSEH3y2DF+v2Z+YQ9dvVl/qSupRfbem2uIjHvGI+NGPfhQnn3zy9pvsDDpQaP8t8i3j/JNiKns92r7N3o1HjrkgDj9zbbz3mIgz//DaHRfdj3XUfO41cPxv4QXJaUxWr6deT6cxz0ZtY9T8m+jD9CQDWfY1dtG1svOf4xZc6zi498GKQbL42RkL3o9HHMkstP1JDAquU+g9q2Bbs77YSvN+orm/7DxedNBjpXm8+BrJ7e0dEecP3RNk4Zcs433xVvhzbbJBckmqL3JEaoUjVxXsRbO6U3/mM5+J3/zN31wgWNlztooEyd6W53am+SdPDV8DtmalO1yt8KXCst9Ajrhr64Kjo+PvyEtOx61gLi5uorJ61NC3aTZZ+jmSo4Jkna9HQ9uMYw6Ma9etj3PjD+Pywy8YuntbmSOSBb+VzCnUrL7+VT1/vZ5OGCT791Jb5vKGqguUffi76KJ4//vfHxde2DvfPLGf5eZfNsSppAz7owAAIABJREFUnUY56jW2/+9DN9FZcHrpiMtSso4v+yXb/HOqV7xefIU2+zUfPhU2b9nqJ8nU6lF911vZ4qh5P+js2O9v8/N18fNQlz5HsuC9DWLHHBv+vHvA6afH+o3XzN80crzPn4Xn8IJ9aPCM9fHuGJ/n18ARyZxA2B/0MkekVjpyVcHz5vOgWrn31NSpNWvW9N9s9923Atia+jhLzapHfrUL7b9FvmUseoS86OvR8HLD1wstOtpexTWSed/Cr6RYyC+/DJZYRsD+265pMYv1cBplu+ageky3Ht7fynnn+U0hSG6MvFQ/8ojUoQvT85pRR656N7Ao+5MHVbb9rqyffVOb3an1z/7sz7rS5aT7qR7Fylto/y34LWOlr0ejTispetS8P/zB62Dvj6W+hR9tWcivWCksNSRg/23XdJjVeti/2zUP1WO69eBdzjvPr94gWa7vU107D2qqnWlwYxwaxF9m0+pRrB6cijmNWopfOT+u9fhV3eosznOnUVY9i8q1px7l/CZZexb3+0mcJn0fEyTn5Uy0CI+XqHLXK9+WehQ3tP8Wt1puSX7l/JZb2/5bvWmZFme1Hk6jLDNrql9XPao3zWvR+1ue0Mr/n+cnSAqSfYFUb4debvdpbm31GM8+74VuvNZmb2l+1dbc/lutZ9nWZrke9u2ys6fa9dWjWs8irTEvojR6mTw/QVKQ7At4vES5Ha3qtdVjPNG8F7rxWpu9pflVW3P7b7WeZVub1Xo4jbLszKl2ffWo1rNoa97fikotv1yenyApSCZ9O/Ryu08za6d8e/q6RPNe6Orabirt8quukvbf6iyraGmW6+E0yipmUHVtqEd1luO05P1tHK2ly+b5CZKCZMzi7dDL7Vb1rq0e4/vmvdCN3+JsrcGvunrbf6uzrKKlWa6H/bqKGVRdG+pRneU4LXEfR2uqQXL4QZzZhsd7wGW5YVW/9qxOtFm9HXr1M6iaFtVjMsdZ3X8n0xr/jaKq7aTejv23XRWe5Xo4jbJdc1E9mquHzwfl7PP8JjwiORci48Jtceb8Mxz7z14798jYcvmx0cXH2OdBlStDe9ee1XG3tSLqMVlluE3mNliLXzk/jtX4Vd3KLM9rp1FWPZvKtace5fzKrD3LrwNl3Iq+r00WJJc8TDvbXBYuT411Wy6PY/tJcviI5dDRysXrLn5g99HXxPo4K866YrDOcDsHxOl57fc3fUysOuyseYNiR0pncaLN6u3Qq9ix6mhDPSZXncX9d3KtpWvyK69p/y1vWGULs14P+3SVs6l8W+pR3nDSFthPKje3Xp7fZEEyroszDlwTG+P0kUcgLzpmVZy6bktcnqXKLNidum5u2bwguWZjrN9+pHNuO9ecMH/kc6idLUPt94+GXnNCbOsfHs2C5/lxxLYzI/vbwv8bjZkHVa4M7Vt7lm+H3r5qePxK2ZrM2v5b1mvx+vzKiXo9LedX9dqzXg+nUVY9o8q1px7l/Mqu7f2tnGCe34RBcr5TC478LT5auCPMLThaGWfEgWuuiRPmg14v6e34+0ohc4HDckc/B9tb/H/FAPOgirXSnaVm9Xboba2QepSrzKztv+W0lq7Nr5yo/becX9Vrz3o9nEZZ9Ywq1556lPMru7b3t3KCeX7lguRw3/oh8Nw4Mjv1dHFY7B/BPDrinGX+Ly9I9ldbfN3l4hv9ZB0ZCrL9NjfGFf3+DQfc0Zh5UOXK0K61Z/l26O2qxFxv1KN8VWZp/y2vJUhWaWj/rVKzfFvqkX8qWnllLYwj4P1pHK3ql+VfzjTPb7IgmR2JPP+I+VNJd3QwO531/COy01AXnl5azxHJ4SOeKyANn1a7wmJ5UOXK0K61Z/l26O2qxFxv1KN8VWZp/y2vJUhWaWj/rVKzfFuzXg+nUZafQ1W2oB5Vak7Wls8Hk7kN1srzmyxIzt9IZ/iurYtvtjPyGslFN+XpX8O4cX2vqd41jUtu4rPoGsmh/+9dCLn8NZiLg6MguWAGzfLt0MvtSvWsrR7VuOa90FWzlXRb4TdZbe2/k7nVtZZ6RDiNsq7ZNVm76jGZW5VreX8rp5nnN2GQzDq1+PTSxaeQjrhra2/NufA4f+Lp6afH+o3XzN0cZ+TdYA/r3cc1+xl119aF285C7PabthZ8vmUeVLkytGftWRlne8RX7ol6VFMpjuUc+U3mx20yt7rWUg+ntdY1tyZt15ycVK669dSgnGWe38ggecghh8SmTZvKbb1Da8/CeGf9duhtm47qUV1F8l7oqttSmi3xG7+u9t/xzepcQz0inEZZ5wwbv231GN+sjjW8v5VTzfMbGSRf8YpXxKGHHhpHHXVUuR50YO0PfvCDcfHFF8c555zTgd5O1sVZvx36ZGr1raUe1drmvdBVu7X0WuM3Xk3tv+N51b20eswJO42y7pk2XvvqMZ5XXUt7fysnm+c3MkjefPPN8Vu/9VtxxRVzp6Cm/HPAAQfEJz7xiXjUox6V7DBn/XbobSuselRbkbwXumq3ll5r/Marqf13PK+6l1aPOWH7cd0zbbz21WM8r7qWVodysnl+I4Nkttkbbrgh9tlnn7jwwgvj+c9/frmetHDtT3/60/1xfec734nHPOYxLexhNV1yO/RqHKtqRT2qktzRTt4LXfVbTKtFfsXraf8tbjWNJdVjTtlplNOYbcW3oR7Frepe0vtbOeE8vxWDZLbpbdu2xUtf+tL42te+Fm9+85vjd37nd8r1qAVrn3322XHaaafF+vXr49xzz21Bj+rtwqzfDr1e3fFbV4/xzfLWyHuhy1t/1v+fX/EZYP8tbjWNJdVjTtlplNOYbcW3oR7Frepe0vtbOeE8v9wgOdj8Nddc0w9f2bcsz3nOcyI7leSFL3xh7LHHHuV6OIW1v/e978UnP/nJ+NSnPhWf+9zn4sUvfnE/FD/xiU+cwtab3YTboTfrv3jr6lFPPfJe6OrZajqt8itWS/tvMadpLaUeO6Ttw9OadcW2ox7FnKaxlFqUU87zKxwkB934+c9/HhdccEH/dNd/+qd/iltvvTX233//eMpTnrL99z333LNcr0usnV3bedVVV8VXvvKV/q/szw972MPiaU97WrzgBS+Iww8/vH8dwaz85E2AWXFoyzjVo55KcC3nyq+YH6diTtNaSj3mpJ1GOa0ZV2w76lHMaVpLeZ0oJ53nN3aQXNyd7PrCQXDLfs82mB3522uvvWLvvffu//7kJz85fuEXfiEe8pCHxO67797/lYW7+93vfrHTTjvFfe973/7vgz//7Gc/i61bt/Z/Df581113xW233bbgV3ba7dVXX92/lvPGG2/s/54dJc3+PQu2g3D72Mc+tpxiR9d2O/R2FU496qtH3gtdfVtOo2V++XW0/+YbTXMJ9dih7TTKac68/G2pR77RNJfw/lZOO8+vdJBcrnvZUctBsMt+/9GPfhTXX3993H777duDYLbeTTfdtCAsZsHxoIMOissuu2xBsMwCZnaUMxvMIIhmvz/ucY+LBz/4wdsDaxZcZ+lo40pTw+3Qy+04Va+tHlWLLmwv74Wu3q13v3V+K9fQ/tuuOa4eC+uRPQf70ksvbVeRZrg3Bx988Ew9h73tpfb+Vq5CeX61BMlJu5wdfXzVq14V2c1wsqOUfiYXcDv0ye3qWFM96lDd0WbeC129W+9+6/xWrqH9t11zXD3aVQ+9IdBmAe9v5aqT59eqIJndzOfEE0+MU045Jd7ylreUG/kMr+126O0qvnrUX4+8F7r6e9DtLfAbXT/7b7vmtnq0qx56Q6DtAt7fylUoz69VQTK7ZvLuu++OnXfeOX7605+WG/kMr+126O0qvnrUX4+8F7r6e9DtLfAbXT/7b7vmtnq0qx56Q6DtAt7fylUoz681QTI7GnnSSSdtD5Inn3yyo5IT1N7t0CdAq3EV9agRd6jpvBe66fSiu1vht3zt7L/tmtPq0a566A2BLgh4fytXpTy/1gTJwdHIwXAdlZys8C66n8ytrrVcdF+X7MJ2817optOL7m6F3/K183rarjnt9bRd9dAbAl0Q8P5Wrkp5fq0Iku9+97sjOwKZndb6wAc+MH7yk5/0T2/NjlAed9xx5QSsnayAmzMlW9qxB5b3Qjd2gzO2Ar8ZK7jhEiBAYEYEvL+VK3SeXyuCZBYad9ttt/4jP26++ebYY4894p577uk/NiQLl34ILCfg5kzmxUAg74WO1MoC/MwQAgQIEEhRwPtbuarm+TUeJC+55JJ42cteFmeccUa84hWv6D8Hctu2bfGhD30ojj322PjoRz8az33uc8spWDtJATdnSrKsEw0q74VuokZnaCV+M1RsQyVAgMAMCXh/K1fsPL/Gg+Ti4eV1uByHtVMRcHOmVCpZzTi8bpRz5FfOz9oECBAg0E4B72/l6pLnJ0iW87V2QwJuztQQfEs3m/dC19Jut6Zb/FpTCh0hQIAAgQoFvL+Vw8zzEyTL+Vq7AQE3Z2oAveWbzHuha3n3G+8ev8ZLoAMECBAgUIOA97dyqHl+gmQ5X2s3IODmTA2gt3yTeS90Le9+493j13gJdIAAAQIEahDw/lYONc9PkCzna+0pC7g505TBO7K5vBe6jgyjsW7ya4zehgkQIECgRgHvb+Vw8/wEyXK+1m5YIG+CN9w9m5+SgHlQDppfOT9rEyBAgEA7Bby/latLnp8gWc7X2g0L5E3whrtn81MSOOSQQ+LSSy+d0tbS28zBBx8cmzZtSm9gRkSAAAECMy3gc2K58uf5CZLlfK3dsEDeBG+4ezZPgAABAgQIECDQkIDPieXg8/wEyXK+1m5YIG+CN9w9mydAgAABAgQIEGhIwOfEcvB5foJkOV9rNyyQN8Eb7p7Nz7jAySefHKecckqcdNJJkf3ZDwECBAgQIDA9AZ8Ty1nn+QmS5Xyt3bBA3gRvuHs2P+MCguSMTwDDJ0CAAIFGBXxOLMef5ydIlvO1dsMCeRO84e7ZPAECBAgQIECAQEMCbsZXDj7vZnyCZDlfazcsIEg2XACbJ0CAAAECBAgQmEkBQXImy57OoAXJdGppJAQIECBAgAABAt0RECS7Uys9XUZAkDQtCBAgQIAAAQIECExfQJCcvrktViggSFaIqSkCBAgQIECAAAECBQUEyYJQFmungCDZzrroFQECBAgQIECAQNoCgmTa9U1+dIJk8iXu9AA9/qPT5dN5AgQIECBAYAUBQdL06LSAINnp8iXfeUEy+RIbIAECBAgQmFkBQXJmS5/GwAXJNOpoFAQIECBAgAABAt0SECS7VS+9XSQgSJoSBAgQIECAAAECBKYvIEhO39wWKxQQJCvE1BQBAgQIECBAgACBggKCZEEoi7VTQJBsZ130igABAgQIECBAIG0BQTLt+iY/OkEy+RIbIAECBAgQIECAQAsFBMkWFkWXigsIksWtLEmAAAECBAgQIECgKgFBsipJ7TQiIEg2wm6jBQU8/qMglMUIECBAgACBzgkIkp0rmQ4PCwiS5kObBQTJNldH3wgQIECAAIEyAoJkGT3rNi4gSDZeAh0gQIAAAQIECBCYQQFBcgaLntKQBcmUqmksBAgQIECAAAECXREQJLtSKf1cVkCQNDEIECBAgAABAgQITF9AkJy+uS1WKCBIVoipKQIECBAgQIAAAQIFBQTJglAWa6eAINnOuugVAQIECBAgQIBA2gKCZNr1TX50gmTyJTZAAgQIECBAgACBFgoIki0sii4VFxAki1tZcvoCHv8xfXNbJECAAAECBKYjIEhOx9lWahIQJGuC1WwlAoJkJYwaIUCAAAECBFooIEi2sCi6VFxAkCxuZUkCBAgQIECAAAECVQkIklVJaqcRAUGyEXYbJUCAAAECBAgQmHEBQXLGJ0DXhy9Idr2C+k+AAAECBAgQINBFAUGyi1XT5+0CgqTJQIAAAQIECBAgQGD6AoLk9M1tsUIBQbJCTE0RIECAAAECBAgQKCggSBaEslg7BQTJdtZFrwgQIECAAAECBNIWECQTq28WrPykLbBt27a0B5jQ6Dz+I6FiGgoBAgQIECCwQECQTGxCOEKXWEEXDUd9u1VfQbJb9dJbAgQIECBAoLiAIFncqhNLChqdKNPEnVTfiemsSIAAAQIECBAgUKGAIFkhZhuaEjTaUIX6+qC+9dlqmQABAgQIECBAoLiAIFncqhNLChqdKNPEnVTfiemsSIAAAQIECBAgUKGAIFkhZhuaEjTaUIX6+qC+9dlqmQABAgQIECBAoLiAIFncqhNLChqdKNPEnVTfiemsSIAAAQIECBAgUKGAIFkhZhuaEjTaUIX6+qC+9dlqmQABAgQIECBAoLiAIFncqhNLChqdKNPEnVTfiekaWdHjPxpht1ECBAgQIEBgCgKC5BSQp7kJQWOa2tPflvpO37zMFgXJMnrWJUCAAAECBNosIEi2uToT9E3QmACtQ6uob4eKpasECBAgQIAAgYQFBMnEiitoJFbQRcNR37Tra3QECBAgQIAAga4ICJJdqVTBfgoaBaE6upj6drRwuk2AAAECBAgQSExAkEytoKtWxbZt2xIbleEMBARJc4EAAQIECBAgQKANAoJkG6pQYR8EjQoxW9iU+rawKLpEgAABAgQIEJhBAUEysaILGokVdNFw1Dft+hodAQIECBAgQKArAoJkVypVsJ+CRkGoji6mvt0qnMd/dKteekuAAAECBAgUFxAki1t1YklBoxNlmriT6jsxXSMrCpKNsNsoAQIECBAgMAUBQXIKyNPchKAxTe3pb0t9p29uiwQIECBAgAABAksFBMnEZoWgkVhBFw1HfdOur9ERIECAAAECBLoiIEh2pVIF+yloFITq6GLq29HC6TYBAgQIECBAIDEBQTK1gnqOZGIVXTgcQTLp8hocAQIECBAgQKAzAoJkZ0pVrKOCRjGnri6lvl2tnH4TIECAAAECBNISECTTqmcIGokVdNFw1Dft+hodAQIECBAgQKArAoJkVypVsJ+CRkGoji6mvt0qnMd/dKteekuAAAECBAgUFxAki1t1YklBoxNlmriT6jsxXSMrCpKNsNsoAQIECBAgMAUBQXIKyNPcRG7QuO6MOHDNxrhiUac2XLgtzjy0QE/7618TJ2w7M4osXqDFpYsU3cYkyxVdZ9CrUcsP//uSP5fwzQHLre9E4FYiQIAAAQIECBAgMJ6AIDmeV+uXzg0aywaji+KYVYdFFAmT4waxNoiV6fNEQXJx0B7DV5Bsw4zRBwIECBAgQIAAgbzPpdt6P21Syg1CbepsC/uS67dSMDo64pzLj419++OaCz9n9f+8oZcxsyOQRf+tt0q2naOvifW9Fs66Ilv/D+PaA3sbOHJ9bNw41+oBp2+Jy9e+N1YdNvT3Y3tbX3yEr7/axphfLbYfPV08louO2d7WyD5vWRenLjiiOjymA+L0LZdH1oXtP5UEyYHHkO+yfc2fULn1zW/CEgQIECBAgAABAgRKCzgiWZqwXQ3kBo2RR+eyQHVqrJsPUhcdsypOXdcLer1Udd0ZB8aaa06Ibdm5r4vWX3m5jbF++1HO6+KMA9fExvUXDrXTOwV0w/Df54/kLXOqaC/h9fsSWQA7dV1syQLvgr5k/T8/jpg/5XZknxesM9ena06YP613uO1BWasKkv0QPvBdoa850ym3vu2ajnpDgAABAgQIECCQqEDrguSznvWs2LRpU6Lc0xnWigeZRwbJLFT1D0n2jsgtDJVzRyfnQ9qS8LYjfI5eLhv3cPvL/X1omzF0Hebi/o66NnFBUFvkvOL1jDnXe1YWJFfyLT4vBMniVpYkQIAAAQIECBCoT6B1QbK+oc5Gy7lBo9ARyeHTPQdu86d9Doe8Bae6rrTcNIJkllWHbyQ0dJrqSkFywem8y8yRyoLkonA+qq850zS3vrMxzY2SAAECBAgQIECgYQFBsuECVL353KAxKhgtOK1z4amXC/q4wumko5ebUpAc7sCoU2BHHtEcVYnFR2fnl+tfAzp/zWORNpc7bXawyZX+b1G3cutb9YTSXikBj/8oxWdlAgQIECBAoMUCgmSLizNJ13KDRsG7tg5f+zj6usTsksUd11KutFztp7YuDmNFgmT/dNuhayRHhOxsjIfF/LWc/aLMrXfukfPXbeYGyUV3bV2przlFz63vJJPGOrUJCJK10WqYAAECBAgQaFhAkGy4AFVvPjdoLDilcsfWlz5HctTdTOdvmtO/E+viO7mOOJ10e/gaXIM5CGPDfy97jeRcqJ2/AWxvA4P+7Qh+G7M+j3vX1nmihW3P33F2cHvXZW4OlPecztF9XXlG5Na36gmlPQIECBAgQIAAAQLLCAiSiU0LQSOxgi4ajvqmXV+jI0CAAAECBAh0RUCQ7EqlCvZT0CgI1dHF1LejhdNtAgQIECBAgEBiAoJkagVdtSpWfPxHYuOdteEIkrNWceMlQIAAAQIECLRTQJBsZ10m7pWgMTFdJ1ZU306USScJECBAgAABAskLCJKJlVjQSKygi4ajvmnX1+gIECBAgAABAl0RECS7UqmC/RQ0CkJ1dDH17VbhPP6jW/XSWwIECBAgQKC4gCBZ3KoTSwoanSjTxJ1U34npGllRkGyE3UYJECBAgACBKQgIklNAnuYmBI1pak9/W+o7fXNbJECAAAECBAgQWCogSCY2KwSNxAq6aDjqm3Z9jY4AAQIECBAg0BUBQbIrlSrYT0GjIFRHF1PfjhZOtwkQIECAAAECiQkIkqkV1HMkE6vowuEIkkmX1+AIECBAgAABAp0RECQ7U6piHRU0ijl1dSn17Wrl9JsAAQIECBAgkJaAIJlWPUPQSKygi4ajvmnX1+gIECBAgAABAl0RECS7UqmC/RQ0CkJ1dDH17VbhPP6jW/XSWwIECBAgQKC4gCBZ3KoTSwoanSjTxJ1U34npGllRkGyE3UYJECBAgACBKQgIklNAnuYmBI1pak9/W+o7fXNbJECAAAECBAgQWCogSCY2KwSNxAq6aDjqm3Z9jY4AAQIECBAg0BUBQbIrlSrYT0GjIFRHF1PfjhZOtwkQIECAAAECiQkIkqkV1HMkE6vowuEIkkmX1+AIECBAgAABAp0RECQ7U6piHRU0ijl1dSn17Wrl9JsAAQIECBAgkJaAIJlWPT1HMrF6Lh6OIJl4gQ2PAAECBAgQINARAUGyI4Uq2k1Bo6hUN5dT327VzeM/ulUvvSVAgAABAgSKCwiSxa06saSg0YkyTdxJ9Z2YrpEVBclG2G2UAAECBAgQmIKAIDkF5GluQtCYpvb0t6W+0ze3RQIECBAgQIAAgaUCgmRis0LQSKygi4ajvmnX1+gIECBAgAABAl0RECS7UqmC/cyChp+0BbZt25b2AI2OAAECBAgQIECg9QKCZOtLpIMECBAgQIAAAQIECBBol4Ag2a566A0BAgQIECBAgAABAgRaLyBItr5EOkiAAAECBAgQIECAAIF2CQiS7aqH3hAgkJCAx38kVExDIUCAAAECBBYICJImBAECBGoSECRrgtUsAQIECBAg0LiAINl4CXSAAAECBAgQIECAAAEC3RIQJLtVL70lQIAAAQIECBAgQIBA4wKCZOMl0AECBAgQIECAAAECBAh0S0CQ7Fa99JYAAQIECBAgQIAAAQKNCwiSjZdABwgQIECAAAECBAgQINAtAUGyW/XSWwIECBAgQIAAAQIECDQuIEg2XgIdIEAgVQGP/0i1ssZFgAABAgQICJLmAAECBGoSECRrgtUsAQIECBAg0LiAINl4CXSAAAECBAgQIECAAAEC3RIQJLtVL70lQIAAAQIECBAgQIBA4wKCZOMl0AECBAgQIECAAAECBAh0S0CQ7Fa99JYAAQIECBAgQIAAAQKNCwiSjZdABwgQIECAAAECBAgQINAtAUGyW/XSWwIECBAgQIAAAQIECDQuIEg2XgIdIEAgVQGP/0i1ssZFgAABAgQICJLmAAECBGoSECRrgtUsAQIECBAg0LiAINl4CXSAAAECBAgQIECAAAEC3RIQJLtVL70lQIAAAQIECBAgQIBA4wKCZOMl0AECBAgQIECAAAECBAh0S0CQ7Fa99JYAAQIECBAgQIAAAQKNCwiSjZdABwgQIECAAAECBAgQINAtAUGyW/XSWwIECBAgQIAAAQIECDQuIEg2XgIdIEAgVQGP/0i1ssZFgAABAgQICJLmAAECBGoSECRrgtUsAQIECBAg0LiAINl4CXSAAAECBAgQIECAAAEC3RIQJLtVL70lQIAAAQIECBAgQIBA4wKCZOMl0AECBAgQIECAAAECBAh0S0CQ7Fa99JYAAQIECBAgQIAAAQKNCwiSjZdABwgQIECAAAECBAgQINAtAUGyW/XSWwIECBAgQIAAAQIECDQuIEg2XgIdIEAgVQGP/0i1ssZFgAABAgQICJLmAAECBGoSECRrgtUsAQIECBAg0LiAINl4CXSAAAECBAgQIECAAAEC3RIQJLtVL70lQIAAAQIECBAgQIBA4wKCZOMl0AECBAgQIECAAAECBAh0S0CQ7Fa99JYAAQIECBAgQIAAAQKNCwiSjZdABwgQIECAAAECBAgQINAtAUGyW/XSWwIECBAgQIAAAQIECDQuIEg2XgIdIEAgVQGP/0i1ssZFgAABAgQICJLmAAECBGoSECRrgtUsAQIECBAg0LiAINl4CXSAAAECBAgQIECAAAEC3RIQJLtVL70lQIAAAQIECBAgQIBA4wKCZOMl0AECBAgQIECAAAECBAh0S0CQ7Fa99JYAAQIECBAgQIAAAQKNCwiSjZdABwgQIECAAAECBAgQINAtAUGyW/XSWwIECBAgQIAAAQIECDQuIEg2XgIdIEAgVQGP/0i1ssZFgAABAgQICJLmAAECBGoSECRrgtUsAQIECBAg0LiAINl4CXSAAAECBAgQIECAAAEC3RIQJLtVL70lQIAAAQIECBAgQIBA4wKCZOMl0AECBAgQIEDGNyKdAAACM0lEQVSAAAECBAh0S0CQ7Fa99JYAAQIECBAgQIAAAQKNCwiSjZdABwgQIECAAAECBAgQINAtAUGyW/XSWwIECBAgQIAAAQIECDQuIEg2XgIdIEAgVQGP/0i1ssZFgAABAgQICJLmAAECBGoSECRrgtUsAQIECBAg0LiAINl4CXSAAAECBAgQIECAAAEC3RIQJLtVL70lQIAAAQIECBAgQIBA4wKCZOMl0AECBAgQIECAAAECBAh0S0CQ7Fa99JYAAQIECBAgQIAAAQKNCwiSjZdABwgQIECAAAECBAgQINAtAUGyW/XSWwIECBAgQIAAAQIECDQuIEg2XgIdIEAgVQGP/0i1ssZFgAABAgQICJLmAAECBGoSECRrgtUsAQIECBAg0LiAINl4CXSAAAECBAgQIECAAAEC3RIQJLtVL70lQIAAAQIECBAgQIBA4wKCZOMl0AECBAgQIECAAAECBAh0S0CQ7Fa99JYAAQIECBAgQIAAAQKNCwiSjZdABwgQIECAAAECBAgQINAtAUGyW/XSWwIECBAgQIAAAQIECDQuIEg2XgIdIECAAAECBAgQIECAQLcEBMlu1UtvCRAgQIAAAQIECBAg0LiAINl4CXSAAAECBAgQIECAAAEC3RIQJLtVL70lQIAAAQIECBAgQIBA4wKCZOMl0AECBAgQIECAAAECBAh0S0CQ7Fa99JYAAQIECBAgQIAAAQKNCwiSjZdABwgQIECAAAECBAgQINAtgf8fNFz/ebMcKBMAAAAASUVORK5CYII=;" vertex="1" parent="CWNUDlz_4AmAF2-oJrpr-1">
          <mxGeometry x="30" y="20" width="374" height="209.1" as="geometry" />
        </mxCell>
        <mxCell id="zhw8hxR-eLDXixzwx9a5-11" style="edgeStyle=orthogonalEdgeStyle;rounded=0;orthogonalLoop=1;jettySize=auto;html=1;exitX=1;exitY=0.5;exitDx=0;exitDy=0;entryX=0.008;entryY=0.294;entryDx=0;entryDy=0;entryPerimeter=0;" edge="1" parent="CWNUDlz_4AmAF2-oJrpr-1" source="zhw8hxR-eLDXixzwx9a5-1" target="zhw8hxR-eLDXixzwx9a5-4">
          <mxGeometry relative="1" as="geometry" />
        </mxCell>
        <mxCell id="zhw8hxR-eLDXixzwx9a5-1" value="Build Header" style="rounded=0;whiteSpace=wrap;html=1;" vertex="1" parent="CWNUDlz_4AmAF2-oJrpr-1">
          <mxGeometry x="234" y="366" width="120" height="60" as="geometry" />
        </mxCell>
        <mxCell id="zhw8hxR-eLDXixzwx9a5-3" style="edgeStyle=orthogonalEdgeStyle;rounded=0;orthogonalLoop=1;jettySize=auto;html=1;exitX=1;exitY=0.5;exitDx=0;exitDy=0;entryX=0;entryY=0.5;entryDx=0;entryDy=0;" edge="1" parent="CWNUDlz_4AmAF2-oJrpr-1" source="zhw8hxR-eLDXixzwx9a5-2" target="zhw8hxR-eLDXixzwx9a5-1">
          <mxGeometry relative="1" as="geometry" />
        </mxCell>
        <mxCell id="zhw8hxR-eLDXixzwx9a5-6" style="edgeStyle=orthogonalEdgeStyle;rounded=0;orthogonalLoop=1;jettySize=auto;html=1;exitX=1;exitY=0.5;exitDx=0;exitDy=0;entryX=0;entryY=0.5;entryDx=0;entryDy=0;" edge="1" parent="CWNUDlz_4AmAF2-oJrpr-1" source="zhw8hxR-eLDXixzwx9a5-2" target="zhw8hxR-eLDXixzwx9a5-5">
          <mxGeometry relative="1" as="geometry" />
        </mxCell>
        <mxCell id="zhw8hxR-eLDXixzwx9a5-2" value="Dataset 01" style="ellipse;whiteSpace=wrap;html=1;aspect=fixed;" vertex="1" parent="CWNUDlz_4AmAF2-oJrpr-1">
          <mxGeometry x="90" y="356" width="80" height="80" as="geometry" />
        </mxCell>
        <mxCell id="zhw8hxR-eLDXixzwx9a5-24" style="edgeStyle=orthogonalEdgeStyle;rounded=0;orthogonalLoop=1;jettySize=auto;html=1;entryX=0;entryY=0.5;entryDx=0;entryDy=0;" edge="1" parent="CWNUDlz_4AmAF2-oJrpr-1" source="zhw8hxR-eLDXixzwx9a5-4">
          <mxGeometry relative="1" as="geometry">
            <mxPoint x="590" y="438" as="targetPoint" />
          </mxGeometry>
        </mxCell>
        <mxCell id="zhw8hxR-eLDXixzwx9a5-4" value="" style="rounded=0;whiteSpace=wrap;html=1;" vertex="1" parent="CWNUDlz_4AmAF2-oJrpr-1">
          <mxGeometry x="424" y="368" width="120" height="140" as="geometry" />
        </mxCell>
        <mxCell id="zhw8hxR-eLDXixzwx9a5-12" style="edgeStyle=orthogonalEdgeStyle;rounded=0;orthogonalLoop=1;jettySize=auto;html=1;exitX=1;exitY=0.5;exitDx=0;exitDy=0;entryX=0;entryY=0.75;entryDx=0;entryDy=0;" edge="1" parent="CWNUDlz_4AmAF2-oJrpr-1" source="zhw8hxR-eLDXixzwx9a5-5" target="zhw8hxR-eLDXixzwx9a5-4">
          <mxGeometry relative="1" as="geometry" />
        </mxCell>
        <mxCell id="zhw8hxR-eLDXixzwx9a5-5" value="Build Rows" style="rounded=0;whiteSpace=wrap;html=1;" vertex="1" parent="CWNUDlz_4AmAF2-oJrpr-1">
          <mxGeometry x="234" y="448" width="120" height="60" as="geometry" />
        </mxCell>
        <mxCell id="zhw8hxR-eLDXixzwx9a5-13" value="Headers" style="text;html=1;strokeColor=none;fillColor=none;align=center;verticalAlign=middle;whiteSpace=wrap;rounded=0;" vertex="1" parent="CWNUDlz_4AmAF2-oJrpr-1">
          <mxGeometry x="431" y="392" width="60" height="30" as="geometry" />
        </mxCell>
        <mxCell id="zhw8hxR-eLDXixzwx9a5-14" value="Rows" style="text;html=1;strokeColor=none;fillColor=none;align=center;verticalAlign=middle;whiteSpace=wrap;rounded=0;" vertex="1" parent="CWNUDlz_4AmAF2-oJrpr-1">
          <mxGeometry x="424" y="456" width="60" height="30" as="geometry" />
        </mxCell>
        <mxCell id="zhw8hxR-eLDXixzwx9a5-18" style="edgeStyle=orthogonalEdgeStyle;rounded=0;orthogonalLoop=1;jettySize=auto;html=1;entryX=0.5;entryY=1;entryDx=0;entryDy=0;" edge="1" parent="CWNUDlz_4AmAF2-oJrpr-1" target="zhw8hxR-eLDXixzwx9a5-4">
          <mxGeometry relative="1" as="geometry">
            <mxPoint x="484" y="556" as="sourcePoint" />
          </mxGeometry>
        </mxCell>
        <mxCell id="zhw8hxR-eLDXixzwx9a5-17" value="Build Table" style="text;html=1;strokeColor=none;fillColor=none;align=center;verticalAlign=middle;whiteSpace=wrap;rounded=0;" vertex="1" parent="CWNUDlz_4AmAF2-oJrpr-1">
          <mxGeometry x="414" y="340" width="80" height="30" as="geometry" />
        </mxCell>
        <mxCell id="zhw8hxR-eLDXixzwx9a5-34" style="edgeStyle=orthogonalEdgeStyle;rounded=0;orthogonalLoop=1;jettySize=auto;html=1;exitX=1;exitY=0.25;exitDx=0;exitDy=0;entryX=0;entryY=0.5;entryDx=0;entryDy=0;" edge="1" parent="CWNUDlz_4AmAF2-oJrpr-1" source="zhw8hxR-eLDXixzwx9a5-22" target="zhw8hxR-eLDXixzwx9a5-33">
          <mxGeometry relative="1" as="geometry" />
        </mxCell>
        <mxCell id="zhw8hxR-eLDXixzwx9a5-22" value="&lt;div&gt;Build &lt;br&gt;&lt;/div&gt;&lt;div&gt;Common &lt;br&gt;&lt;/div&gt;&lt;div&gt;Data Model&lt;/div&gt;" style="rounded=0;whiteSpace=wrap;html=1;" vertex="1" parent="CWNUDlz_4AmAF2-oJrpr-1">
          <mxGeometry x="780" y="340" width="120" height="180" as="geometry" />
        </mxCell>
        <mxCell id="zhw8hxR-eLDXixzwx9a5-25" style="edgeStyle=orthogonalEdgeStyle;rounded=0;orthogonalLoop=1;jettySize=auto;html=1;entryX=0;entryY=0.25;entryDx=0;entryDy=0;" edge="1" parent="CWNUDlz_4AmAF2-oJrpr-1" target="zhw8hxR-eLDXixzwx9a5-22">
          <mxGeometry relative="1" as="geometry">
            <mxPoint x="690" y="438" as="sourcePoint" />
          </mxGeometry>
        </mxCell>
        <mxCell id="zhw8hxR-eLDXixzwx9a5-32" style="edgeStyle=orthogonalEdgeStyle;rounded=0;orthogonalLoop=1;jettySize=auto;html=1;entryX=0;entryY=0.75;entryDx=0;entryDy=0;" edge="1" parent="CWNUDlz_4AmAF2-oJrpr-1" source="zhw8hxR-eLDXixzwx9a5-26" target="zhw8hxR-eLDXixzwx9a5-22">
          <mxGeometry relative="1" as="geometry">
            <Array as="points">
              <mxPoint x="740" y="740" />
              <mxPoint x="740" y="475" />
            </Array>
          </mxGeometry>
        </mxCell>
        <mxCell id="zhw8hxR-eLDXixzwx9a5-26" value="Text / Table" style="shape=process;whiteSpace=wrap;html=1;backgroundOutline=1;" vertex="1" parent="CWNUDlz_4AmAF2-oJrpr-1">
          <mxGeometry x="314" y="710" width="120" height="60" as="geometry" />
        </mxCell>
        <mxCell id="zhw8hxR-eLDXixzwx9a5-27" value="" style="rounded=0;whiteSpace=wrap;html=1;" vertex="1" parent="CWNUDlz_4AmAF2-oJrpr-1">
          <mxGeometry x="1450" y="1150" width="120" height="60" as="geometry" />
        </mxCell>
        <mxCell id="zhw8hxR-eLDXixzwx9a5-28" value="Parent Property" style="rounded=0;whiteSpace=wrap;html=1;" vertex="1" parent="CWNUDlz_4AmAF2-oJrpr-1">
          <mxGeometry x="590" y="408" width="100" height="60" as="geometry" />
        </mxCell>
        <mxCell id="zhw8hxR-eLDXixzwx9a5-29" value="Table Style" style="rounded=0;whiteSpace=wrap;html=1;" vertex="1" parent="CWNUDlz_4AmAF2-oJrpr-1">
          <mxGeometry x="434" y="557" width="100" height="60" as="geometry" />
        </mxCell>
        <mxCell id="zhw8hxR-eLDXixzwx9a5-31" style="edgeStyle=orthogonalEdgeStyle;rounded=0;orthogonalLoop=1;jettySize=auto;html=1;entryX=0;entryY=0.5;entryDx=0;entryDy=0;" edge="1" parent="CWNUDlz_4AmAF2-oJrpr-1" source="zhw8hxR-eLDXixzwx9a5-30" target="zhw8hxR-eLDXixzwx9a5-26">
          <mxGeometry relative="1" as="geometry" />
        </mxCell>
        <mxCell id="zhw8hxR-eLDXixzwx9a5-30" value="Dataset 02" style="ellipse;whiteSpace=wrap;html=1;aspect=fixed;" vertex="1" parent="CWNUDlz_4AmAF2-oJrpr-1">
          <mxGeometry x="90" y="700" width="80" height="80" as="geometry" />
        </mxCell>
        <mxCell id="zhw8hxR-eLDXixzwx9a5-33" value="Output" style="ellipse;whiteSpace=wrap;html=1;aspect=fixed;" vertex="1" parent="CWNUDlz_4AmAF2-oJrpr-1">
          <mxGeometry x="960" y="345" width="80" height="80" as="geometry" />
        </mxCell>
        <mxCell id="zhw8hxR-eLDXixzwx9a5-35" value="" style="endArrow=none;html=1;rounded=0;entryX=0.16;entryY=0.622;entryDx=0;entryDy=0;entryPerimeter=0;dashed=1;strokeWidth=2;" edge="1" parent="CWNUDlz_4AmAF2-oJrpr-1" target="zhw8hxR-eLDXixzwx9a5-0">
          <mxGeometry width="50" height="50" relative="1" as="geometry">
            <mxPoint x="70" y="310" as="sourcePoint" />
            <mxPoint x="70" y="260" as="targetPoint" />
          </mxGeometry>
        </mxCell>
        <mxCell id="zhw8hxR-eLDXixzwx9a5-36" value="" style="endArrow=none;html=1;rounded=0;entryX=0.241;entryY=0.622;entryDx=0;entryDy=0;entryPerimeter=0;dashed=1;strokeWidth=2;" edge="1" parent="CWNUDlz_4AmAF2-oJrpr-1" target="zhw8hxR-eLDXixzwx9a5-0">
          <mxGeometry width="50" height="50" relative="1" as="geometry">
            <mxPoint x="390" y="250" as="sourcePoint" />
            <mxPoint x="80.01800000000003" y="170.09699999999998" as="targetPoint" />
          </mxGeometry>
        </mxCell>
      </root>
    </mxGraphModel>
  </diagram>
  <diagram id="DhCauSTDW5MEjCbQXpsp" name="Render Transforms">
    <mxGraphModel dx="1422" dy="780" grid="1" gridSize="10" guides="1" tooltips="1" connect="1" arrows="1" fold="1" page="1" pageScale="1" pageWidth="1100" pageHeight="850" math="0" shadow="0">
      <root>
        <mxCell id="XAt3xIM1tRH3MxRVlnli-0" />
        <mxCell id="XAt3xIM1tRH3MxRVlnli-1" parent="XAt3xIM1tRH3MxRVlnli-0" />
        <mxCell id="AgerM4jGW_QeCSUDuehV-0" value="" style="shape=image;verticalLabelPosition=bottom;labelBackgroundColor=default;verticalAlign=top;aspect=fixed;imageAspect=0;image=data:image/png,iVBORw0KGgoAAAANSUhEUgAAA5IAAAH/CAYAAAAlhOK/AAAgAElEQVR4Xu3dC9gkZXkn/HsyCgoqiqcIKoiM4xgmUYxxgWjAQxTEb9GNaESJn+YasruaMGpUUE6iUTQGEk02sDmweFpxV7giQhT8BjWAJojEUQkOIiioIQiigcgIztfV79sz/R76requqq6qp3/vdc01p6qnnud3P9Xd/67Tqm29n/BDgAABAgQIECBAgAABAgQKCqwSJAtKWYwAAQIECBAgQIAAAQIE+gKCpIlAgAABAgQIECBAgAABAmMJCJJjcVmYAAECBAgQIECAAAECBARJc4AAAQIECBAgQIAAAQIExhIQJMfisjABAgQIECBAgAABAgQICJLmAAECBAgQIECAAAECBAiMJSBIjsVlYQIECBAgQIAAAQIECBAQJM0BAgQI1CRw8sknxymnnBInnXRSZH/2Q4AAAQIECBBIRUCQTKWSxkGAQOsEBMnWlUSHCBAgQIAAgYoEBMmKIDVDgAABAgQIECBAgACBWREQJGel0sZJgAABAgQIECBAgACBigQEyYogNUOAAAECBAgQIECAAIFZERAkZ6XSxkmAAAECBAgQIECAAIGKBATJiiA1Q4AAAQIECBAgQIAAgVkRECRnpdLGSYAAAQIECBAgQIAAgYoEBMmKIDVDgACBxQIe/2FOECBAgAABAqkKCJKpVta4CBBoXECQbLwEOkCAAAECBAjUJCBI1gSrWQIECBAgQIAAAQIECKQqIEimWlnjIkCAAAECBAgQIECAQE0CgmRNsJolQIAAAQIECBAgQIBAqgKCZKqVNS4CBAgQIECAAAECBAjUJCBI1gSrWQIECBAgQIAAAQIECKQqIEimWlnjIkCAAAECBAgQIECAQE0CgmRNsJolQICAx3+YAwQIECBAgECqAoJkqpU1LgIEGhcQJBsvgQ4QIECAAAECNQkIkjXBapYAAQIECBAgQIAAAQKpCgiSqVbWuAgQIECAAAECBAgQIFCTgCBZE6xmCRAgQIAAAQIECBAgkKqAIJlqZY2LAAECBAgQIECAAAECNQkIkjXBapYAAQIECBAgQIAAAQKpCgiSqVbWuAgQIECAAAECBAgQIFCTgCBZE6xmCRAg4PEf5gABAgQIECCQqoAgmWpljYsAgcYFBMnGS6ADBAgQIECAQE0CgmRNsJolQIAAAQIECBAgQIBAqgKCZKqVNS4CBAgQIECAAAECBAjUJCBI1gSrWQIECBAgQIAAAQIECKQqIEimWlnjIkCAAAECBAgQIECAQE0CgmRNsJolQIAAAQIECBAgQIBAqgKCZKqVNS4CBAgQIECAAAECBAjUJCBI1gSrWQIECHj8hzlAgAABAgQIpCogSKZaWeMiQKBxAUGy8RLoAAECBAgQIFCTgCBZE6xmCRAgQIAAAQIECBAgkKqAIJlqZY2LAAECBAgQIECAAAECNQkIkjXBapYAAQIECBAgQIAAAQKpCgiSqVbWuAgQIECAAAECBAgQIFCTgCBZE6xmCRAgQIAAAQIECBAgkKqAIJlqZY2LAAECBAgQIECAAAECNQkIkjXBapYAAQIe/2EOECBAgAABAqkKCJKpVta4CBBoXECQbLwEOkCAAAECBAjUJCBI1gSrWQIECBAgQIAAAQIECKQqIEimWlnjIkCAAAECBAgQIECAQE0CgmRNsJolQIAAAQIECBAgQIBAqgKCZKqVNS4CBAgQIECAAAECBAjUJCBI1gSrWQIECBAgQIAAAQIECKQqIEimWlnjIkCAAAECBAgQIECAQE0CgmRNsJolQICAx3+YAwQIECBAgECqAoJkqpU1LgIEGhcQJBsvgQ4QIECAAAECNQkIkjXBapYAAQIECBAgQIAAAQKpCgiSqVbWuAgQIECAAAECBAgQIFCTgCBZE6xmCRAgQIAAAQIECBAgkKqAIJlqZY2LAAECBAgQIECAAAECNQkIkjXBapYAAQIECBAgQIAAAQKpCgiSqVbWuAgQIECAAAECBAgQIFCTgCBZE6xmCRAg4PEf5gABAgQIECCQqoAgmWpljaubAh86PFa98lMj+77Tgx4R+z75t+I17zwuXvvrj46dKhrlXV87K37nTd+Pt114UvxKRW1qJqKTQfKf3xyPf/J74voVC7hTPOgRe8SaQ4+Ls/9iQ+y3S/uq/c9vfnw8+T3Xxz5vujq+dVpNs3pgtc+b4upvnWbfad800CMCBAgQqFFAkKwRV9MExhbICZI72lsdDz3i7PjGea+IR4y9kUUrfONt8cRfemdc68NwWck01t8eJB8Vv/riA+Kxy4zqzhu/FF+4+ua4697ef+72gvjgNy+IV5SeiNXyCZLVemqNAAECBAgsFhAkzQkCbRIYBMllQ91d8W83bo7z3vjb8br/8+3Ymn2Gf/kn45YPH17uyKSjKm2aAc33ZXuQ7AXEbb2AOKJHW2/6m3jxfq+JT91R0TyseORTCZIV91lzBAgQIECgSwKCZJeqpa/pC6wYJAfD3xrXnnpA/NKJV8W98aj475d9Lz5wYAkaQbIEXoKrFgyS2chv/8AzY/fXfSHi4Rti0y1nxsEt4hAkW1QMXSFAgACBJAUEySTLalCdFSgUJLPR3RIfeOYe8bov3Bu7HvmJuO1jLxo6Krk1bvqHD8Tbjn1/fPKa78Zt/fMPI3Z60N6x/kULr2n70OGrYuklmQuPRN31tY/EKW96Z5x92XVxy4+z46ARq3fZPdb+xh/EH5/1ljj00VVdqdnZqqXV8TGCZGw/FXuZo5dbb4qL3r0h3vinn4trb7ur96VH77rKvdfHi447O/5iw36x4LLKwTZf8MG4+y8fGu/e8MZ432e/Edl0W73LnvHkl7w9PnzWq2PtMlMtu773v73q7fHx/qm2O8Uv/saxcc65p8Uj3jf6Gsm5dd4V522+YX4bo+fz3D6yT7zpM38Z8c6j44zP/SC27vSgeNLrLoyvv/Lv5q4nXXAGwYfi8FWvjE9l/7b5lfGl//aqePvHr46bs/0wW+/Zb4gzzj4xnrvMqcALx7I6dtl9bRz2ro/F/9rlLbFrtqP2fLZdMOoYcVrT0GgIECBAoP0CgmT7a6SHsyRQOEiOOhq0Na5821PjoHd+Lbau3iX2fPIz4ul77Rpx6+b4+8u29K9pW732TfHFr54Wv9r7UH7Ze/5L/Mlnvhaf/uw3485dnxDPft5+sVs8PV7/f98UB2Vx9UMviie96vz4Ye8D+oOe9J/iOU98WMSdN8blm74cP+ifW9vO6+NmacpUPtbCQXJrnPfS3ePF594Z8ZQ/ihuvOm7H9ZRbr4w3//J/ivdce+9cEHzG02OvGMybZa7v3X5U/Nfi1374j/GP//GL8dRDDhxaJ5u3b40v/8s7FtzQZsf87LX5y8+J39g34sbLN8XVux0bZx32f+I1py+92c4tvX3sCb1QdkcWbOfn9K2b/z4u29ILuzvtF2+97MvxjmznmP+ZC5K7xm67/TTu+I/HxjMPf0rE5kti59ffEJ854N2jg+TDnxK/tvNX4x+/v3OsOej5sf5ht8bmv78stmQ74W5HxP/+9nnx0ofsqN4t5x0VT33JR+Kme3sBcs1B8fz19++P5cs/uDce+tAHxA9/2DuHWJCsfLprkAABAgQmFxAkJ7ezJoHqBcYIkrH9A/9T4o9uvCqOy+6K8q13xf5rj4+vxNp40xe/GqcNfSDeetNZ8cInHhOfuXN17/PoXXHBK+Y/LI86tXXrBXHUI14YH7ljt97y3+wtP3QI5a4r4nXrD4wP9G7tWetdMasX1mKeQG6Q3Bo/uvkrceHbfjf+37N7X1j0vnp4+SdviQ8fPghft8fHXvS4eNn5d8RuB78/vvTp1+44knjLxXHMMw+Ns67Nsue1cdVxj5/rzdCdYlev3RhfuOpP4oDBIctb/iaet89revN21952/r23nfkB3N478veY3pG/O3vz86+/Fp949eAuxrf0DpQ+IX7v0nvizjvvXDg//7l3Y6mn9m4s1ds/Nlz0+Thz+2HB3uniH3hePP11l8Ydu708PnnLh2MwnO1H7Vc/I97/vc/Ha4ePJC6778wfkcy62fui5a+/9ol49eCofS9gv37d06KXb3vjv7E3/vlbGQ3va4vGcvExz4xDe2D98woEybzZ6/8JECBAYIoCguQUsW2KQK7AOEEyBh9Ye6fdXf2tyJ5w8IO/eH78yglfiLuf86G4ZcHprnNbvuCoB8QLP7L4w/X84x4W3+Dn//v9WPPb/yu+88g3xDe+emLMf+TfPoTvvGv/2Ov4r/hwu0JR0338x9ygVz/0wHjDR8+L04bP0/zW2+OX9z0pNu/aO1r93d7NeoaOumXrbL30mNj7kLPi+4/673HZ9z4Q/ct7h+4Uu9w1v8vN28H8W33w/4h/2/R7sWAzW3tH+3Z/cWQHS3d80bHjCOryX34MThePOPh//Fts+r25FgdBcnUvxN3VO610wdm1KwbJ1QvaGUyT5fabwb/t2tvGd3vbWDiWS+OYvQ+Js74vSOa+flqAAAECBKYqIEhOldvGCOQIlAySeb7L3oBk0pvtDPrqKMlI9m4HyUWP/xg6pfn+T3hVnPWJ0+PIX3rwkjsGbw9Kv/nXcfenX73MHYV7R7of0DvSfefaeOvX/yXe8aShILm6d8rnPb0QuEh06bzdGn/zvJ3jNZ+JeMb7b4vPv3ZRWl32S5PBdveKjf90Q/zJry4t2/ZwesT/jnvOm+vFIEiufevX41/6nR36WTFIDo1veJ0l+83tveudd+9d7xzxm399d3z61UsvBL3y9XvH006/0Zc2eS9w/p8AAQIEpiogSE6V28YIVBgkt/ZO+du5d8pf7DgiuaD1u/4tbvz25rjiiutjy1cuiksuvTSuvPa2/nWSC47IFAmSW38UN3//2vjyxZvjW1u+0Lum8vNxxfyNSpxul9isXunU1lt6Ie/JvSN9vaNju/3aH8UlXziuf63t8M/g6OGuT3h2PG+/3ZbBuSO+9unPxjd7Rwtf8MFtvVOmh4LkiGeZLg2S/xxvfvyT4z3XPzw2bLolzjx46Wa+8bYnxi+989odc/07vdO+98pO+x79fMz4zhXxiSt7gxvqxyBIbu9r4SA54vEpS4LkYCwj9uO5NBur3GwnsR3NcAgQINB9AUGy+zU0gpQExjkieeXrY++nnd67hUnv2q3betduzR+UueuK98Vv/c6J8Zns5iFDNtlNT/bZ/Uex5aaCp7b21t1607mx8Yg/iL/6cu9OlcPO2d0n99w1vvHt3oduRyRTmoFDp5kuH4S2Xvnm+OX/9J7o3UcnHrVhU9zQS3HDWXL5OwEvT1Q+SOaHr+1fmgxdh5lbsKkGyaWnqC/pnyCZWzILECBAgMD0BQTJ6ZvbIoHRAmMEyeWe4bfjQ/7cnR9f9cpXxjMOOiAOWP+42Ovhu/QuRVvmkQijjkje0vuA+4TezUx6N4vc6RefGi88+qh4/kEHxnOfujYetWfvlEYfbtOcyQVutnPl69f1TrXs3TGmd3Rvw6YbekcEd0TJj73oPr0b7dw73k2Yco6KT3JEcrB/bA+S3+jdaOeXshvtjDhSOKKa9R+R7N2AZ+/eDXhuzA/FvrRJc5czKgIECHRVQJDsauX0O02BwkHyW/H2X943Ttrc+yj/3y+L730gu2XJ1t4ZcLv0HlVw77JHijKwZT/kj/gQP/jwvvoZ74/vff61sfixd4NTB324TWwq5gbJbKoN7ujbu+FO79Ef1/Ye/TG4GdNgXix7c5pRVGMHyfxrJC895hFxyFn/NhRoPxYvus/L4vx7Vwhsy/Sv/iDpGsnE9iDDIUCAwMwICJIzU2oD7YRAoSC5NW76k+fE3m/4Qu/U1fVxynVfjRP7n+IH11oNXXs2POitO+7+WOQaycEH6JXvcNk7v9GprZ2YWoU7WSRI9hq7vTdXH9O7bu/O2LU3Bb7bu9Zx/tzqy18bexz05/H95R6XkXXi9r+MQx7+B3HVQ9fHxk9fGSc/OZu6I+4cPN/p5Y6k3/6Xh8TD/+ul2d12lvmi4/J47R4HxZ/3L3e8Or6V3dI4bo+/POTh8V8vHf1Fy+Wv3SOe+bd3xyP/nz+Paz/6snhAb636g2TEindtjR1fGtnXCs9iCxIgQIDAFAQEySkg2wSBwgIrBsm74t++/sX44Mm/G8f9n2/3jj+ujrVv+mJ89bRfnb9GbccH5V17d8y8vnfHzO1HEbfeFH/z4v3iNdl5qr2fBeFwcNOeXXvPz/v33vPz5jubfag+qP9JfGP80zV/MnRTlbviitfvH8843bPtCte1SwsWDJK9h5bGu/ZfG8d/pfdlwoJnLw4eo3Fv74Y8p8RFm07c8UzIoXm44EjmBEFyx1HRxfvBwvk5PNe3P3pk9aPj5R+5Iv72yMGzJyPuuuL1sf8zTu9d+7nwuZjTCJI7xrL4mZj2tS7tOvpKgACBWRMQJGet4sbbboFBkMzt5ep49Ms/Hl/+8IsWnHK69dLXxprn/Hl8p/fZPruu8ZAD94pdb/2XuOSL34gf39v78PxfHh0fOfeLi44iDo7erI6H/vJz4jf2fVa8/v++KQ66pXfk6DH/NS7t3WVn9S5r4qDnr4+H9R4B8aUvXB033/WA+LWXPz3+9SOfiRtH3GkzdwgzsEC3H/+Rfy3h9mC2+MuJ3t1dj3rqS+IjN/UnYjz1kANjr11vjc1/f1lsyW4bvFuv7W/2njE5+KZjkiDZ2+bWK98WTz3onfG1rXPXBD9//f3jxss3xZd/cG/s1Ltsc+vWxddqbo0r3/WMeM7x/xh39L6ImVvnYXHnjZfHpv4NpRaH0ukckcx2hVs+9KJ40qvOjx/eu3Qsu+12v7jjjkU3yZqB/ccQCRAgQKDdAoJku+ujd7MmsGKQ7H3A3P0xse6QI+P1bz0ufuspS5/h1/9AevHb41XHvi8++40f9++0utOD9o71L3pdnPGO18av//x9c49A2PXI+MRtvWvG5u+RcsvFb44jjz4jPveDbI0dz7/beu3fxIajToyPX31z/7Ehq3fZPdb+xu/GW99zUrx8v/9v/nmAw6fXzlrBVh5v6kGyN9t6z0Dco/cMxGxy9O4e/L3e3YMH4bB39PGid2+IN/7p5+La2+buIDw3F4+Ls/9iQ+y3y5DdhEEya2HrTRfFuze8Md732d6XJb3pu9ODnhTPfsMZsfHO34vffM/1y970566vnRX/7VXvivMGj7BZvUvsvvY34g/++Kx4y6E7jlJm7U/liOQ8xVy/3j6/v/X29z2fHC95+4fjtdceFk8bMRZ7HAECBAgQaEpAkGxK3nYJECBAgEABgcE1omvf+vX4l3c8qcAaFiFAgAABAvULCJL1G9sCAQIECBAYKfDPb14fzzz7lnja8f8Ul/zBYxctN7ir667x8k/+e3x4cBEzTwIECBAg0LCAINlwAWyeAAECBGZbYOt5L43dX3xu3LnPa+Pyze/fcXOi3snpN/3Ni2O/13wq7lhwQ6PZ9jJ6AgQIEGiHgCDZjjroBQECBAjMrMA/xynrfy1O/lp2kefg5kQRt27++7hsS+/60tVr401f/Gqc9qvzFzXPrJOBEyBAgECbBATJNlVDXwgQIEBgNgV6Nyf6hw+8LY59/3mx+Ya5G2XN3dzqD+KPz3pLHPpoIXI2J4ZREyBAoL0CgmR7a6NnBAgQIECAAAECBAgQaKWAINnKsugUAQIpCHTy8R8pwBsDAQIECBAgULuAIFk7sQ0QIDCrAoLkrFbeuAkQIECAQPoCgmT6NTZCAgQIECBAgAABAgQIVCogSFbKqTECBAgQIECAAAECBAikLyBIpl9jIyRAgAABAgQIECBAgEClAoJkpZwaI0CAAAECBAgQIECAQPoCgmT6NTZCAgQIECBAgAABAgQIVCogSFbKqTECBAgQIECAAAECBAikLyBIpl9jIyRAoCEBj/9oCN5mCRAgQIAAgdoFBMnaiW2AAIFZFRAkZ7Xyxk2AAAECBNIXECTTr7EREiBAgAABAgQIECBAoFIBQbJSTo0RIECAAAECBAgQIEAgfQFBMv0aGyEBAgQIECBAgAABAgQqFRAkK+XUGAECBAgQIECAAAECBNIXECTTr7EREiBAgAABAgQIECBAoFIBQbJSTo0RIECAAAECBAgQIEAgfQFBMv0aGyEBAg0JePxHQ/A2S4AAAQIECNQuIEjWTmwDBAjMqoAgOauVN24CBAgQIJC+gCCZfo2NkAABAgQIECBAgAABApUKCJKVcmqMAAECBAgQIECAAAEC6QsIkunX2AgJECBAgAABAgQIECBQqYAgWSmnxggQIECAAAECBAgQIJC+gCCZfo2NkAABAgQIECBAgAABApUKCJKVcmqMAAECBAgQIECAAAEC6QsIkunX2AgJEGhIwOM/GoK3WQIECBAgQKB2AUGydmIbIEBgVgUEyVmtvHETIECAAIH0BQTJ9GtshAQIECBAgAABAgQIEKhUQJCslFNjBAgQIECAAAECBAgQSF9AkEy/xkZIgAABAgQIECBAgACBSgUEyUo5NUaAAAECBAgQIECAAIH0BQTJ9GtshAQIECBAgAABAgQIEKhUQJCslFNjBAgQIECAAAECBAgQSF9AkEy/xkZIgEBDAh7/0RC8zRIgQIAAAQK1CwiStRPbAAECsyogSM5q5Y2bAAECBAikLyBIpl9jIyRAgAABAgQIECBAgEClAoJkpZwaI0CAAAECBAgQIECAQPoCgmT6NTZCAgQIECBAgAABAgQIVCogSFbKqTECBAgQIECAAAECBAikLyBIpl9jIyRAgAABAgQIECBAgEClAoJkpZwaI0CAAAECBAgQIECAQPoCgmT6NTZCAgQaEvD4j4bgbZYAAQIECBCoXUCQrJ3YBggQmFUBQXJWK2/cBAgQIEAgfQFBMv0aGyEBAgQIECBAgAABAgQqFRAkK+XUGAECBAgQIECAAAECBNIXECTTr7EREiBAgAABAgQIECBAoFIBQbJSTo0RIECAAAECBAgQIEAgfQFBMv0aGyEBAgQIECBAgAABAgQqFRAkK+XUGAECBAgQIECAAAECBNIXECTTr7EREiDQkIDHfzQEb7MECBAgQIBA7QKCZO3ENkCAwKwKCJKzWnnjJkCAAAEC6QsIkunX2AgJECBAgAABAgQIECBQqYAgWSmnxggQIECAAAECBAgQIJC+gCCZfo2NkAABAgQIECBAgAABApUKCJKVcmqMAAECBAgQIECAAAEC6QsIkunX2AgJECBAgAABAgQIECBQqYAgWSmnxggQIECAAAECBAgQIJC+gCCZfo2NkACBhgQ8/qMheJslQIAAAQIEahcQJGsntgECBGZVQJCc1cobNwECBAgQSF9AkEy/xkZIgAABAgQIECBAgACBSgUEyUo5NUaAAAECBAgQIECAAIH0BQTJ9GtshAQIECBAgAABAgQIEKhUQJCslFNjBAgQIECAAAECBAgQSF9AkEy/xkZIgAABAgQIECBAgACBSgUEyUo5NUaAAAECBAgQIECAAIH0BQTJ9GtshAQINCTg8R8NwdssAQIECBAgULuAIFk7sQ0QIDCrAoLkrFbeuAkQIECAQPoCgmT6NTZCAgQIECBAgAABAgQIVCogSFbKqTECBAgQIECAAAECBAikLyBIpl9jIyRAgAABAgQIECBAgEClAoJkpZwaI0CAAAECBAgQIECAQPoCgmT6NTZCAgQIECBAYMYFVq1aNeMC6Q9/27Zt6Q/SCFslIEi2qhw6Q4AAAQIECBCoXiALkoJG9a5taVF921KJ2eqHIDlb9TZaAgSmKODxH1PEtikCBFYUEDTSniDqm3Z92zo6QbKtldEvAgQ6LyBIdr6EBkAgGQFBI5lSLjsQ9U27vm0dnSDZ1sroFwECBAgQIECgIgFBoyLIljajvi0tTOLdEiQTL7DhESBAgAABAgQEjbTngPqmXd+2jk6QbGtl9IsAAQIECBAgUJGAoFERZEubUd+WFibxbgmSiRfY8AgQIECAAAECgkbac0B9065vW0cnSLa1MvpFgAABAgQIEKhIQNCoCLKlzahvSwuTeLcEycQLbHgECBAgQIAAAUEj7TmgvmnXt62jEyTbWhn9IkCg8wIe/9H5EhoAgWQEBI1kSrnsQNQ37fq2dXSCZFsro18ECHReQJDsfAkNgEAyAoJGMqUUJNMuZadGJ0h2qlw6S4AAAQIECBAYX0CQHN+sS2uob5eqlU5fBcl0amkkBAgQIECAAAFHrGZwDgiSM1j0FgxZkGxBEXSBAAECBAgQIFCngKBRp27zbatv8zWYxR4IkrNYdWMmQIAAAQIEZkpA0Ei73Oqbdn3bOjpBsq2V0S8CBAgQIECAQEUCgkZFkC1tRn1bWpjEuyVIJl5gwyNAgAABAgQICBppzwH1Tbu+bR2dINnWyugXAQKdF/D4j86X0AAIJCMgaCRTymUHor5p17etoxMk21oZ/SJAoPMCgmTnS2gABJIREDSSKaUgmXYpOzU6QbJT5dJZAgQIECBAgMD4AoLk+GZdWkN9u1StdPoqSKZTSyMhQIAAAQIECDhiNYNzQJCcwaK3YMiCZAuKoAsECBAgQIAAgToFBI06dZtvW32br8Es9kCQnMWqGzMBAgQIECAwUwKCRtrlVt+069vW0QmSba2MfhEgQIAAAQIEKhIQNCqCbGkz6tvSwiTeLUEy8QIbHgECBAgQIEBA0Eh7Dqhv2vVt6+gEybZWRr8IEOi8gMd/dL6EBkAgGYH2BI3r4owD18TGK5ahPeD02HL5sbFvnerXnREHrrkmTth2Zhy60naKLldnX8douz31HaPTFu28gCDZ+RIaAAECbRUQJNtaGf0iMHsCrQwaTYS1otssulxLplIr69sSG92oT0CQrM9WywQIECBAgACBVgi0MmgsG9YuimNWHRZn9dU2xIXbjxxmRzKPjjhyfWzcOPe/B5y+JS5f+95YddjQ34/NjmdmbZwf607f3Fs2O/NW5LQAACAASURBVPR5QJy+5fLo/9fibfb/vjEGB0g3XLgtzjx0uT6M6lcryhutrG87aPSiRgFBskZcTRMgQIAAAQIE2iDQyqCxTJC86JhVceq6XkDspb7rzjgw1lxzQmw7MzsJdf6U2PUXzv19EAA3DP99cMrqfOgbnCp70TG9sBlzoXTBNrPlTo11y4XMRX0b3a82VDcEyXaUYeZ6IUjOXMkNmAABAgQIEJg1gW4EyUXBbv7I4hH9o5LzRyTPmT+yuOTvw+vOBclecuwdXcwqPbRurHSN5NyRzP72VgqcC/rVjpnUyvq2g0YvahQQJGvE1TQBAgQIECBAoA0CrQwaS45IDp8+OlAbnJY6bpAcOtLYayo7onj+Eb1guWZpkMz+b/7s2N6S86fTLgmSg9NtF/erDdV1RLIdVZi9XgiSs1dzIyZAgAABAgRmTKA7QXL+iOCS+pQJkqOOSC46cjkcHpcEyVH9asdEamV920GjFzUKCJI14mqaAAECBAgQINAGgVYGjZxrJHuHEWPVqevmHwkybpDsHUEcXD853M7IsNirUv//zo0js2smF50CO3yN5MJ+taG6jki2owqz1wtBcvZqbsQECExJwOM/pgRtMwQI5Ap0JUjO3XF1cBrp0N1Wx75G8tTsLNU466yV79rav6HP4KGWB2zordK7A+wJ2bWVg+ddDu4cO6pfufRTWaCV9Z3KyG2kSQFBskl92yZAIGkBQTLp8hocgU4JzFbQWHzTnk6VaqLOzlZ9JyKyUg0CgmQNqJokQIAAAQIECLRJYLaChiDZprmnL+kKCJLp1tbICBAgQIAAAQJ9gdkKkrNXdPWdvZq3YcSCZBuqoA8ECBAgQIAAgRoFBI0acVvQtPq2oAgz2AVBcgaLbsgECBAgQIDAbAkIGmnXW33Trm9bRydItrUy+kWAAAECBAgQqEhA0KgIsqXNqG9LC5N4twTJxAtseAQIECBAgAABQSPtOaC+ade3raMTJNtaGf0iQKDzAh7/0fkSGgCBZAQEjWRKuexA1Dft+rZ1dIJkWyujXwQIdF5AkOx8CQ2AQDICgkYypRQk0y5lp0YnSHaqXDpLgAABAgQIEBhfQJAc36xLa6hvl6qVTl8FyXRqaSQECBAgQIAAAUesZnAOCJIzWPQWDFmQbEERdIEAAQIECBAgUKeAoFGnbvNtq2/zNZjFHgiSs1h1YyZAgAABAgRmSkDQSLvc6pt2fds6OkGyrZXRLwIECBAgQIBARQKCRkWQLW1GfVtamMS7JUgmXmDDI0CAAAECBAgIGmnPAfVNu75tHZ0g2dbK6BcBAp0X8PiPzpfQAAgkIyBoJFPKZQeivmnXt62jEyTbWhn9IkCg8wKCZOdLaAAEkhEQNJIppSCZdik7NTpBslPl0lkCBAgQIECAwPgCguT4Zl1aQ327VK10+ipIplNLIyFAgAABAgQIOGI1g3NAkJzBordgyIJkC4qgCwQIECBAgACBOgUEjTp1m29bfZuvwSz2QJCcxaobMwECBAgQIDBTAoJG2uVW37Tr29bRCZJtrYx+ESBAgAABAgQqEhA0KoJsaTPq29LCJN4tQTLxAhseAQIECBAgQEDQSHsOqG/a9W3r6ATJtlZGvwgQ6LyAx390voQGQCAZAUEjmVIuOxD1Tbu+bR2dINnWyugXAQKdFxAkO19CAyCQjICgkUwpBcm0S9mp0QmSnSqXzhIgQIAAAQIExhfIgqSftAW2bduW9gCNrnUCgmTrSqJDBAgQIECAAAECZQQcgS2jZ10CxQQEyWJOliJAgAABAgQIEOiIgCDZkULpZqcFBMlOl0/nCRAgQIAAAQIEFgsIkuYEgfoFBMn6jW2BAAECBAgQIEBgigKC5BSxbWpmBQTJmS29gRMgQIAAAQIE0hPIbjqzevXq+PnPf57e4IyIQIsEBMkWFUNXCBBIS8DjP9Kqp9EQINANAUGyG3XSy+4LCJLdr6ERECDQUgFBsqWF0S0CBJIWECSTLq/BtUhAkGxRMXSFAAECBAgQIECgnIAgWc7P2gSKCgiSRaUsR4AAAQIECBAg0HqB7NrI+973vnHvvfe2vq86SKDLAoJkl6un7wQIECBAgAABAgsEBEkTgsB0BATJ6TjbCgECBAgQIECAwBQEBMkpINsEgZ6AIGkaECBAgAABAgQIJCMgSCZTSgNpuYAg2fIC6R4BAgQIECBAgEBxgezayJ133jnuueee4itZkgCBsQUEybHJrECAAIFiAh7/UczJUgQIEKhSQJCsUlNbBEYLCJJmBwECBCYUOOSQQ+LSSy+dcO32rHbwwQfHpk2b2tMhPSFAgEAJAUGyBJ5VCYwhIEiOgWVRAgQIDARWrVoV2bPKUvhJaSwp1MMYCBAoJyBIlvOzNoGiAoJkUSnLESBAYF4gteCV2nhMVAIEZlsguzby/ve/f/zsZz+bbQijJ1CzgCBZM7DmCRBISyDF0JXimNKadUZDgMA4AoLkOFqWJTC5gCA5uZ01CRCYMYFUA1eq45qx6Wm4BAjMCwiSpgKB6QgIktNxthUCBDoukHLYSnlsHZ92uk+AwAQCguQEaImukspN8fbaa6+44YYbWlclQbJ1JdEhAgTaJpB60Ep9fG2bT/pDgEC9Atm1kbvuumts3bq13g1pvfUCqby/ZePIftp2kz9BsvW7gA4SINCkQCpvQisZzsIYm5xDtk2AwHQFBMnperd5a6m8v2Xj+PGPfxwPetCDWhUmBck2z359I0CgUYFU3oDyEGdlnHkO/p8AgTQEBMk06ljFKFJ5fxsEycykTWFSkKxilmqDAIHkBFJ58ylSmFkaaxEPyxAg0G0BQbLb9auy96m8vw0HyTaFSUGyytmqLQIEkhBI5Y2naDFmbbxFXSxHgEA3BbJrIx/4wAfG3Xff3c0B6HVlAqm8vy0Okm0Jk4JkZVNVQwQIpCCQypvOOLWYxTGP42NZAgS6JSBIdqtedfY2lfe35YJkG8KkIFnn7NU2AQKdEkjlDWdc9Fkd97hOlidAoBsCgmQ36jSNXqby/jYqSDYdJgXJacxi2yBAoPUCqbzZTAI9y2OfxMs6BAi0W0CQbHd9ptm7VN7fVgqSTYZJQXKas9m2CBBopUAqbzST4s76+Cd1sx4BAu0UyK6N3G233eKnP/1pOzuoV1MTSOX9LS9INhUmBcmpTWUbIkCgjQKpvMmUsWVQRs+6BAi0QeDnP/95/MIv/EK/K4JkGyrSjj6k8v5WJEg2ESYFyXbMc70gQKABgVTeYMrScSgraH0CBJoW+Lu/+7t4xSteEe973/vi6KOP3n5E8owzzogTTzwxsv8/+OCDm+6m7U9ZIJX3t6JBctphUpCc8oS2OQIE2iGQyptLFZosqlDUBgECTQvstNNO/aOS97///ePOO++MnXfeObLrJXfZZZe4/fbbm+6e7TcgkMr72zhBcpphUpBsYFLbJAECzQqk8sZSlSKPqiS1Q4BAkwJ/9Ed/FO9617vi3//937d348EPfnC8973vjd/93d9tsmu23ZBAKu9v4wbJaYVJQbKhiW2zBAg0I5DKm0qVekyq1NQWAQJNCmRHJX/2s59t78Luu+8eP/zhD5vskm03KJDK+9skQXIaYVKQbHBy17HpQw45JC699NI6mtbmBALZ9RibNm2aYE2r1CGQyhtK1TZclhf1elr1TCvXntfTcn6zsvY73/nOePe7390/KpkdjfzjP/7jeM1rXjMrwzfORQKpvL9NGiTrDpOCZGK73Pvf//7YsmVL/Nmf/VliI+vmcNSjPXVL5c2kDlE2y6vaf+uYbZO3qR6T283amve9733jnnvuiYc+9KFx6623ztrwjXdIIJX3tzJBss4wKUgmuLutWbMmLrrooth3330THF33hqQezdcslTeSuiT5jJa1/9Y16yZrVz0mc5u1td7xjnfEaaedFn/6p38ar371q2dt+MYrSC47Bx70oAfFtm3bKp0fgmSlnO1oLAuR2Te3F154YTs6NOO9UI9mJ4CQlO/PaLSR/Td//kxzCfWYpnZ3t3XXXXfF8ccfH6effnpkr29+Zlcglfe3skckBzOg6jDZuiCZJWU7ffkd/rDDDovXve51ceihh5ZvTAulBdSjNOFEDaTyBjLR4MdYidPKWPbfMSbTFBZVjykg2wSBRARSeX+rKkhmZa0yTNYSJLNn9tx4441xww039H//8Y9/HNddd13/GT633XZb/1cG8t3vfrf/fJ/s7lrZ79mv7GL67GYx2V23sl/Zee7Z73vuuWd/nezuW4Nfj3/84/sYe++9d+y1117937Pl/UTfOwuR2fWSfpoXUI/p1yCVN49pyLFaWdn+O41ZWHwb6lHcapIl3WRqErX61nGTqXK2qby/VRkkqwyTpYPk9ddfH1dddVV85Stf6f++evXquPjii7cHuyzg/cqv/Er/3x/ykIdsD4HZBdDZA2OHw2L250HBB8FyEDL/4z/+o3/75kEQzX7Pjl5effXV2wNrFlyf97znxb333htPecpT+r/233//2GeffcrNwo6u/fu///uRXU+SHZn007yAekyvBqm8cUxLjFe+tP0332iaS6hHPdof//jHI/t17rnn1rMBrY4loB5jcS27cCrvb1UHyarC5NhBMgt4F1xwQf/6uyuvvDJ+8pOf9MPaILRlvz/ykY8sX/kJW/jBD37QD7WDX1m4fcADHhBPe9rT4gUveEEcfvjhM3XUMpUdaMLp0LrV1KP+kjAe35hZMTNOxZymtZR6VC995JFHxkte8pL+Lz/NC6hH+Rqk8jpRR5CsIkwWDpKbN2/u3wErC5HPfvazI7tG4YUvfGE84hGPKF/lmlu45ZZb4pOf/GR86lOf6p82mwXKN7/5zbHffvvVvOXmm3e79OZrMNwD9ai3Hqm8YdSrtLR1bsXE7b/FnKa1lHpUL+21oHrTMi2qRxm9uXVTMawrSJYNk7lBMju19GUve1n/WrssfB111FHlq9pwCx/60If6ofgJT3hCfOxjH4v73Oc+Dfeo3s27XXq9vuO2rh7jihVbPpU3i2KjrXYpdsU97b/FraaxpHpUp+w0yuosq2hJPapQFCSLKk56A54Vg+S3vvWtWLduXf9I3nOf+9yifenMctm1nNmR1SwkZzfqSfXH7dLbVVn1qL4e2c0hNm3aVH3DM9KiIFm80Pbf4lbTWFI9qlN2GmV1llW0pB5VKAqS4yhOEiZHBsmbbropXvrSl8Zll102Th86uexBBx3Uv7h8jz326GT/i3Ta7dKLKE1vGfWo1loQKufJbzw/++94XnUvrR7VCHsdqMaxqlbUoxrJVBzrPLV1WHrcMDkySGansGbXEr785S+vppItbuWDH/xg/06z55xzTot7Wa5rbpdezq/qtdWjWtFU3iiqVSneGr/iVtmS9t/xvOpeWj3KCzuNsrxhlS2oR3Waqby/TStIZvLjhMmRQfJxj3tcfPvb366uki1vaRbG63bp7ZqE6lFdPVJ5o6hOZLyW+I3nlS1t/x3frM411KOcrtMoy/lVvbZ6VCeayvvbNIPkOGFyZJDMOvya17wm/uqv/qq6ara0pVe/+tXxt3/7t/3nUqb+k8oOlUqd1KOaSnIs58hvMj9uk7nVtZZ6TC7LbnK7OtZUj+pUU7GcdpAsGiZXDJInnHBC/MM//EO8613viqc//enVVbUlLX3pS1+Kt7zlLfGsZz0rTjzxxJkIkm6X3pLJN98N9aimHqm8UVSjMX4r/MY3y9aw/07mVtda6jGZrNMoJ3Oray31qFY2lfe3gw8+OD73uc9Vi1Ogtb322ituuOGGkUuuGCSzI3TZnRCzIPnNb34zfvu3f7t/3WQWKu973/sW2Hy7FskeZfLFL36xfxfaj370o7F27do4/vjjIytOKhOtiLjbpRdRmt4y6lHeepb23/JaS1vgN7mq/XdyuzrWVI/xVZ1GOb5ZnWuoR7W63t/Keeb55QbJweZvvPHGfvi65JJL4vOf/3ysX7++fyTv8Y9/fGQv3Nmvxz72seV6W+HaWX+zC/CzR3tcf/318dnPfjY2b97cD43Pfvaz+6F4uL95UBV2rfGm3C698RIs6IB6lK/HLO2/5bUEySoN7b9VapZvSz3GN/T6Ob5ZnWuoR7W6PMt55vlNfI3kVVddFV/+8pcj+z0La9mvH/zgB/Gf//N/jltvvTV+8Rd/sf/rkY98ZGQ3srnPfe4TD3zgA/t3Asp+32233WKnnXbq/3t2dDP7ffDrnnvuicGv7Chi9ue77747fvzjH8dPfvKT7b9n/57dECjbbvbrX//1X+PhD394nHfeef1Heey77779gLv//vvHU5/61P7vy/3M0jWSg/G7XXq5HavqtdWjnGjeC11u6xcdE6sOO2vHYgecHlsuPzb2zV0xjQVK+6XBMPEo7L8T09WyonoUZ3UaZXGraSypHtUre38rZ5rnV+k1klu3bu0f/fv+97+/INxlnchOjR0OgVmIvPnmm/shcRAWsz//+q//ev+6zEGoHITMLBhmyw2H0Sc84Qn96xqHQ2u23D777FPo1NtZvEZyMJ3cLr3cjlX12upRTjTvhW6l1q8748BYs3F9XLjtzDh0fsGLjlkVh22enTBZxq9c5dJY2/7brjqqR/F6OI2yuNU0llSP6pW9v5UzzfPLPbXVNZLlCtDmtd0uvV3VUY/J65H3Qje65YvimFWnxrotl8exCw4/XhdnHLgmrjlhW5zZT5fZcofF3DHLDUOhM1vu6Igj18fGjXP/e8DpW+Lyte/dfoSz//d+4+Msu8I2rzsj5ja5MeY3GRsuHPRzMsPJ/SbbXopr2X/bVVX1KFYP+34xp2ktpR7VSzMtZ5rnlxskB5t3jWS5QrR17bwJ0tZ+p9ov9ZisshO7Zae0nrou9zTW7AjlqevmA+GCdeYC58b1F8a2LHFmIW/Nxrhiw/Dfr4kT+kc7x1m2F11HbXN+GzEIqAXHsJLsxH6TlSvZtTi2q7TqsXI9nEbZrvmqHvXUw+tAOdc8P9dI9nxn8RrJwbRyu/RyO1jVa6vHZKJ5L3QjW81C2PlHzIXA0Qv1jkaeH0dsP/V1+Cjm/FHGcwZHNBf/fdJls/VGbDOysDoIp71O94Pl0N8nIJzYb4JtpbyK/bdd1VWPlevhNMp2zVf1qKce3t/Kueb5uUZyxp4judx0crv0cjtZ1Wurx/iieS90I1ucP030nJVurLMkqA2HxZqC5OKwODgtNgusguT4E2SKa9h/p4hdYFPqMRpp4tfNAu4WGV9APcY3K7IG1yJKk79O5J7a6hrJcgXowtpul96uKqnH+PWY/I2iyDWSKxwd3LemILmvI5Ljz4J2rGH/bUcdBr1Qj+Xr4TTKds1T9aivHpN/PqivT11qOc8vN0gOBusayS6Vffy+ul36+GZ1rqEe4+nmvdCt1FqRu7aufI1k7843lZ/amneNpFNbx5sh013a/jtd77ytqcdSIadR5s2a6f6/etTnXebzQX296k7LeX6Fg+TiIaf0HMlsbHlQ3Sn5ZD11u/TJ3OpaSz3Gky29/+Y+RzLnrq01BMmRd4pdfKqtayTHmyxTWNr+OwXkMTahHkuxSr9mjuFv0XwB9cg3mnQJtpPKza2X5zdxkFyuW117juTwGPKgypWhG2u7XXq76qQexeth/y1utdyS/Mr5Lbe2/bd60zItqscOPadRlplJ1a+rHtWb+nxfnWne54NKg2R13Z5+S3lQ0+9RM1vk0Iz7qK2qR7F6cCrmZJ6Vcxp3bfNyXLF6l1ePOV+nUdY7z8ZtXT3GFRtvefv9eF6Ll87zEyTnxfKgypWhO2u7XXq7aqUexeph/y3mJEiWcxp3bfvvuGL1Lq8ec75eL+udZ+O2rh7jio23PN/xvATJCb1MtB1wbpc+4SSqaTX1yIe1/+YbrbQEv3J+K61t/63PdpKWZ70eTqOcZNbUt4561Gc7aNn7WznjPD9HJOd986DKlaG9a1988cXx3Oc+d0EHy90uPXscwprYeMUyYz7g9Niy0vP6KmPa0YcDTt8Slx+7b2UtN9FQuXo00eN6tnnJJZfEc57znGUbn9X9typpftVIej2txrHOVlJ+PV1u/i22rPU0yv6NvzbG0rf/DXHhtjPj0EoLO/c+f80J2+LMahuutJd5jdVaj7yNJ/L/efN+7Pe3EfN4w4Xdnmsx4Y358vwEyRkPkg9+8IPj7rvvjne84x3xhje8YfvLSiW3S59w0pZ+bWtqu6U7PrqBSupRY/+m0fTDH/7wuOOOO+KUU06J4447bsEm817optG/Lm+DXzXV83pajWPdraT6ejpq/g171rqvj3jv7T9i6dwjK/4iOY0gWWs96t6RWtJ+3rwf23jZeTx35/beNyLd/eJiws/GeX71BsmyqX7CQU8yt/OgJmmzC+ucffbZkd3N7t57741t27bFqaee2g+Uldwufbn6Zf929DWxPs6Ks66Y/5Zy0TzZ/q1Pf9nejQHWb4yNZ81pLvhGaMEjGwbfeA4/puGAOH3L5XFs/+Huh/W22G9hxzejS/ryh3Ht3AZj4/wG+0c01743Vh02t/aCI5zLbr+eqldSj3q6NrVWP/axj8WGDRviZz/7WX++nnTSSXH88cf3t19o/23i9WiwzQ0Xxrahr82z51IedtYk39IX/PA05mtnIb+pVbq7G/J6Ovza7vV02jN51Pwb9KP20yhHve4s+feV3pNXeM+PofUO2NB7N++9L28/Iln0fT47MjrOsvVVsfZ61Nf1VrWcN+/Hfn9baR73Hxt9bMyd5zbqsWCL/2/+s2hkR+xHPQM6e28f4/PninN4uX1opb6uXM48vykEySG0IfhCqX7MD0NlZnYeVJm2275udqTn1ltv7Xdzl1122R4ov/3tb8fatWvjda973WRDGBUke6e+rN/+rU42uU+Ndf3A19vM8DrzH8J7aXDu9NQsuJ26bv5bzWy98+OI+dNl+t94XnPC3If1Rdsd+TD5+fZ39GX+lNj18x/6F4eABe2usP3JtHLXcvv6iEc/+tFx8803963ud7/7xc9//vN+oHzrW9/an7cr/pT9lnGS16P+Ouf2vr84Ms45c+jN58BTY/MV63ufgcY93UuQzN1RGl7A6+ngG3uvp01MxVHzL3v/OOqoo+IlL3lJ/1ctPwWPSA6/Jy99794Yy7/nZx8BVsWp64Y+D/S+4B18uZzX5o73+YXtLLf94WVrcZpv1Gmt1emuNO932mmn/M8Hw10Z+V6/8PPqyM+Wseh9evDZ9ZyIo1cMkr3Lwgp9/syfw8vuQ5N8hum55OWjBoLkfFgYTvXLHpFaJj2POnJVwVzMoGb5Z/Xq1f2jPIOf7EP6K1/5ytiyZUts2rRpMpqRQXLxlwvDzQ8FtMXrLwlyQwF05IvAwsA39w3S/HqLvx3q7/z9iTkXapf8ffhFZFEAnkxo7LX222+/+PrXvz72eimtkL0pZM+sHfzsvPPO/dOzJwuSNb8ezc/Z9Rs2x7o/3PFlyTHvvSY2979MHwTJgt9sjvMt/PAbVs4EmPXXv6r3D6+ny71+Ln599Xpa9bwbtDdq/v3P//k/818ny3RqxFkfvVN5hk5rXfzeOc57/o4vj+fenwfXSI7R5vBngP77/ArbL2NRYF2vuwWQxliksnk/MnANv4aN89lyfhArfqYt8/mz4D6UVJBcsCPnHZEahI4Vlhtjoo1aNC9xV7CJ1jYx/E3Orrvu2g+U2SmuN9xwQ01HJJcGyblT/QZEw6e8jjoNYD4AbL+wf3Aa6+Df59dbsuMM7aylguQK26+p0o5ILn9E8sQTT4y3ve1t+R+QCn3LWPHr0WCbF0acH2f2r6247oxj4oK16+Lcw3bM7dHfbJb5Fn6lL2wWTtJZfv2renf1ejr4cmScD0ZeT6uah6Pm35577hnnnXdenHtu7wyJun4Wv8b2L//YPH+JyWCjw1+aDf6twKl/y7x+Z6+b5x+RHQEfo80FpwTmbL8up167TmutFnfUvM8+N2VfNud+0TzcnSKfFVb6/Jj934JTYOsIkoPLtcrtQ0WqkPf5oJkjkkuO9AwPpei3Q4u/DSjCMXqZPKhyrbd37cG55dkpgoMA+cY3vrHeayQXHCmZewPYfqrzklNbVwiSC6bN0GmvK5yCWt0RyUU1XXDabfX1do1kxOJrJLMAmZ3Smv0U2n8Lfcu4uHYlX48G29yyLk5979q4/Mw1vW/R3xtrz+n9fft+sMI3m/3re6v4Fn7lOVnIr/ppnVyLXk+Hv7wYM0iOej2vYZak+no6av5lhFM5jXKZ19j+qaMb1w/dtXWFz265ZyGt9Fo4/H9Dk2ZJn8bYfg1zb9DkVOpRY//b1PRK877w54MiQXKFy6tW/mxZR5AsON9X+kxdsIh5nw8aCpJLTwssdESqN+hllyuIsdJieVAVbKKVTWR3u/rpT3/av2trFiAHP5Xc1a7Iqa3LvnGcG0dm10yudGHy4uA2/PdFba58jeSEH3y2DF+v2Z+YQ9dvVl/qSupRfbem2uIjHvGI+NGPfhQnn3zy9pvsDDpQaP8t8i3j/JNiKns92r7N3o1HjrkgDj9zbbz3mIgz//DaHRfdj3XUfO41cPxv4QXJaUxWr6deT6cxz0ZtY9T8m+jD9CQDWfY1dtG1svOf4xZc6zi498GKQbL42RkL3o9HHMkstP1JDAquU+g9q2Bbs77YSvN+orm/7DxedNBjpXm8+BrJ7e0dEecP3RNk4Zcs433xVvhzbbJBckmqL3JEaoUjVxXsRbO6U3/mM5+J3/zN31wgWNlztooEyd6W53am+SdPDV8DtmalO1yt8KXCst9Ajrhr64Kjo+PvyEtOx61gLi5uorJ61NC3aTZZ+jmSo4Jkna9HQ9uMYw6Ma9etj3PjD+Pywy8YuntbmSOSBb+VzCnUrL7+VT1/vZ5OGCT791Jb5vKGqguUffi76KJ4//vfHxde2DvfPLGf5eZfNsSppAz7owAAIABJREFUnUY56jW2/+9DN9FZcHrpiMtSso4v+yXb/HOqV7xefIU2+zUfPhU2b9nqJ8nU6lF911vZ4qh5P+js2O9v8/N18fNQlz5HsuC9DWLHHBv+vHvA6afH+o3XzN80crzPn4Xn8IJ9aPCM9fHuGJ/n18ARyZxA2B/0MkekVjpyVcHz5vOgWrn31NSpNWvW9N9s9923Atia+jhLzapHfrUL7b9FvmUseoS86OvR8HLD1wstOtpexTWSed/Cr6RYyC+/DJZYRsD+265pMYv1cBplu+ageky3Ht7fynnn+U0hSG6MvFQ/8ojUoQvT85pRR656N7Ao+5MHVbb9rqyffVOb3an1z/7sz7rS5aT7qR7Fylto/y34LWOlr0ejTispetS8P/zB62Dvj6W+hR9tWcivWCksNSRg/23XdJjVeti/2zUP1WO69eBdzjvPr94gWa7vU107D2qqnWlwYxwaxF9m0+pRrB6cijmNWopfOT+u9fhV3eosznOnUVY9i8q1px7l/CZZexb3+0mcJn0fEyTn5Uy0CI+XqHLXK9+WehQ3tP8Wt1puSX7l/JZb2/5bvWmZFme1Hk6jLDNrql9XPao3zWvR+1ue0Mr/n+cnSAqSfYFUb4debvdpbm31GM8+74VuvNZmb2l+1dbc/lutZ9nWZrke9u2ys6fa9dWjWs8irTEvojR6mTw/QVKQ7At4vES5Ha3qtdVjPNG8F7rxWpu9pflVW3P7b7WeZVub1Xo4jbLszKl2ffWo1rNoa97fikotv1yenyApSCZ9O/Ryu08za6d8e/q6RPNe6Orabirt8quukvbf6iyraGmW6+E0yipmUHVtqEd1luO05P1tHK2ly+b5CZKCZMzi7dDL7Vb1rq0e4/vmvdCN3+JsrcGvunrbf6uzrKKlWa6H/bqKGVRdG+pRneU4LXEfR2uqQXL4QZzZhsd7wGW5YVW/9qxOtFm9HXr1M6iaFtVjMsdZ3X8n0xr/jaKq7aTejv23XRWe5Xo4jbJdc1E9mquHzwfl7PP8JjwiORci48Jtceb8Mxz7z14798jYcvmx0cXH2OdBlStDe9ee1XG3tSLqMVlluE3mNliLXzk/jtX4Vd3KLM9rp1FWPZvKtace5fzKrD3LrwNl3Iq+r00WJJc8TDvbXBYuT411Wy6PY/tJcviI5dDRysXrLn5g99HXxPo4K866YrDOcDsHxOl57fc3fUysOuyseYNiR0pncaLN6u3Qq9ix6mhDPSZXncX9d3KtpWvyK69p/y1vWGULs14P+3SVs6l8W+pR3nDSFthPKje3Xp7fZEEyroszDlwTG+P0kUcgLzpmVZy6bktcnqXKLNidum5u2bwguWZjrN9+pHNuO9ecMH/kc6idLUPt94+GXnNCbOsfHs2C5/lxxLYzI/vbwv8bjZkHVa4M7Vt7lm+H3r5qePxK2ZrM2v5b1mvx+vzKiXo9LedX9dqzXg+nUVY9o8q1px7l/Mqu7f2tnGCe34RBcr5TC478LT5auCPMLThaGWfEgWuuiRPmg14v6e34+0ohc4HDckc/B9tb/H/FAPOgirXSnaVm9Xboba2QepSrzKztv+W0lq7Nr5yo/becX9Vrz3o9nEZZ9Ywq1556lPMru7b3t3KCeX7lguRw3/oh8Nw4Mjv1dHFY7B/BPDrinGX+Ly9I9ldbfN3l4hv9ZB0ZCrL9NjfGFf3+DQfc0Zh5UOXK0K61Z/l26O2qxFxv1KN8VWZp/y2vJUhWaWj/rVKzfFvqkX8qWnllLYwj4P1pHK3ql+VfzjTPb7IgmR2JPP+I+VNJd3QwO531/COy01AXnl5azxHJ4SOeKyANn1a7wmJ5UOXK0K61Z/l26O2qxFxv1KN8VWZp/y2vJUhWaWj/rVKzfFuzXg+nUZafQ1W2oB5Vak7Wls8Hk7kN1srzmyxIzt9IZ/iurYtvtjPyGslFN+XpX8O4cX2vqd41jUtu4rPoGsmh/+9dCLn8NZiLg6MguWAGzfLt0MvtSvWsrR7VuOa90FWzlXRb4TdZbe2/k7nVtZZ6RDiNsq7ZNVm76jGZW5VreX8rp5nnN2GQzDq1+PTSxaeQjrhra2/NufA4f+Lp6afH+o3XzN0cZ+TdYA/r3cc1+xl119aF285C7PabthZ8vmUeVLkytGftWRlne8RX7ol6VFMpjuUc+U3mx20yt7rWUg+ntdY1tyZt15ycVK669dSgnGWe38ggecghh8SmTZvKbb1Da8/CeGf9duhtm47qUV1F8l7oqttSmi3xG7+u9t/xzepcQz0inEZZ5wwbv231GN+sjjW8v5VTzfMbGSRf8YpXxKGHHhpHHXVUuR50YO0PfvCDcfHFF8c555zTgd5O1sVZvx36ZGr1raUe1drmvdBVu7X0WuM3Xk3tv+N51b20eswJO42y7pk2XvvqMZ5XXUt7fysnm+c3MkjefPPN8Vu/9VtxxRVzp6Cm/HPAAQfEJz7xiXjUox6V7DBn/XbobSuselRbkbwXumq3ll5r/Marqf13PK+6l1aPOWH7cd0zbbz21WM8r7qWVodysnl+I4Nkttkbbrgh9tlnn7jwwgvj+c9/frmetHDtT3/60/1xfec734nHPOYxLexhNV1yO/RqHKtqRT2qktzRTt4LXfVbTKtFfsXraf8tbjWNJdVjTtlplNOYbcW3oR7Frepe0vtbOeE8vxWDZLbpbdu2xUtf+tL42te+Fm9+85vjd37nd8r1qAVrn3322XHaaafF+vXr49xzz21Bj+rtwqzfDr1e3fFbV4/xzfLWyHuhy1t/1v+fX/EZYP8tbjWNJdVjTtlplNOYbcW3oR7Frepe0vtbOeE8v9wgOdj8Nddc0w9f2bcsz3nOcyI7leSFL3xh7LHHHuV6OIW1v/e978UnP/nJ+NSnPhWf+9zn4sUvfnE/FD/xiU+cwtab3YTboTfrv3jr6lFPPfJe6OrZajqt8itWS/tvMadpLaUeO6Ttw9OadcW2ox7FnKaxlFqUU87zKxwkB934+c9/HhdccEH/dNd/+qd/iltvvTX233//eMpTnrL99z333LNcr0usnV3bedVVV8VXvvKV/q/szw972MPiaU97WrzgBS+Iww8/vH8dwaz85E2AWXFoyzjVo55KcC3nyq+YH6diTtNaSj3mpJ1GOa0ZV2w76lHMaVpLeZ0oJ53nN3aQXNyd7PrCQXDLfs82mB3522uvvWLvvffu//7kJz85fuEXfiEe8pCHxO67797/lYW7+93vfrHTTjvFfe973/7vgz//7Gc/i61bt/Z/Df581113xW233bbgV3ba7dVXX92/lvPGG2/s/54dJc3+PQu2g3D72Mc+tpxiR9d2O/R2FU496qtH3gtdfVtOo2V++XW0/+YbTXMJ9dih7TTKac68/G2pR77RNJfw/lZOO8+vdJBcrnvZUctBsMt+/9GPfhTXX3993H777duDYLbeTTfdtCAsZsHxoIMOissuu2xBsMwCZnaUMxvMIIhmvz/ucY+LBz/4wdsDaxZcZ+lo40pTw+3Qy+04Va+tHlWLLmwv74Wu3q13v3V+K9fQ/tuuOa4eC+uRPQf70ksvbVeRZrg3Bx988Ew9h73tpfb+Vq5CeX61BMlJu5wdfXzVq14V2c1wsqOUfiYXcDv0ye3qWFM96lDd0WbeC129W+9+6/xWrqH9t11zXD3aVQ+9IdBmAe9v5aqT59eqIJndzOfEE0+MU045Jd7ylreUG/kMr+126O0qvnrUX4+8F7r6e9DtLfAbXT/7b7vmtnq0qx56Q6DtAt7fylUoz69VQTK7ZvLuu++OnXfeOX7605+WG/kMr+126O0qvnrUX4+8F7r6e9DtLfAbXT/7b7vmtnq0qx56Q6DtAt7fylUoz681QTI7GnnSSSdtD5Inn3yyo5IT1N7t0CdAq3EV9agRd6jpvBe66fSiu1vht3zt7L/tmtPq0a566A2BLgh4fytXpTy/1gTJwdHIwXAdlZys8C66n8ytrrVcdF+X7MJ2817optOL7m6F3/K183rarjnt9bRd9dAbAl0Q8P5Wrkp5fq0Iku9+97sjOwKZndb6wAc+MH7yk5/0T2/NjlAed9xx5QSsnayAmzMlW9qxB5b3Qjd2gzO2Ar8ZK7jhEiBAYEYEvL+VK3SeXyuCZBYad9ttt/4jP26++ebYY4894p577uk/NiQLl34ILCfg5kzmxUAg74WO1MoC/MwQAgQIEEhRwPtbuarm+TUeJC+55JJ42cteFmeccUa84hWv6D8Hctu2bfGhD30ojj322PjoRz8az33uc8spWDtJATdnSrKsEw0q74VuokZnaCV+M1RsQyVAgMAMCXh/K1fsPL/Gg+Ti4eV1uByHtVMRcHOmVCpZzTi8bpRz5FfOz9oECBAg0E4B72/l6pLnJ0iW87V2QwJuztQQfEs3m/dC19Jut6Zb/FpTCh0hQIAAgQoFvL+Vw8zzEyTL+Vq7AQE3Z2oAveWbzHuha3n3G+8ev8ZLoAMECBAgUIOA97dyqHl+gmQ5X2s3IODmTA2gt3yTeS90Le9+493j13gJdIAAAQIEahDw/lYONc9PkCzna+0pC7g505TBO7K5vBe6jgyjsW7ya4zehgkQIECgRgHvb+Vw8/wEyXK+1m5YIG+CN9w9m5+SgHlQDppfOT9rEyBAgEA7Bby/latLnp8gWc7X2g0L5E3whrtn81MSOOSQQ+LSSy+d0tbS28zBBx8cmzZtSm9gRkSAAAECMy3gc2K58uf5CZLlfK3dsEDeBG+4ezZPgAABAgQIECDQkIDPieXg8/wEyXK+1m5YIG+CN9w9mydAgAABAgQIEGhIwOfEcvB5foJkOV9rNyyQN8Eb7p7Nz7jAySefHKecckqcdNJJkf3ZDwECBAgQIDA9AZ8Ty1nn+QmS5Xyt3bBA3gRvuHs2P+MCguSMTwDDJ0CAAIFGBXxOLMef5ydIlvO1dsMCeRO84e7ZPAECBAgQIECAQEMCbsZXDj7vZnyCZDlfazcsIEg2XACbJ0CAAAECBAgQmEkBQXImy57OoAXJdGppJAQIECBAgAABAt0RECS7Uys9XUZAkDQtCBAgQIAAAQIECExfQJCcvrktViggSFaIqSkCBAgQIECAAAECBQUEyYJQFmungCDZzrroFQECBAgQIECAQNoCgmTa9U1+dIJk8iXu9AA9/qPT5dN5AgQIECBAYAUBQdL06LSAINnp8iXfeUEy+RIbIAECBAgQmFkBQXJmS5/GwAXJNOpoFAQIECBAgAABAt0SECS7VS+9XSQgSJoSBAgQIECAAAECBKYvIEhO39wWKxQQJCvE1BQBAgQIECBAgACBggKCZEEoi7VTQJBsZ130igABAgQIECBAIG0BQTLt+iY/OkEy+RIbIAECBAgQIECAQAsFBMkWFkWXigsIksWtLEmAAAECBAgQIECgKgFBsipJ7TQiIEg2wm6jBQU8/qMglMUIECBAgACBzgkIkp0rmQ4PCwiS5kObBQTJNldH3wgQIECAAIEyAoJkGT3rNi4gSDZeAh0gQIAAAQIECBCYQQFBcgaLntKQBcmUqmksBAgQIECAAAECXREQJLtSKf1cVkCQNDEIECBAgAABAgQITF9AkJy+uS1WKCBIVoipKQIECBAgQIAAAQIFBQTJglAWa6eAINnOuugVAQIECBAgQIBA2gKCZNr1TX50gmTyJTZAAgQIECBAgACBFgoIki0sii4VFxAki1tZcvoCHv8xfXNbJECAAAECBKYjIEhOx9lWahIQJGuC1WwlAoJkJYwaIUCAAAECBFooIEi2sCi6VFxAkCxuZUkCBAgQIECAAAECVQkIklVJaqcRAUGyEXYbJUCAAAECBAgQmHEBQXLGJ0DXhy9Idr2C+k+AAAECBAgQINBFAUGyi1XT5+0CgqTJQIAAAQIECBAgQGD6AoLk9M1tsUIBQbJCTE0RIECAAAECBAgQKCggSBaEslg7BQTJdtZFrwgQIECAAAECBNIWECQTq28WrPykLbBt27a0B5jQ6Dz+I6FiGgoBAgQIECCwQECQTGxCOEKXWEEXDUd9u1VfQbJb9dJbAgQIECBAoLiAIFncqhNLChqdKNPEnVTfiemsSIAAAQIECBAgUKGAIFkhZhuaEjTaUIX6+qC+9dlqmQABAgQIECBAoLiAIFncqhNLChqdKNPEnVTfiemsSIAAAQIECBAgUKGAIFkhZhuaEjTaUIX6+qC+9dlqmQABAgQIECBAoLiAIFncqhNLChqdKNPEnVTfiemsSIAAAQIECBAgUKGAIFkhZhuaEjTaUIX6+qC+9dlqmQABAgQIECBAoLiAIFncqhNLChqdKNPEnVTfiekaWdHjPxpht1ECBAgQIEBgCgKC5BSQp7kJQWOa2tPflvpO37zMFgXJMnrWJUCAAAECBNosIEi2uToT9E3QmACtQ6uob4eKpasECBAgQIAAgYQFBMnEiitoJFbQRcNR37Tra3QECBAgQIAAga4ICJJdqVTBfgoaBaE6upj6drRwuk2AAAECBAgQSExAkEytoKtWxbZt2xIbleEMBARJc4EAAQIECBAgQKANAoJkG6pQYR8EjQoxW9iU+rawKLpEgAABAgQIEJhBAUEysaILGokVdNFw1Dft+hodAQIECBAgQKArAoJkVypVsJ+CRkGoji6mvt0qnMd/dKteekuAAAECBAgUFxAki1t1YklBoxNlmriT6jsxXSMrCpKNsNsoAQIECBAgMAUBQXIKyNPchKAxTe3pb0t9p29uiwQIECBAgAABAksFBMnEZoWgkVhBFw1HfdOur9ERIECAAAECBLoiIEh2pVIF+yloFITq6GLq29HC6TYBAgQIECBAIDEBQTK1gnqOZGIVXTgcQTLp8hocAQIECBAgQKAzAoJkZ0pVrKOCRjGnri6lvl2tnH4TIECAAAECBNISECTTqmcIGokVdNFw1Dft+hodAQIECBAgQKArAoJkVypVsJ+CRkGoji6mvt0qnMd/dKteekuAAAECBAgUFxAki1t1YklBoxNlmriT6jsxXSMrCpKNsNsoAQIECBAgMAUBQXIKyNPcRG7QuO6MOHDNxrhiUac2XLgtzjy0QE/7618TJ2w7M4osXqDFpYsU3cYkyxVdZ9CrUcsP//uSP5fwzQHLre9E4FYiQIAAAQIECBAgMJ6AIDmeV+uXzg0aywaji+KYVYdFFAmT4waxNoiV6fNEQXJx0B7DV5Bsw4zRBwIECBAgQIAAgbzPpdt6P21Syg1CbepsC/uS67dSMDo64pzLj419++OaCz9n9f+8oZcxsyOQRf+tt0q2naOvifW9Fs66Ilv/D+PaA3sbOHJ9bNw41+oBp2+Jy9e+N1YdNvT3Y3tbX3yEr7/axphfLbYfPV08louO2d7WyD5vWRenLjiiOjymA+L0LZdH1oXtP5UEyYHHkO+yfc2fULn1zW/CEgQIECBAgAABAgRKCzgiWZqwXQ3kBo2RR+eyQHVqrJsPUhcdsypOXdcLer1Udd0ZB8aaa06Ibdm5r4vWX3m5jbF++1HO6+KMA9fExvUXDrXTOwV0w/Df54/kLXOqaC/h9fsSWQA7dV1syQLvgr5k/T8/jpg/5XZknxesM9ena06YP613uO1BWasKkv0QPvBdoa850ym3vu2ajnpDgAABAgQIECCQqEDrguSznvWs2LRpU6Lc0xnWigeZRwbJLFT1D0n2jsgtDJVzRyfnQ9qS8LYjfI5eLhv3cPvL/X1omzF0Hebi/o66NnFBUFvkvOL1jDnXe1YWJFfyLT4vBMniVpYkQIAAAQIECBCoT6B1QbK+oc5Gy7lBo9ARyeHTPQdu86d9Doe8Bae6rrTcNIJkllWHbyQ0dJrqSkFywem8y8yRyoLkonA+qq850zS3vrMxzY2SAAECBAgQIECgYQFBsuECVL353KAxKhgtOK1z4amXC/q4wumko5ebUpAc7sCoU2BHHtEcVYnFR2fnl+tfAzp/zWORNpc7bXawyZX+b1G3cutb9YTSXikBj/8oxWdlAgQIECBAoMUCgmSLizNJ13KDRsG7tg5f+zj6usTsksUd11KutFztp7YuDmNFgmT/dNuhayRHhOxsjIfF/LWc/aLMrXfukfPXbeYGyUV3bV2przlFz63vJJPGOrUJCJK10WqYAAECBAgQaFhAkGy4AFVvPjdoLDilcsfWlz5HctTdTOdvmtO/E+viO7mOOJ10e/gaXIM5CGPDfy97jeRcqJ2/AWxvA4P+7Qh+G7M+j3vX1nmihW3P33F2cHvXZW4OlPecztF9XXlG5Na36gmlPQIECBAgQIAAAQLLCAiSiU0LQSOxgi4ajvqmXV+jI0CAAAECBAh0RUCQ7EqlCvZT0CgI1dHF1LejhdNtAgQIECBAgEBiAoJkagVdtSpWfPxHYuOdteEIkrNWceMlQIAAAQIECLRTQJBsZ10m7pWgMTFdJ1ZU306USScJECBAgAABAskLCJKJlVjQSKygi4ajvmnX1+gIECBAgAABAl0RECS7UqmC/RQ0CkJ1dDH17VbhPP6jW/XSWwIECBAgQKC4gCBZ3KoTSwoanSjTxJ1U34npGllRkGyE3UYJECBAgACBKQgIklNAnuYmBI1pak9/W+o7fXNbJECAAAECBAgQWCogSCY2KwSNxAq6aDjqm3Z9jY4AAQIECBAg0BUBQbIrlSrYT0GjIFRHF1PfjhZOtwkQIECAAAECiQkIkqkV1HMkE6vowuEIkkmX1+AIECBAgAABAp0RECQ7U6piHRU0ijl1dSn17Wrl9JsAAQIECBAgkJaAIJlWPUPQSKygi4ajvmnX1+gIECBAgAABAl0RECS7UqmC/RQ0CkJ1dDH17VbhPP6jW/XSWwIECBAgQKC4gCBZ3KoTSwoanSjTxJ1U34npGllRkGyE3UYJECBAgACBKQgIklNAnuYmBI1pak9/W+o7fXNbJECAAAECBAgQWCogSCY2KwSNxAq6aDjqm3Z9jY4AAQIECBAg0BUBQbIrlSrYT0GjIFRHF1PfjhZOtwkQIECAAAECiQkIkqkV1HMkE6vowuEIkkmX1+AIECBAgAABAp0RECQ7U6piHRU0ijl1dSn17Wrl9JsAAQIECBAgkJaAIJlWPT1HMrF6Lh6OIJl4gQ2PAAECBAgQINARAUGyI4Uq2k1Bo6hUN5dT327VzeM/ulUvvSVAgAABAgSKCwiSxa06saSg0YkyTdxJ9Z2YrpEVBclG2G2UAAECBAgQmIKAIDkF5GluQtCYpvb0t6W+0ze3RQIECBAgQIAAgaUCgmRis0LQSKygi4ajvmnX1+gIECBAgAABAl0RECS7UqmC/cyChp+0BbZt25b2AI2OAAECBAgQIECg9QKCZOtLpIMECBAgQIAAAQIECBBol4Ag2a566A0BAgQIECBAgAABAgRaLyBItr5EOkiAAAECBAgQIECAAIF2CQiS7aqH3hAgkJCAx38kVExDIUCAAAECBBYICJImBAECBGoSECRrgtUsAQIECBAg0LiAINl4CXSAAAECBAgQIECAAAEC3RIQJLtVL70lQIAAAQIECBAgQIBA4wKCZOMl0AECBAgQIECAAAECBAh0S0CQ7Fa99JYAAQIECBAgQIAAAQKNCwiSjZdABwgQIECAAAECBAgQINAtAUGyW/XSWwIECBAgQIAAAQIECDQuIEg2XgIdIEAgVQGP/0i1ssZFgAABAgQICJLmAAECBGoSECRrgtUsAQIECBAg0LiAINl4CXSAAAECBAgQIECAAAEC3RIQJLtVL70lQIAAAQIECBAgQIBA4wKCZOMl0AECBAgQIECAAAECBAh0S0CQ7Fa99JYAAQIECBAgQIAAAQKNCwiSjZdABwgQIECAAAECBAgQINAtAUGyW/XSWwIECBAgQIAAAQIECDQuIEg2XgIdIEAgVQGP/0i1ssZFgAABAgQICJLmAAECBGoSECRrgtUsAQIECBAg0LiAINl4CXSAAAECBAgQIECAAAEC3RIQJLtVL70lQIAAAQIECBAgQIBA4wKCZOMl0AECBAgQIECAAAECBAh0S0CQ7Fa99JYAAQIECBAgQIAAAQKNCwiSjZdABwgQIECAAAECBAgQINAtAUGyW/XSWwIECBAgQIAAAQIECDQuIEg2XgIdIEAgVQGP/0i1ssZFgAABAgQICJLmAAECBGoSECRrgtUsAQIECBAg0LiAINl4CXSAAAECBAgQIECAAAEC3RIQJLtVL70lQIAAAQIECBAgQIBA4wKCZOMl0AECBAgQIECAAAECBAh0S0CQ7Fa99JYAAQIECBAgQIAAAQKNCwiSjZdABwgQIECAAAECBAgQINAtAUGyW/XSWwIECBAgQIAAAQIECDQuIEg2XgIdIEAgVQGP/0i1ssZFgAABAgQICJLmAAECBGoSECRrgtUsAQIECBAg0LiAINl4CXSAAAECBAgQIECAAAEC3RIQJLtVL70lQIAAAQIECBAgQIBA4wKCZOMl0AECBAgQIECAAAECBAh0S0CQ7Fa99JYAAQIECBAgQIAAAQKNCwiSjZdABwgQIECAAAECBAgQINAtAUGyW/XSWwIECBAgQIAAAQIECDQuIEg2XgIdIEAgVQGP/0i1ssZFgAABAgQICJLmAAECBGoSECRrgtUsAQIECBAg0LiAINl4CXSAAAECBAgQIECAAAEC3RIQJLtVL70lQIAAAQIECBAgQIBA4wKCZOMl0AECBAgQIECAAAECBAh0S0CQ7Fa99JYAAQIECBAgQIAAAQKNCwiSjZdABwgQIECAAAECBAgQINAtAUGyW/XSWwIECBAgQIAAAQIECDQuIEg2XgIdIEAgVQGP/0i1ssZFgAABAgQICJLmAAECBGoSECRrgtUsAQIECBAg0LiAINl4CXSAAAECBAgQIECAAAEC3RIQJLtVL70lQIAAAQIECBAgQIBA4wKCZOMl0AECBAgQIEDGNyKdAAACM0lEQVSAAAECBAh0S0CQ7Fa99JYAAQIECBAgQIAAAQKNCwiSjZdABwgQIECAAAECBAgQINAtAUGyW/XSWwIECBAgQIAAAQIECDQuIEg2XgIdIEAgVQGP/0i1ssZFgAABAgQICJLmAAECBGoSECRrgtUsAQIECBAg0LiAINl4CXSAAAECBAgQIECAAAEC3RIQJLtVL70lQIAAAQIECBAgQIBA4wKCZOMl0AECBAgQIECAAAECBAh0S0CQ7Fa99JYAAQIECBAgQIAAAQKNCwiSjZdABwgQIECAAAECBAgQINAtAUGyW/XSWwIECBAgQIAAAQIECDQuIEg2XgIdIEAgVQGP/0i1ssZFgAABAgQICJLmAAECBGoSECRrgtUsAQIECBAg0LiAINl4CXSAAAECBAgQIECAAAEC3RIQJLtVL70lQIAAAQIECBAgQIBA4wKCZOMl0AECBAgQIECAAAECBAh0S0CQ7Fa99JYAAQIECBAgQIAAAQKNCwiSjZdABwgQIECAAAECBAgQINAtAUGyW/XSWwIECBAgQIAAAQIECDQuIEg2XgIdIECAAAECBAgQIECAQLcEBMlu1UtvCRAgQIAAAQIECBAg0LiAINl4CXSAAAECBAgQIECAAAEC3RIQJLtVL70lQIAAAQIECBAgQIBA4wKCZOMl0AECBAgQIECAAAECBAh0S0CQ7Fa99JYAAQIECBAgQIAAAQKNCwiSjZdABwgQIECAAAECBAgQINAtgf8fNFz/ebMcKBMAAAAASUVORK5CYII=;" vertex="1" parent="XAt3xIM1tRH3MxRVlnli-1">
          <mxGeometry x="30" y="20" width="374" height="209.1" as="geometry" />
        </mxCell>
        <mxCell id="pfXw-D_GeJ92zFOd0qnO-1" value="InDesign XML / OOXML / Object Model" style="rounded=0;whiteSpace=wrap;html=1;" vertex="1" parent="XAt3xIM1tRH3MxRVlnli-1">
          <mxGeometry x="384" y="370" width="120" height="60" as="geometry" />
        </mxCell>
        <mxCell id="pfXw-D_GeJ92zFOd0qnO-2" style="edgeStyle=orthogonalEdgeStyle;rounded=0;orthogonalLoop=1;jettySize=auto;html=1;exitX=1;exitY=0.5;exitDx=0;exitDy=0;entryX=0;entryY=0.5;entryDx=0;entryDy=0;" edge="1" parent="XAt3xIM1tRH3MxRVlnli-1" source="pfXw-D_GeJ92zFOd0qnO-4" target="pfXw-D_GeJ92zFOd0qnO-1">
          <mxGeometry relative="1" as="geometry" />
        </mxCell>
        <mxCell id="pfXw-D_GeJ92zFOd0qnO-4" value="Common Data Model" style="ellipse;whiteSpace=wrap;html=1;aspect=fixed;" vertex="1" parent="XAt3xIM1tRH3MxRVlnli-1">
          <mxGeometry x="240" y="360" width="80" height="80" as="geometry" />
        </mxCell>
        <mxCell id="dIggdMf2yfIEAn09B2El-2" value="JSON?" style="shape=note;whiteSpace=wrap;html=1;backgroundOutline=1;darkOpacity=0.05;" vertex="1" parent="XAt3xIM1tRH3MxRVlnli-1">
          <mxGeometry x="210" y="430" width="80" height="100" as="geometry" />
        </mxCell>
        <mxCell id="nGJxy2YqS9MPHAhdk08J-0" value="" style="endArrow=none;html=1;rounded=0;entryX=0.481;entryY=0.67;entryDx=0;entryDy=0;entryPerimeter=0;dashed=1;strokeWidth=2;" edge="1" parent="XAt3xIM1tRH3MxRVlnli-1" target="AgerM4jGW_QeCSUDuehV-0">
          <mxGeometry width="50" height="50" relative="1" as="geometry">
            <mxPoint x="210" y="380" as="sourcePoint" />
            <mxPoint x="89.83999999999992" y="150.0602" as="targetPoint" />
          </mxGeometry>
        </mxCell>
        <mxCell id="nGJxy2YqS9MPHAhdk08J-1" value="" style="endArrow=none;html=1;rounded=0;entryX=0.642;entryY=0.67;entryDx=0;entryDy=0;entryPerimeter=0;dashed=1;strokeWidth=2;" edge="1" parent="XAt3xIM1tRH3MxRVlnli-1" target="AgerM4jGW_QeCSUDuehV-0">
          <mxGeometry width="50" height="50" relative="1" as="geometry">
            <mxPoint x="490.11" y="349.9" as="sourcePoint" />
            <mxPoint x="490.004" y="129.99699999999999" as="targetPoint" />
          </mxGeometry>
        </mxCell>
        <mxCell id="nGJxy2YqS9MPHAhdk08J-2" value="&lt;font style=&quot;font-size: 23px&quot;&gt;Optional&lt;/font&gt;" style="text;html=1;strokeColor=none;fillColor=none;align=center;verticalAlign=middle;whiteSpace=wrap;rounded=0;" vertex="1" parent="XAt3xIM1tRH3MxRVlnli-1">
          <mxGeometry x="230" y="240" width="100" height="30" as="geometry" />
        </mxCell>
      </root>
    </mxGraphModel>
  </diagram>
  <diagram id="GNI92rXXWExLnujz33TC" name="Render">
    <mxGraphModel dx="1422" dy="780" grid="1" gridSize="10" guides="1" tooltips="1" connect="1" arrows="1" fold="1" page="1" pageScale="1" pageWidth="1100" pageHeight="850" math="0" shadow="0">
      <root>
        <mxCell id="qFvWysNFHT-1MRfpOzof-0" />
        <mxCell id="qFvWysNFHT-1MRfpOzof-1" parent="qFvWysNFHT-1MRfpOzof-0" />
        <mxCell id="wGcL2J76SYNbub800geK-0" value="" style="shape=image;verticalLabelPosition=bottom;labelBackgroundColor=default;verticalAlign=top;aspect=fixed;imageAspect=0;image=data:image/png,iVBORw0KGgoAAAANSUhEUgAAA5IAAAH/CAYAAAAlhOK/AAAgAElEQVR4Xu3dC9gkZXkn/HsyCgoqiqcIKoiM4xgmUYxxgWjAQxTEb9GNaESJn+YasruaMGpUUE6iUTQGEk02sDmweFpxV7giQhT8BjWAJojEUQkOIiioIQiigcgIztfV79sz/R76requqq6qp3/vdc01p6qnnud3P9Xd/67Tqm29n/BDgAABAgQIECBAgAABAgQKCqwSJAtKWYwAAQIECBAgQIAAAQIE+gKCpIlAgAABAgQIECBAgAABAmMJCJJjcVmYAAECBAgQIECAAAECBARJc4AAAQIECBAgQIAAAQIExhIQJMfisjABAgQIECBAgAABAgQICJLmAAECBAgQIECAAAECBAiMJSBIjsVlYQIECBAgQIAAAQIECBAQJM0BAgQI1CRw8sknxymnnBInnXRSZH/2Q4AAAQIECBBIRUCQTKWSxkGAQOsEBMnWlUSHCBAgQIAAgYoEBMmKIDVDgAABAgQIECBAgACBWREQJGel0sZJgAABAgQIECBAgACBigQEyYogNUOAAAECBAgQIECAAIFZERAkZ6XSxkmAAAECBAgQIECAAIGKBATJiiA1Q4AAAQIECBAgQIAAgVkRECRnpdLGSYAAAQIECBAgQIAAgYoEBMmKIDVDgACBxQIe/2FOECBAgAABAqkKCJKpVta4CBBoXECQbLwEOkCAAAECBAjUJCBI1gSrWQIECBAgQIAAAQIECKQqIEimWlnjIkCAAAECBAgQIECAQE0CgmRNsJolQIAAAQIECBAgQIBAqgKCZKqVNS4CBAgQIECAAAECBAjUJCBI1gSrWQIECBAgQIAAAQIECKQqIEimWlnjIkCAAAECBAgQIECAQE0CgmRNsJolQICAx3+YAwQIECBAgECqAoJkqpU1LgIEGhcQJBsvgQ4QIECAAAECNQkIkjXBapYAAQIECBAgQIAAAQKpCgiSqVbWuAgQIECAAAECBAgQIFCTgCBZE6xmCRAgQIAAAQIECBAgkKqAIJlqZY2LAAECBAgQIECAAAECNQkIkjXBapYAAQIECBAgQIAAAQKpCgiSqVbWuAgQIECAAAECBAgQIFCTgCBZE6xmCRAg4PEf5gABAgQIECCQqoAgmWpljYsAgcYFBMnGS6ADBAgQIECAQE0CgmRNsJolQIAAAQIECBAgQIBAqgKCZKqVNS4CBAgQIECAAAECBAjUJCBI1gSrWQIECBAgQIAAAQIECKQqIEimWlnjIkCAAAECBAgQIECAQE0CgmRNsJolQIAAAQIECBAgQIBAqgKCZKqVNS4CBAgQIECAAAECBAjUJCBI1gSrWQIECHj8hzlAgAABAgQIpCogSKZaWeMiQKBxAUGy8RLoAAECBAgQIFCTgCBZE6xmCRAgQIAAAQIECBAgkKqAIJlqZY2LAAECBAgQIECAAAECNQkIkjXBapYAAQIECBAgQIAAAQKpCgiSqVbWuAgQIECAAAECBAgQIFCTgCBZE6xmCRAgQIAAAQIECBAgkKqAIJlqZY2LAAECBAgQIECAAAECNQkIkjXBapYAAQIe/2EOECBAgAABAqkKCJKpVta4CBBoXECQbLwEOkCAAAECBAjUJCBI1gSrWQIECBAgQIAAAQIECKQqIEimWlnjIkCAAAECBAgQIECAQE0CgmRNsJolQIAAAQIECBAgQIBAqgKCZKqVNS4CBAgQIECAAAECBAjUJCBI1gSrWQIECBAgQIAAAQIECKQqIEimWlnjIkCAAAECBAgQIECAQE0CgmRNsJolQICAx3+YAwQIECBAgECqAoJkqpU1LgIEGhcQJBsvgQ4QIECAAAECNQkIkjXBapYAAQIECBAgQIAAAQKpCgiSqVbWuAgQIECAAAECBAgQIFCTgCBZE6xmCRAgQIAAAQIECBAgkKqAIJlqZY2LAAECBAgQIECAAAECNQkIkjXBapYAAQIECBAgQIAAAQKpCgiSqVbWuAgQIECAAAECBAgQIFCTgCBZE6xmCRAg4PEf5gABAgQIECCQqoAgmWpljaubAh86PFa98lMj+77Tgx4R+z75t+I17zwuXvvrj46dKhrlXV87K37nTd+Pt114UvxKRW1qJqKTQfKf3xyPf/J74voVC7hTPOgRe8SaQ4+Ls/9iQ+y3S/uq/c9vfnw8+T3Xxz5vujq+dVpNs3pgtc+b4upvnWbfad800CMCBAgQqFFAkKwRV9MExhbICZI72lsdDz3i7PjGea+IR4y9kUUrfONt8cRfemdc68NwWck01t8eJB8Vv/riA+Kxy4zqzhu/FF+4+ua4697ef+72gvjgNy+IV5SeiNXyCZLVemqNAAECBAgsFhAkzQkCbRIYBMllQ91d8W83bo7z3vjb8br/8+3Ymn2Gf/kn45YPH17uyKSjKm2aAc33ZXuQ7AXEbb2AOKJHW2/6m3jxfq+JT91R0TyseORTCZIV91lzBAgQIECgSwKCZJeqpa/pC6wYJAfD3xrXnnpA/NKJV8W98aj475d9Lz5wYAkaQbIEXoKrFgyS2chv/8AzY/fXfSHi4Rti0y1nxsEt4hAkW1QMXSFAgACBJAUEySTLalCdFSgUJLPR3RIfeOYe8bov3Bu7HvmJuO1jLxo6Krk1bvqHD8Tbjn1/fPKa78Zt/fMPI3Z60N6x/kULr2n70OGrYuklmQuPRN31tY/EKW96Z5x92XVxy4+z46ARq3fZPdb+xh/EH5/1ljj00VVdqdnZqqXV8TGCZGw/FXuZo5dbb4qL3r0h3vinn4trb7ur96VH77rKvdfHi447O/5iw36x4LLKwTZf8MG4+y8fGu/e8MZ432e/Edl0W73LnvHkl7w9PnzWq2PtMlMtu773v73q7fHx/qm2O8Uv/saxcc65p8Uj3jf6Gsm5dd4V522+YX4bo+fz3D6yT7zpM38Z8c6j44zP/SC27vSgeNLrLoyvv/Lv5q4nXXAGwYfi8FWvjE9l/7b5lfGl//aqePvHr46bs/0wW+/Zb4gzzj4xnrvMqcALx7I6dtl9bRz2ro/F/9rlLbFrtqP2fLZdMOoYcVrT0GgIECBAoP0CgmT7a6SHsyRQOEiOOhq0Na5821PjoHd+Lbau3iX2fPIz4ul77Rpx6+b4+8u29K9pW732TfHFr54Wv9r7UH7Ze/5L/Mlnvhaf/uw3485dnxDPft5+sVs8PV7/f98UB2Vx9UMviie96vz4Ye8D+oOe9J/iOU98WMSdN8blm74cP+ifW9vO6+NmacpUPtbCQXJrnPfS3ePF594Z8ZQ/ihuvOm7H9ZRbr4w3//J/ivdce+9cEHzG02OvGMybZa7v3X5U/Nfi1374j/GP//GL8dRDDhxaJ5u3b40v/8s7FtzQZsf87LX5y8+J39g34sbLN8XVux0bZx32f+I1py+92c4tvX3sCb1QdkcWbOfn9K2b/z4u29ILuzvtF2+97MvxjmznmP+ZC5K7xm67/TTu+I/HxjMPf0rE5kti59ffEJ854N2jg+TDnxK/tvNX4x+/v3OsOej5sf5ht8bmv78stmQ74W5HxP/+9nnx0ofsqN4t5x0VT33JR+Kme3sBcs1B8fz19++P5cs/uDce+tAHxA9/2DuHWJCsfLprkAABAgQmFxAkJ7ezJoHqBcYIkrH9A/9T4o9uvCqOy+6K8q13xf5rj4+vxNp40xe/GqcNfSDeetNZ8cInHhOfuXN17/PoXXHBK+Y/LI86tXXrBXHUI14YH7ljt97y3+wtP3QI5a4r4nXrD4wP9G7tWetdMasX1mKeQG6Q3Bo/uvkrceHbfjf+37N7X1j0vnp4+SdviQ8fPghft8fHXvS4eNn5d8RuB78/vvTp1+44knjLxXHMMw+Ns67Nsue1cdVxj5/rzdCdYlev3RhfuOpP4oDBIctb/iaet89revN21952/r23nfkB3N478veY3pG/O3vz86+/Fp949eAuxrf0DpQ+IX7v0nvizjvvXDg//7l3Y6mn9m4s1ds/Nlz0+Thz+2HB3uniH3hePP11l8Ydu708PnnLh2MwnO1H7Vc/I97/vc/Ha4ePJC6778wfkcy62fui5a+/9ol49eCofS9gv37d06KXb3vjv7E3/vlbGQ3va4vGcvExz4xDe2D98woEybzZ6/8JECBAYIoCguQUsW2KQK7AOEEyBh9Ye6fdXf2tyJ5w8IO/eH78yglfiLuf86G4ZcHprnNbvuCoB8QLP7L4w/X84x4W3+Dn//v9WPPb/yu+88g3xDe+emLMf+TfPoTvvGv/2Ov4r/hwu0JR0338x9ygVz/0wHjDR8+L04bP0/zW2+OX9z0pNu/aO1r93d7NeoaOumXrbL30mNj7kLPi+4/673HZ9z4Q/ct7h+4Uu9w1v8vN28H8W33w/4h/2/R7sWAzW3tH+3Z/cWQHS3d80bHjCOryX34MThePOPh//Fts+r25FgdBcnUvxN3VO610wdm1KwbJ1QvaGUyT5fabwb/t2tvGd3vbWDiWS+OYvQ+Js74vSOa+flqAAAECBKYqIEhOldvGCOQIlAySeb7L3oBk0pvtDPrqKMlI9m4HyUWP/xg6pfn+T3hVnPWJ0+PIX3rwkjsGbw9Kv/nXcfenX73MHYV7R7of0DvSfefaeOvX/yXe8aShILm6d8rnPb0QuEh06bzdGn/zvJ3jNZ+JeMb7b4vPv3ZRWl32S5PBdveKjf90Q/zJry4t2/ZwesT/jnvOm+vFIEiufevX41/6nR36WTFIDo1veJ0l+83tveudd+9d7xzxm399d3z61UsvBL3y9XvH006/0Zc2eS9w/p8AAQIEpiogSE6V28YIVBgkt/ZO+du5d8pf7DgiuaD1u/4tbvz25rjiiutjy1cuiksuvTSuvPa2/nWSC47IFAmSW38UN3//2vjyxZvjW1u+0Lum8vNxxfyNSpxul9isXunU1lt6Ie/JvSN9vaNju/3aH8UlXziuf63t8M/g6OGuT3h2PG+/3ZbBuSO+9unPxjd7Rwtf8MFtvVOmh4LkiGeZLg2S/xxvfvyT4z3XPzw2bLolzjx46Wa+8bYnxi+989odc/07vdO+98pO+x79fMz4zhXxiSt7gxvqxyBIbu9r4SA54vEpS4LkYCwj9uO5NBur3GwnsR3NcAgQINB9AUGy+zU0gpQExjkieeXrY++nnd67hUnv2q3betduzR+UueuK98Vv/c6J8Zns5iFDNtlNT/bZ/Uex5aaCp7b21t1607mx8Yg/iL/6cu9OlcPO2d0n99w1vvHt3oduRyRTmoFDp5kuH4S2Xvnm+OX/9J7o3UcnHrVhU9zQS3HDWXL5OwEvT1Q+SOaHr+1fmgxdh5lbsKkGyaWnqC/pnyCZWzILECBAgMD0BQTJ6ZvbIoHRAmMEyeWe4bfjQ/7cnR9f9cpXxjMOOiAOWP+42Ovhu/QuRVvmkQijjkje0vuA+4TezUx6N4vc6RefGi88+qh4/kEHxnOfujYetWfvlEYfbtOcyQVutnPl69f1TrXs3TGmd3Rvw6YbekcEd0TJj73oPr0b7dw73k2Yco6KT3JEcrB/bA+S3+jdaOeXshvtjDhSOKKa9R+R7N2AZ+/eDXhuzA/FvrRJc5czKgIECHRVQJDsauX0O02BwkHyW/H2X943Ttrc+yj/3y+L730gu2XJ1t4ZcLv0HlVw77JHijKwZT/kj/gQP/jwvvoZ74/vff61sfixd4NTB324TWwq5gbJbKoN7ujbu+FO79Ef1/Ye/TG4GdNgXix7c5pRVGMHyfxrJC895hFxyFn/NhRoPxYvus/L4vx7Vwhsy/Sv/iDpGsnE9iDDIUCAwMwICJIzU2oD7YRAoSC5NW76k+fE3m/4Qu/U1fVxynVfjRP7n+IH11oNXXs2POitO+7+WOQaycEH6JXvcNk7v9GprZ2YWoU7WSRI9hq7vTdXH9O7bu/O2LU3Bb7bu9Zx/tzqy18bexz05/H95R6XkXXi9r+MQx7+B3HVQ9fHxk9fGSc/OZu6I+4cPN/p5Y6k3/6Xh8TD/+ul2d12lvmi4/J47R4HxZ/3L3e8Or6V3dI4bo+/POTh8V8vHf1Fy+Wv3SOe+bd3xyP/nz+Paz/6snhAb636g2TEindtjR1fGtnXCs9iCxIgQIDAFAQEySkg2wSBwgIrBsm74t++/sX44Mm/G8f9n2/3jj+ujrVv+mJ89bRfnb9GbccH5V17d8y8vnfHzO1HEbfeFH/z4v3iNdl5qr2fBeFwcNOeXXvPz/v33vPz5jubfag+qP9JfGP80zV/MnRTlbviitfvH8843bPtCte1SwsWDJK9h5bGu/ZfG8d/pfdlwoJnLw4eo3Fv74Y8p8RFm07c8UzIoXm44EjmBEFyx1HRxfvBwvk5PNe3P3pk9aPj5R+5Iv72yMGzJyPuuuL1sf8zTu9d+7nwuZjTCJI7xrL4mZj2tS7tOvpKgACBWRMQJGet4sbbboFBkMzt5ep49Ms/Hl/+8IsWnHK69dLXxprn/Hl8p/fZPruu8ZAD94pdb/2XuOSL34gf39v78PxfHh0fOfeLi44iDo7erI6H/vJz4jf2fVa8/v++KQ66pXfk6DH/NS7t3WVn9S5r4qDnr4+H9R4B8aUvXB033/WA+LWXPz3+9SOfiRtH3GkzdwgzsEC3H/+Rfy3h9mC2+MuJ3t1dj3rqS+IjN/UnYjz1kANjr11vjc1/f1lsyW4bvFuv7W/2njE5+KZjkiDZ2+bWK98WTz3onfG1rXPXBD9//f3jxss3xZd/cG/s1Ltsc+vWxddqbo0r3/WMeM7x/xh39L6ImVvnYXHnjZfHpv4NpRaH0ukckcx2hVs+9KJ40qvOjx/eu3Qsu+12v7jjjkU3yZqB/ccQCRAgQKDdAoJku+ujd7MmsGKQ7H3A3P0xse6QI+P1bz0ufuspS5/h1/9AevHb41XHvi8++40f9++0utOD9o71L3pdnPGO18av//x9c49A2PXI+MRtvWvG5u+RcsvFb44jjz4jPveDbI0dz7/beu3fxIajToyPX31z/7Ehq3fZPdb+xu/GW99zUrx8v/9v/nmAw6fXzlrBVh5v6kGyN9t6z0Dco/cMxGxy9O4e/L3e3YMH4bB39PGid2+IN/7p5+La2+buIDw3F4+Ls/9iQ+y3y5DdhEEya2HrTRfFuze8Md732d6XJb3pu9ODnhTPfsMZsfHO34vffM/1y970566vnRX/7VXvivMGj7BZvUvsvvY34g/++Kx4y6E7jlJm7U/liOQ8xVy/3j6/v/X29z2fHC95+4fjtdceFk8bMRZ7HAECBAgQaEpAkGxK3nYJECBAgEABgcE1omvf+vX4l3c8qcAaFiFAgAABAvULCJL1G9sCAQIECBAYKfDPb14fzzz7lnja8f8Ul/zBYxctN7ir667x8k/+e3x4cBEzTwIECBAg0LCAINlwAWyeAAECBGZbYOt5L43dX3xu3LnPa+Pyze/fcXOi3snpN/3Ni2O/13wq7lhwQ6PZ9jJ6AgQIEGiHgCDZjjroBQECBAjMrMA/xynrfy1O/lp2kefg5kQRt27++7hsS+/60tVr401f/Gqc9qvzFzXPrJOBEyBAgECbBATJNlVDXwgQIEBgNgV6Nyf6hw+8LY59/3mx+Ya5G2XN3dzqD+KPz3pLHPpoIXI2J4ZREyBAoL0CgmR7a6NnBAgQIECAAAECBAgQaKWAINnKsugUAQIpCHTy8R8pwBsDAQIECBAgULuAIFk7sQ0QIDCrAoLkrFbeuAkQIECAQPoCgmT6NTZCAgQIECBAgAABAgQIVCogSFbKqTECBAgQIECAAAECBAikLyBIpl9jIyRAgAABAgQIECBAgEClAoJkpZwaI0CAAAECBAgQIECAQPoCgmT6NTZCAgQIECBAgAABAgQIVCogSFbKqTECBAgQIECAAAECBAikLyBIpl9jIyRAoCEBj/9oCN5mCRAgQIAAgdoFBMnaiW2AAIFZFRAkZ7Xyxk2AAAECBNIXECTTr7EREiBAgAABAgQIECBAoFIBQbJSTo0RIECAAAECBAgQIEAgfQFBMv0aGyEBAgQIECBAgAABAgQqFRAkK+XUGAECBAgQIECAAAECBNIXECTTr7EREiBAgAABAgQIECBAoFIBQbJSTo0RIECAAAECBAgQIEAgfQFBMv0aGyEBAg0JePxHQ/A2S4AAAQIECNQuIEjWTmwDBAjMqoAgOauVN24CBAgQIJC+gCCZfo2NkAABAgQIECBAgAABApUKCJKVcmqMAAECBAgQIECAAAEC6QsIkunX2AgJECBAgAABAgQIECBQqYAgWSmnxggQIECAAAECBAgQIJC+gCCZfo2NkAABAgQIECBAgAABApUKCJKVcmqMAAECBAgQIECAAAEC6QsIkunX2AgJEGhIwOM/GoK3WQIECBAgQKB2AUGydmIbIEBgVgUEyVmtvHETIECAAIH0BQTJ9GtshAQIECBAgAABAgQIEKhUQJCslFNjBAgQIECAAAECBAgQSF9AkEy/xkZIgAABAgQIECBAgACBSgUEyUo5NUaAAAECBAgQIECAAIH0BQTJ9GtshAQIECBAgAABAgQIEKhUQJCslFNjBAgQIECAAAECBAgQSF9AkEy/xkZIgEBDAh7/0RC8zRIgQIAAAQK1CwiStRPbAAECsyogSM5q5Y2bAAECBAikLyBIpl9jIyRAgAABAgQIECBAgEClAoJkpZwaI0CAAAECBAgQIECAQPoCgmT6NTZCAgQIECBAgAABAgQIVCogSFbKqTECBAgQIECAAAECBAikLyBIpl9jIyRAgAABAgQIECBAgEClAoJkpZwaI0CAAAECBAgQIECAQPoCgmT6NTZCAgQaEvD4j4bgbZYAAQIECBCoXUCQrJ3YBggQmFUBQXJWK2/cBAgQIEAgfQFBMv0aGyEBAgQIECBAgAABAgQqFRAkK+XUGAECBAgQIECAAAECBNIXECTTr7EREiBAgAABAgQIECBAoFIBQbJSTo0RIECAAAECBAgQIEAgfQFBMv0aGyEBAgQIECBAgAABAgQqFRAkK+XUGAECBAgQIECAAAECBNIXECTTr7EREiDQkIDHfzQEb7MECBAgQIBA7QKCZO3ENkCAwKwKCJKzWnnjJkCAAAEC6QsIkunX2AgJECBAgAABAgQIECBQqYAgWSmnxggQIECAAAECBAgQIJC+gCCZfo2NkAABAgQIECBAgAABApUKCJKVcmqMAAECBAgQIECAAAEC6QsIkunX2AgJECBAgAABAgQIECBQqYAgWSmnxggQIECAAAECBAgQIJC+gCCZfo2NkACBhgQ8/qMheJslQIAAAQIEahcQJGsntgECBGZVQJCc1cobNwECBAgQSF9AkEy/xkZIgAABAgQIECBAgACBSgUEyUo5NUaAAAECBAgQIECAAIH0BQTJ9GtshAQIECBAgAABAgQIEKhUQJCslFNjBAgQIECAAAECBAgQSF9AkEy/xkZIgAABAgQIECBAgACBSgUEyUo5NUaAAAECBAgQIECAAIH0BQTJ9GtshAQINCTg8R8NwdssAQIECBAgULuAIFk7sQ0QIDCrAoLkrFbeuAkQIECAQPoCgmT6NTZCAgQIECBAgAABAgQIVCogSFbKqTECBAgQIECAAAECBAikLyBIpl9jIyRAgAABAgQIECBAgEClAoJkpZwaI0CAAAECBAgQIECAQPoCgmT6NTZCAgQIECBAYMYFVq1aNeMC6Q9/27Zt6Q/SCFslIEi2qhw6Q4AAAQIECBCoXiALkoJG9a5taVF921KJ2eqHIDlb9TZaAgSmKODxH1PEtikCBFYUEDTSniDqm3Z92zo6QbKtldEvAgQ6LyBIdr6EBkAgGQFBI5lSLjsQ9U27vm0dnSDZ1sroFwECBAgQIECgIgFBoyLIljajvi0tTOLdEiQTL7DhESBAgAABAgQEjbTngPqmXd+2jk6QbGtl9IsAAQIECBAgUJGAoFERZEubUd+WFibxbgmSiRfY8AgQIECAAAECgkbac0B9065vW0cnSLa1MvpFgAABAgQIEKhIQNCoCLKlzahvSwuTeLcEycQLbHgECBAgQIAAAUEj7TmgvmnXt62jEyTbWhn9IkCg8wIe/9H5EhoAgWQEBI1kSrnsQNQ37fq2dXSCZFsro18ECHReQJDsfAkNgEAyAoJGMqUUJNMuZadGJ0h2qlw6S4AAAQIECBAYX0CQHN+sS2uob5eqlU5fBcl0amkkBAgQIECAAAFHrGZwDgiSM1j0FgxZkGxBEXSBAAECBAgQIFCngKBRp27zbatv8zWYxR4IkrNYdWMmQIAAAQIEZkpA0Ei73Oqbdn3bOjpBsq2V0S8CBAgQIECAQEUCgkZFkC1tRn1bWpjEuyVIJl5gwyNAgAABAgQICBppzwH1Tbu+bR2dINnWyugXAQKdF/D4j86X0AAIJCMgaCRTymUHor5p17etoxMk21oZ/SJAoPMCgmTnS2gABJIREDSSKaUgmXYpOzU6QbJT5dJZAgQIECBAgMD4AoLk+GZdWkN9u1StdPoqSKZTSyMhQIAAAQIECDhiNYNzQJCcwaK3YMiCZAuKoAsECBAgQIAAgToFBI06dZtvW32br8Es9kCQnMWqGzMBAgQIECAwUwKCRtrlVt+069vW0QmSba2MfhEgQIAAAQIEKhIQNCqCbGkz6tvSwiTeLUEy8QIbHgECBAgQIEBA0Eh7Dqhv2vVt6+gEybZWRr8IEOi8gMd/dL6EBkAgGYH2BI3r4owD18TGK5ahPeD02HL5sbFvnerXnREHrrkmTth2Zhy60naKLldnX8douz31HaPTFu28gCDZ+RIaAAECbRUQJNtaGf0iMHsCrQwaTYS1otssulxLplIr69sSG92oT0CQrM9WywQIECBAgACBVgi0MmgsG9YuimNWHRZn9dU2xIXbjxxmRzKPjjhyfWzcOPe/B5y+JS5f+95YddjQ34/NjmdmbZwf607f3Fs2O/NW5LQAACAASURBVPR5QJy+5fLo/9fibfb/vjEGB0g3XLgtzjx0uT6M6lcryhutrG87aPSiRgFBskZcTRMgQIAAAQIE2iDQyqCxTJC86JhVceq6XkDspb7rzjgw1lxzQmw7MzsJdf6U2PUXzv19EAA3DP99cMrqfOgbnCp70TG9sBlzoXTBNrPlTo11y4XMRX0b3a82VDcEyXaUYeZ6IUjOXMkNmAABAgQIEJg1gW4EyUXBbv7I4hH9o5LzRyTPmT+yuOTvw+vOBclecuwdXcwqPbRurHSN5NyRzP72VgqcC/rVjpnUyvq2g0YvahQQJGvE1TQBAgQIECBAoA0CrQwaS45IDp8+OlAbnJY6bpAcOtLYayo7onj+Eb1guWZpkMz+b/7s2N6S86fTLgmSg9NtF/erDdV1RLIdVZi9XgiSs1dzIyZAgAABAgRmTKA7QXL+iOCS+pQJkqOOSC46cjkcHpcEyVH9asdEamV920GjFzUKCJI14mqaAAECBAgQINAGgVYGjZxrJHuHEWPVqevmHwkybpDsHUEcXD853M7IsNirUv//zo0js2smF50CO3yN5MJ+taG6jki2owqz1wtBcvZqbsQECExJwOM/pgRtMwQI5Ap0JUjO3XF1cBrp0N1Wx75G8tTsLNU466yV79rav6HP4KGWB2zordK7A+wJ2bWVg+ddDu4cO6pfufRTWaCV9Z3KyG2kSQFBskl92yZAIGkBQTLp8hocgU4JzFbQWHzTnk6VaqLOzlZ9JyKyUg0CgmQNqJokQIAAAQIECLRJYLaChiDZprmnL+kKCJLp1tbICBAgQIAAAQJ9gdkKkrNXdPWdvZq3YcSCZBuqoA8ECBAgQIAAgRoFBI0acVvQtPq2oAgz2AVBcgaLbsgECBAgQIDAbAkIGmnXW33Trm9bRydItrUy+kWAAAECBAgQqEhA0KgIsqXNqG9LC5N4twTJxAtseAQIECBAgAABQSPtOaC+ade3raMTJNtaGf0iQKDzAh7/0fkSGgCBZAQEjWRKuexA1Dft+rZ1dIJkWyujXwQIdF5AkOx8CQ2AQDICgkYypRQk0y5lp0YnSHaqXDpLgAABAgQIEBhfQJAc36xLa6hvl6qVTl8FyXRqaSQECBAgQIAAAUesZnAOCJIzWPQWDFmQbEERdIEAAQIECBAgUKeAoFGnbvNtq2/zNZjFHgiSs1h1YyZAgAABAgRmSkDQSLvc6pt2fds6OkGyrZXRLwIECBAgQIBARQKCRkWQLW1GfVtamMS7JUgmXmDDI0CAAAECBAgIGmnPAfVNu75tHZ0g2dbK6BcBAp0X8PiPzpfQAAgkIyBoJFPKZQeivmnXt62jEyTbWhn9IkCg8wKCZOdLaAAEkhEQNJIppSCZdik7NTpBslPl0lkCBAgQIECAwPgCguT4Zl1aQ327VK10+ipIplNLIyFAgAABAgQIOGI1g3NAkJzBordgyIJkC4qgCwQIECBAgACBOgUEjTp1m29bfZuvwSz2QJCcxaobMwECBAgQIDBTAoJG2uVW37Tr29bRCZJtrYx+ESBAgAABAgQqEhA0KoJsaTPq29LCJN4tQTLxAhseAQIECBAgQEDQSHsOqG/a9W3r6ATJtlZGvwgQ6LyAx390voQGQCAZAUEjmVIuOxD1Tbu+bR2dINnWyugXAQKdFxAkO19CAyCQjICgkUwpBcm0S9mp0QmSnSqXzhIgQIAAAQIExhfIgqSftAW2bduW9gCNrnUCgmTrSqJDBAgQIECAAAECZQQcgS2jZ10CxQQEyWJOliJAgAABAgQIEOiIgCDZkULpZqcFBMlOl0/nCRAgQIAAAQIEFgsIkuYEgfoFBMn6jW2BAAECBAgQIEBgigKC5BSxbWpmBQTJmS29gRMgQIAAAQIE0hPIbjqzevXq+PnPf57e4IyIQIsEBMkWFUNXCBBIS8DjP9Kqp9EQINANAUGyG3XSy+4LCJLdr6ERECDQUgFBsqWF0S0CBJIWECSTLq/BtUhAkGxRMXSFAAECBAgQIECgnIAgWc7P2gSKCgiSRaUsR4AAAQIECBAg0HqB7NrI+973vnHvvfe2vq86SKDLAoJkl6un7wQIECBAgAABAgsEBEkTgsB0BATJ6TjbCgECBAgQIECAwBQEBMkpINsEgZ6AIGkaECBAgAABAgQIJCMgSCZTSgNpuYAg2fIC6R4BAgQIECBAgEBxgezayJ133jnuueee4itZkgCBsQUEybHJrECAAIFiAh7/UczJUgQIEKhSQJCsUlNbBEYLCJJmBwECBCYUOOSQQ+LSSy+dcO32rHbwwQfHpk2b2tMhPSFAgEAJAUGyBJ5VCYwhIEiOgWVRAgQIDARWrVoV2bPKUvhJaSwp1MMYCBAoJyBIlvOzNoGiAoJkUSnLESBAYF4gteCV2nhMVAIEZlsguzby/ve/f/zsZz+bbQijJ1CzgCBZM7DmCRBISyDF0JXimNKadUZDgMA4AoLkOFqWJTC5gCA5uZ01CRCYMYFUA1eq45qx6Wm4BAjMCwiSpgKB6QgIktNxthUCBDoukHLYSnlsHZ92uk+AwAQCguQEaImukspN8fbaa6+44YYbWlclQbJ1JdEhAgTaJpB60Ep9fG2bT/pDgEC9Atm1kbvuumts3bq13g1pvfUCqby/ZePIftp2kz9BsvW7gA4SINCkQCpvQisZzsIYm5xDtk2AwHQFBMnperd5a6m8v2Xj+PGPfxwPetCDWhUmBck2z359I0CgUYFU3oDyEGdlnHkO/p8AgTQEBMk06ljFKFJ5fxsEycykTWFSkKxilmqDAIHkBFJ58ylSmFkaaxEPyxAg0G0BQbLb9auy96m8vw0HyTaFSUGyytmqLQIEkhBI5Y2naDFmbbxFXSxHgEA3BbJrIx/4wAfG3Xff3c0B6HVlAqm8vy0Okm0Jk4JkZVNVQwQIpCCQypvOOLWYxTGP42NZAgS6JSBIdqtedfY2lfe35YJkG8KkIFnn7NU2AQKdEkjlDWdc9Fkd97hOlidAoBsCgmQ36jSNXqby/jYqSDYdJgXJacxi2yBAoPUCqbzZTAI9y2OfxMs6BAi0W0CQbHd9ptm7VN7fVgqSTYZJQXKas9m2CBBopUAqbzST4s76+Cd1sx4BAu0UyK6N3G233eKnP/1pOzuoV1MTSOX9LS9INhUmBcmpTWUbIkCgjQKpvMmUsWVQRs+6BAi0QeDnP/95/MIv/EK/K4JkGyrSjj6k8v5WJEg2ESYFyXbMc70gQKABgVTeYMrScSgraH0CBJoW+Lu/+7t4xSteEe973/vi6KOP3n5E8owzzogTTzwxsv8/+OCDm+6m7U9ZIJX3t6JBctphUpCc8oS2OQIE2iGQyptLFZosqlDUBgECTQvstNNO/aOS97///ePOO++MnXfeObLrJXfZZZe4/fbbm+6e7TcgkMr72zhBcpphUpBsYFLbJAECzQqk8sZSlSKPqiS1Q4BAkwJ/9Ed/FO9617vi3//937d348EPfnC8973vjd/93d9tsmu23ZBAKu9v4wbJaYVJQbKhiW2zBAg0I5DKm0qVekyq1NQWAQJNCmRHJX/2s59t78Luu+8eP/zhD5vskm03KJDK+9skQXIaYVKQbHBy17HpQw45JC699NI6mtbmBALZ9RibNm2aYE2r1CGQyhtK1TZclhf1elr1TCvXntfTcn6zsvY73/nOePe7390/KpkdjfzjP/7jeM1rXjMrwzfORQKpvL9NGiTrDpOCZGK73Pvf//7YsmVL/Nmf/VliI+vmcNSjPXVL5c2kDlE2y6vaf+uYbZO3qR6T283amve9733jnnvuiYc+9KFx6623ztrwjXdIIJX3tzJBss4wKUgmuLutWbMmLrrooth3330THF33hqQezdcslTeSuiT5jJa1/9Y16yZrVz0mc5u1td7xjnfEaaedFn/6p38ar371q2dt+MYrSC47Bx70oAfFtm3bKp0fgmSlnO1oLAuR2Te3F154YTs6NOO9UI9mJ4CQlO/PaLSR/Td//kxzCfWYpnZ3t3XXXXfF8ccfH6effnpkr29+Zlcglfe3skckBzOg6jDZuiCZJWU7ffkd/rDDDovXve51ceihh5ZvTAulBdSjNOFEDaTyBjLR4MdYidPKWPbfMSbTFBZVjykg2wSBRARSeX+rKkhmZa0yTNYSJLNn9tx4441xww039H//8Y9/HNddd13/GT633XZb/1cG8t3vfrf/fJ/s7lrZ79mv7GL67GYx2V23sl/Zee7Z73vuuWd/nezuW4Nfj3/84/sYe++9d+y1117937Pl/UTfOwuR2fWSfpoXUI/p1yCVN49pyLFaWdn+O41ZWHwb6lHcapIl3WRqErX61nGTqXK2qby/VRkkqwyTpYPk9ddfH1dddVV85Stf6f++evXquPjii7cHuyzg/cqv/Er/3x/ykIdsD4HZBdDZA2OHw2L250HBB8FyEDL/4z/+o3/75kEQzX7Pjl5effXV2wNrFlyf97znxb333htPecpT+r/233//2GeffcrNwo6u/fu///uRXU+SHZn007yAekyvBqm8cUxLjFe+tP0332iaS6hHPdof//jHI/t17rnn1rMBrY4loB5jcS27cCrvb1UHyarC5NhBMgt4F1xwQf/6uyuvvDJ+8pOf9MPaILRlvz/ykY8sX/kJW/jBD37QD7WDX1m4fcADHhBPe9rT4gUveEEcfvjhM3XUMpUdaMLp0LrV1KP+kjAe35hZMTNOxZymtZR6VC995JFHxkte8pL+Lz/NC6hH+Rqk8jpRR5CsIkwWDpKbN2/u3wErC5HPfvazI7tG4YUvfGE84hGPKF/lmlu45ZZb4pOf/GR86lOf6p82mwXKN7/5zbHffvvVvOXmm3e79OZrMNwD9ai3Hqm8YdSrtLR1bsXE7b/FnKa1lHpUL+21oHrTMi2qRxm9uXVTMawrSJYNk7lBMju19GUve1n/WrssfB111FHlq9pwCx/60If6ofgJT3hCfOxjH4v73Oc+Dfeo3s27XXq9vuO2rh7jihVbPpU3i2KjrXYpdsU97b/FraaxpHpUp+w0yuosq2hJPapQFCSLKk56A54Vg+S3vvWtWLduXf9I3nOf+9yifenMctm1nNmR1SwkZzfqSfXH7dLbVVn1qL4e2c0hNm3aVH3DM9KiIFm80Pbf4lbTWFI9qlN2GmV1llW0pB5VKAqS4yhOEiZHBsmbbropXvrSl8Zll102Th86uexBBx3Uv7h8jz326GT/i3Ta7dKLKE1vGfWo1loQKufJbzw/++94XnUvrR7VCHsdqMaxqlbUoxrJVBzrPLV1WHrcMDkySGansGbXEr785S+vppItbuWDH/xg/06z55xzTot7Wa5rbpdezq/qtdWjWtFU3iiqVSneGr/iVtmS9t/xvOpeWj3KCzuNsrxhlS2oR3Waqby/TStIZvLjhMmRQfJxj3tcfPvb366uki1vaRbG63bp7ZqE6lFdPVJ5o6hOZLyW+I3nlS1t/x3frM411KOcrtMoy/lVvbZ6VCeayvvbNIPkOGFyZJDMOvya17wm/uqv/qq6ara0pVe/+tXxt3/7t/3nUqb+k8oOlUqd1KOaSnIs58hvMj9uk7nVtZZ6TC7LbnK7OtZUj+pUU7GcdpAsGiZXDJInnHBC/MM//EO8613viqc//enVVbUlLX3pS1+Kt7zlLfGsZz0rTjzxxJkIkm6X3pLJN98N9aimHqm8UVSjMX4r/MY3y9aw/07mVtda6jGZrNMoJ3Oray31qFY2lfe3gw8+OD73uc9Vi1Ogtb322ituuOGGkUuuGCSzI3TZnRCzIPnNb34zfvu3f7t/3WQWKu973/sW2Hy7FskeZfLFL36xfxfaj370o7F27do4/vjjIytOKhOtiLjbpRdRmt4y6lHeepb23/JaS1vgN7mq/XdyuzrWVI/xVZ1GOb5ZnWuoR7W63t/Keeb55QbJweZvvPHGfvi65JJL4vOf/3ysX7++fyTv8Y9/fGQv3Nmvxz72seV6W+HaWX+zC/CzR3tcf/318dnPfjY2b97cD43Pfvaz+6F4uL95UBV2rfGm3C698RIs6IB6lK/HLO2/5bUEySoN7b9VapZvSz3GN/T6Ob5ZnWuoR7W6PMt55vlNfI3kVVddFV/+8pcj+z0La9mvH/zgB/Gf//N/jltvvTV+8Rd/sf/rkY98ZGQ3srnPfe4TD3zgA/t3Asp+32233WKnnXbq/3t2dDP7ffDrnnvuicGv7Chi9ue77747fvzjH8dPfvKT7b9n/57dECjbbvbrX//1X+PhD394nHfeef1Heey77779gLv//vvHU5/61P7vy/3M0jWSg/G7XXq5HavqtdWjnGjeC11u6xcdE6sOO2vHYgecHlsuPzb2zV0xjQVK+6XBMPEo7L8T09WyonoUZ3UaZXGraSypHtUre38rZ5rnV+k1klu3bu0f/fv+97+/INxlnchOjR0OgVmIvPnmm/shcRAWsz//+q//ev+6zEGoHITMLBhmyw2H0Sc84Qn96xqHQ2u23D777FPo1NtZvEZyMJ3cLr3cjlX12upRTjTvhW6l1q8748BYs3F9XLjtzDh0fsGLjlkVh22enTBZxq9c5dJY2/7brjqqR/F6OI2yuNU0llSP6pW9v5UzzfPLPbXVNZLlCtDmtd0uvV3VUY/J65H3Qje65YvimFWnxrotl8exCw4/XhdnHLgmrjlhW5zZT5fZcofF3DHLDUOhM1vu6Igj18fGjXP/e8DpW+Lyte/dfoSz//d+4+Msu8I2rzsj5ja5MeY3GRsuHPRzMsPJ/SbbXopr2X/bVVX1KFYP+34xp2ktpR7VSzMtZ5rnlxskB5t3jWS5QrR17bwJ0tZ+p9ov9ZisshO7Zae0nrou9zTW7AjlqevmA+GCdeYC58b1F8a2LHFmIW/Nxrhiw/Dfr4kT+kc7x1m2F11HbXN+GzEIqAXHsJLsxH6TlSvZtTi2q7TqsXI9nEbZrvmqHvXUw+tAOdc8P9dI9nxn8RrJwbRyu/RyO1jVa6vHZKJ5L3QjW81C2PlHzIXA0Qv1jkaeH0dsP/V1+Cjm/FHGcwZHNBf/fdJls/VGbDOysDoIp71O94Pl0N8nIJzYb4JtpbyK/bdd1VWPlevhNMp2zVf1qKce3t/Kueb5uUZyxp4judx0crv0cjtZ1Wurx/iieS90I1ucP030nJVurLMkqA2HxZqC5OKwODgtNgusguT4E2SKa9h/p4hdYFPqMRpp4tfNAu4WGV9APcY3K7IG1yJKk79O5J7a6hrJcgXowtpul96uKqnH+PWY/I2iyDWSKxwd3LemILmvI5Ljz4J2rGH/bUcdBr1Qj+Xr4TTKds1T9aivHpN/PqivT11qOc8vN0gOBusayS6Vffy+ul36+GZ1rqEe4+nmvdCt1FqRu7aufI1k7843lZ/amneNpFNbx5sh013a/jtd77ytqcdSIadR5s2a6f6/etTnXebzQX296k7LeX6Fg+TiIaf0HMlsbHlQ3Sn5ZD11u/TJ3OpaSz3Gky29/+Y+RzLnrq01BMmRd4pdfKqtayTHmyxTWNr+OwXkMTahHkuxSr9mjuFv0XwB9cg3mnQJtpPKza2X5zdxkFyuW117juTwGPKgypWhG2u7XXq76qQexeth/y1utdyS/Mr5Lbe2/bd60zItqscOPadRlplJ1a+rHtWb+nxfnWne54NKg2R13Z5+S3lQ0+9RM1vk0Iz7qK2qR7F6cCrmZJ6Vcxp3bfNyXLF6l1ePOV+nUdY7z8ZtXT3GFRtvefv9eF6Ll87zEyTnxfKgypWhO2u7XXq7aqUexeph/y3mJEiWcxp3bfvvuGL1Lq8ec75eL+udZ+O2rh7jio23PN/xvATJCb1MtB1wbpc+4SSqaTX1yIe1/+YbrbQEv3J+K61t/63PdpKWZ70eTqOcZNbUt4561Gc7aNn7WznjPD9HJOd986DKlaG9a1988cXx3Oc+d0EHy90uPXscwprYeMUyYz7g9Niy0vP6KmPa0YcDTt8Slx+7b2UtN9FQuXo00eN6tnnJJZfEc57znGUbn9X9typpftVIej2txrHOVlJ+PV1u/i22rPU0yv6NvzbG0rf/DXHhtjPj0EoLO/c+f80J2+LMahuutJd5jdVaj7yNJ/L/efN+7Pe3EfN4w4Xdnmsx4Y358vwEyRkPkg9+8IPj7rvvjne84x3xhje8YfvLSiW3S59w0pZ+bWtqu6U7PrqBSupRY/+m0fTDH/7wuOOOO+KUU06J4447bsEm817optG/Lm+DXzXV83pajWPdraT6ejpq/g171rqvj3jv7T9i6dwjK/4iOY0gWWs96t6RWtJ+3rwf23jZeTx35/beNyLd/eJiws/GeX71BsmyqX7CQU8yt/OgJmmzC+ucffbZkd3N7t57741t27bFqaee2g+Uldwufbn6Zf929DWxPs6Ks66Y/5Zy0TzZ/q1Pf9nejQHWb4yNZ81pLvhGaMEjGwbfeA4/puGAOH3L5XFs/+Huh/W22G9hxzejS/ryh3Ht3AZj4/wG+0c01743Vh02t/aCI5zLbr+eqldSj3q6NrVWP/axj8WGDRviZz/7WX++nnTSSXH88cf3t19o/23i9WiwzQ0Xxrahr82z51IedtYk39IX/PA05mtnIb+pVbq7G/J6Ovza7vV02jN51Pwb9KP20yhHve4s+feV3pNXeM+PofUO2NB7N++9L28/Iln0fT47MjrOsvVVsfZ61Nf1VrWcN+/Hfn9baR73Hxt9bMyd5zbqsWCL/2/+s2hkR+xHPQM6e28f4/PninN4uX1opb6uXM48vykEySG0IfhCqX7MD0NlZnYeVJm2275udqTn1ltv7Xdzl1122R4ov/3tb8fatWvjda973WRDGBUke6e+rN/+rU42uU+Ndf3A19vM8DrzH8J7aXDu9NQsuJ26bv5bzWy98+OI+dNl+t94XnPC3If1Rdsd+TD5+fZ39GX+lNj18x/6F4eABe2usP3JtHLXcvv6iEc/+tFx8803963ud7/7xc9//vN+oHzrW9/an7cr/pT9lnGS16P+Ouf2vr84Ms45c+jN58BTY/MV63ufgcY93UuQzN1RGl7A6+ngG3uvp01MxVHzL3v/OOqoo+IlL3lJ/1ctPwWPSA6/Jy99794Yy7/nZx8BVsWp64Y+D/S+4B18uZzX5o73+YXtLLf94WVrcZpv1Gmt1emuNO932mmn/M8Hw10Z+V6/8PPqyM+Wseh9evDZ9ZyIo1cMkr3Lwgp9/syfw8vuQ5N8hum55OWjBoLkfFgYTvXLHpFaJj2POnJVwVzMoGb5Z/Xq1f2jPIOf7EP6K1/5ytiyZUts2rRpMpqRQXLxlwvDzQ8FtMXrLwlyQwF05IvAwsA39w3S/HqLvx3q7/z9iTkXapf8ffhFZFEAnkxo7LX222+/+PrXvz72eimtkL0pZM+sHfzsvPPO/dOzJwuSNb8ezc/Z9Rs2x7o/3PFlyTHvvSY2979MHwTJgt9sjvMt/PAbVs4EmPXXv6r3D6+ny71+Ln599Xpa9bwbtDdq/v3P//k/818ny3RqxFkfvVN5hk5rXfzeOc57/o4vj+fenwfXSI7R5vBngP77/ArbL2NRYF2vuwWQxliksnk/MnANv4aN89lyfhArfqYt8/mz4D6UVJBcsCPnHZEahI4Vlhtjoo1aNC9xV7CJ1jYx/E3Orrvu2g+U2SmuN9xwQ01HJJcGyblT/QZEw6e8jjoNYD4AbL+wf3Aa6+Df59dbsuMM7aylguQK26+p0o5ILn9E8sQTT4y3ve1t+R+QCn3LWPHr0WCbF0acH2f2r6247oxj4oK16+Lcw3bM7dHfbJb5Fn6lL2wWTtJZfv2renf1ejr4cmScD0ZeT6uah6Pm35577hnnnXdenHtu7wyJun4Wv8b2L//YPH+JyWCjw1+aDf6twKl/y7x+Z6+b5x+RHQEfo80FpwTmbL8up167TmutFnfUvM8+N2VfNud+0TzcnSKfFVb6/Jj934JTYOsIkoPLtcrtQ0WqkPf5oJkjkkuO9AwPpei3Q4u/DSjCMXqZPKhyrbd37cG55dkpgoMA+cY3vrHeayQXHCmZewPYfqrzklNbVwiSC6bN0GmvK5yCWt0RyUU1XXDabfX1do1kxOJrJLMAmZ3Smv0U2n8Lfcu4uHYlX48G29yyLk5979q4/Mw1vW/R3xtrz+n9fft+sMI3m/3re6v4Fn7lOVnIr/ppnVyLXk+Hv7wYM0iOej2vYZak+no6av5lhFM5jXKZ19j+qaMb1w/dtXWFz265ZyGt9Fo4/H9Dk2ZJn8bYfg1zb9DkVOpRY//b1PRK877w54MiQXKFy6tW/mxZR5AsON9X+kxdsIh5nw8aCpJLTwssdESqN+hllyuIsdJieVAVbKKVTWR3u/rpT3/av2trFiAHP5Xc1a7Iqa3LvnGcG0dm10yudGHy4uA2/PdFba58jeSEH3y2DF+v2Z+YQ9dvVl/qSupRfbem2uIjHvGI+NGPfhQnn3zy9pvsDDpQaP8t8i3j/JNiKns92r7N3o1HjrkgDj9zbbz3mIgz//DaHRfdj3XUfO41cPxv4QXJaUxWr6deT6cxz0ZtY9T8m+jD9CQDWfY1dtG1svOf4xZc6zi498GKQbL42RkL3o9HHMkstP1JDAquU+g9q2Bbs77YSvN+orm/7DxedNBjpXm8+BrJ7e0dEecP3RNk4Zcs433xVvhzbbJBckmqL3JEaoUjVxXsRbO6U3/mM5+J3/zN31wgWNlztooEyd6W53am+SdPDV8DtmalO1yt8KXCst9Ajrhr64Kjo+PvyEtOx61gLi5uorJ61NC3aTZZ+jmSo4Jkna9HQ9uMYw6Ma9etj3PjD+Pywy8YuntbmSOSBb+VzCnUrL7+VT1/vZ5OGCT791Jb5vKGqguUffi76KJ4//vfHxde2DvfPLGf5eZfNsSppAz7owAAIABJREFUnUY56jW2/+9DN9FZcHrpiMtSso4v+yXb/HOqV7xefIU2+zUfPhU2b9nqJ8nU6lF911vZ4qh5P+js2O9v8/N18fNQlz5HsuC9DWLHHBv+vHvA6afH+o3XzN80crzPn4Xn8IJ9aPCM9fHuGJ/n18ARyZxA2B/0MkekVjpyVcHz5vOgWrn31NSpNWvW9N9s9923Atia+jhLzapHfrUL7b9FvmUseoS86OvR8HLD1wstOtpexTWSed/Cr6RYyC+/DJZYRsD+265pMYv1cBplu+ageky3Ht7fynnn+U0hSG6MvFQ/8ojUoQvT85pRR656N7Ao+5MHVbb9rqyffVOb3an1z/7sz7rS5aT7qR7Fylto/y34LWOlr0ejTispetS8P/zB62Dvj6W+hR9tWcivWCksNSRg/23XdJjVeti/2zUP1WO69eBdzjvPr94gWa7vU107D2qqnWlwYxwaxF9m0+pRrB6cijmNWopfOT+u9fhV3eosznOnUVY9i8q1px7l/CZZexb3+0mcJn0fEyTn5Uy0CI+XqHLXK9+WehQ3tP8Wt1puSX7l/JZb2/5bvWmZFme1Hk6jLDNrql9XPao3zWvR+1ue0Mr/n+cnSAqSfYFUb4debvdpbm31GM8+74VuvNZmb2l+1dbc/lutZ9nWZrke9u2ys6fa9dWjWs8irTEvojR6mTw/QVKQ7At4vES5Ha3qtdVjPNG8F7rxWpu9pflVW3P7b7WeZVub1Xo4jbLszKl2ffWo1rNoa97fikotv1yenyApSCZ9O/Ryu08za6d8e/q6RPNe6Orabirt8quukvbf6iyraGmW6+E0yipmUHVtqEd1luO05P1tHK2ly+b5CZKCZMzi7dDL7Vb1rq0e4/vmvdCN3+JsrcGvunrbf6uzrKKlWa6H/bqKGVRdG+pRneU4LXEfR2uqQXL4QZzZhsd7wGW5YVW/9qxOtFm9HXr1M6iaFtVjMsdZ3X8n0xr/jaKq7aTejv23XRWe5Xo4jbJdc1E9mquHzwfl7PP8JjwiORci48Jtceb8Mxz7z14798jYcvmx0cXH2OdBlStDe9ee1XG3tSLqMVlluE3mNliLXzk/jtX4Vd3KLM9rp1FWPZvKtace5fzKrD3LrwNl3Iq+r00WJJc8TDvbXBYuT411Wy6PY/tJcviI5dDRysXrLn5g99HXxPo4K866YrDOcDsHxOl57fc3fUysOuyseYNiR0pncaLN6u3Qq9ix6mhDPSZXncX9d3KtpWvyK69p/y1vWGULs14P+3SVs6l8W+pR3nDSFthPKje3Xp7fZEEyroszDlwTG+P0kUcgLzpmVZy6bktcnqXKLNidum5u2bwguWZjrN9+pHNuO9ecMH/kc6idLUPt94+GXnNCbOsfHs2C5/lxxLYzI/vbwv8bjZkHVa4M7Vt7lm+H3r5qePxK2ZrM2v5b1mvx+vzKiXo9LedX9dqzXg+nUVY9o8q1px7l/Mqu7f2tnGCe34RBcr5TC478LT5auCPMLThaGWfEgWuuiRPmg14v6e34+0ohc4HDckc/B9tb/H/FAPOgirXSnaVm9Xboba2QepSrzKztv+W0lq7Nr5yo/becX9Vrz3o9nEZZ9Ywq1556lPMru7b3t3KCeX7lguRw3/oh8Nw4Mjv1dHFY7B/BPDrinGX+Ly9I9ldbfN3l4hv9ZB0ZCrL9NjfGFf3+DQfc0Zh5UOXK0K61Z/l26O2qxFxv1KN8VWZp/y2vJUhWaWj/rVKzfFvqkX8qWnllLYwj4P1pHK3ql+VfzjTPb7IgmR2JPP+I+VNJd3QwO531/COy01AXnl5azxHJ4SOeKyANn1a7wmJ5UOXK0K61Z/l26O2qxFxv1KN8VWZp/y2vJUhWaWj/rVKzfFuzXg+nUZafQ1W2oB5Vak7Wls8Hk7kN1srzmyxIzt9IZ/iurYtvtjPyGslFN+XpX8O4cX2vqd41jUtu4rPoGsmh/+9dCLn8NZiLg6MguWAGzfLt0MvtSvWsrR7VuOa90FWzlXRb4TdZbe2/k7nVtZZ6RDiNsq7ZNVm76jGZW5VreX8rp5nnN2GQzDq1+PTSxaeQjrhra2/NufA4f+Lp6afH+o3XzN0cZ+TdYA/r3cc1+xl119aF285C7PabthZ8vmUeVLkytGftWRlne8RX7ol6VFMpjuUc+U3mx20yt7rWUg+ntdY1tyZt15ycVK669dSgnGWe38ggecghh8SmTZvKbb1Da8/CeGf9duhtm47qUV1F8l7oqttSmi3xG7+u9t/xzepcQz0inEZZ5wwbv231GN+sjjW8v5VTzfMbGSRf8YpXxKGHHhpHHXVUuR50YO0PfvCDcfHFF8c555zTgd5O1sVZvx36ZGr1raUe1drmvdBVu7X0WuM3Xk3tv+N51b20eswJO42y7pk2XvvqMZ5XXUt7fysnm+c3MkjefPPN8Vu/9VtxxRVzp6Cm/HPAAQfEJz7xiXjUox6V7DBn/XbobSuselRbkbwXumq3ll5r/Marqf13PK+6l1aPOWH7cd0zbbz21WM8r7qWVodysnl+I4Nkttkbbrgh9tlnn7jwwgvj+c9/frmetHDtT3/60/1xfec734nHPOYxLexhNV1yO/RqHKtqRT2qktzRTt4LXfVbTKtFfsXraf8tbjWNJdVjTtlplNOYbcW3oR7Frepe0vtbOeE8vxWDZLbpbdu2xUtf+tL42te+Fm9+85vjd37nd8r1qAVrn3322XHaaafF+vXr49xzz21Bj+rtwqzfDr1e3fFbV4/xzfLWyHuhy1t/1v+fX/EZYP8tbjWNJdVjTtlplNOYbcW3oR7Frepe0vtbOeE8v9wgOdj8Nddc0w9f2bcsz3nOcyI7leSFL3xh7LHHHuV6OIW1v/e978UnP/nJ+NSnPhWf+9zn4sUvfnE/FD/xiU+cwtab3YTboTfrv3jr6lFPPfJe6OrZajqt8itWS/tvMadpLaUeO6Ttw9OadcW2ox7FnKaxlFqUU87zKxwkB934+c9/HhdccEH/dNd/+qd/iltvvTX233//eMpTnrL99z333LNcr0usnV3bedVVV8VXvvKV/q/szw972MPiaU97WrzgBS+Iww8/vH8dwaz85E2AWXFoyzjVo55KcC3nyq+YH6diTtNaSj3mpJ1GOa0ZV2w76lHMaVpLeZ0oJ53nN3aQXNyd7PrCQXDLfs82mB3522uvvWLvvffu//7kJz85fuEXfiEe8pCHxO67797/lYW7+93vfrHTTjvFfe973/7vgz//7Gc/i61bt/Z/Df581113xW233bbgV3ba7dVXX92/lvPGG2/s/54dJc3+PQu2g3D72Mc+tpxiR9d2O/R2FU496qtH3gtdfVtOo2V++XW0/+YbTXMJ9dih7TTKac68/G2pR77RNJfw/lZOO8+vdJBcrnvZUctBsMt+/9GPfhTXX3993H777duDYLbeTTfdtCAsZsHxoIMOissuu2xBsMwCZnaUMxvMIIhmvz/ucY+LBz/4wdsDaxZcZ+lo40pTw+3Qy+04Va+tHlWLLmwv74Wu3q13v3V+K9fQ/tuuOa4eC+uRPQf70ksvbVeRZrg3Bx988Ew9h73tpfb+Vq5CeX61BMlJu5wdfXzVq14V2c1wsqOUfiYXcDv0ye3qWFM96lDd0WbeC129W+9+6/xWrqH9t11zXD3aVQ+9IdBmAe9v5aqT59eqIJndzOfEE0+MU045Jd7ylreUG/kMr+126O0qvnrUX4+8F7r6e9DtLfAbXT/7b7vmtnq0qx56Q6DtAt7fylUoz69VQTK7ZvLuu++OnXfeOX7605+WG/kMr+126O0qvnrUX4+8F7r6e9DtLfAbXT/7b7vmtnq0qx56Q6DtAt7fylUoz681QTI7GnnSSSdtD5Inn3yyo5IT1N7t0CdAq3EV9agRd6jpvBe66fSiu1vht3zt7L/tmtPq0a566A2BLgh4fytXpTy/1gTJwdHIwXAdlZys8C66n8ytrrVcdF+X7MJ2817optOL7m6F3/K183rarjnt9bRd9dAbAl0Q8P5Wrkp5fq0Iku9+97sjOwKZndb6wAc+MH7yk5/0T2/NjlAed9xx5QSsnayAmzMlW9qxB5b3Qjd2gzO2Ar8ZK7jhEiBAYEYEvL+VK3SeXyuCZBYad9ttt/4jP26++ebYY4894p577uk/NiQLl34ILCfg5kzmxUAg74WO1MoC/MwQAgQIEEhRwPtbuarm+TUeJC+55JJ42cteFmeccUa84hWv6D8Hctu2bfGhD30ojj322PjoRz8az33uc8spWDtJATdnSrKsEw0q74VuokZnaCV+M1RsQyVAgMAMCXh/K1fsPL/Gg+Ti4eV1uByHtVMRcHOmVCpZzTi8bpRz5FfOz9oECBAg0E4B72/l6pLnJ0iW87V2QwJuztQQfEs3m/dC19Jut6Zb/FpTCh0hQIAAgQoFvL+Vw8zzEyTL+Vq7AQE3Z2oAveWbzHuha3n3G+8ev8ZLoAMECBAgUIOA97dyqHl+gmQ5X2s3IODmTA2gt3yTeS90Le9+493j13gJdIAAAQIEahDw/lYONc9PkCzna+0pC7g505TBO7K5vBe6jgyjsW7ya4zehgkQIECgRgHvb+Vw8/wEyXK+1m5YIG+CN9w9m5+SgHlQDppfOT9rEyBAgEA7Bby/latLnp8gWc7X2g0L5E3whrtn81MSOOSQQ+LSSy+d0tbS28zBBx8cmzZtSm9gRkSAAAECMy3gc2K58uf5CZLlfK3dsEDeBG+4ezZPgAABAgQIECDQkIDPieXg8/wEyXK+1m5YIG+CN9w9mydAgAABAgQIEGhIwOfEcvB5foJkOV9rNyyQN8Eb7p7Nz7jAySefHKecckqcdNJJkf3ZDwECBAgQIDA9AZ8Ty1nn+QmS5Xyt3bBA3gRvuHs2P+MCguSMTwDDJ0CAAIFGBXxOLMef5ydIlvO1dsMCeRO84e7ZPAECBAgQIECAQEMCbsZXDj7vZnyCZDlfazcsIEg2XACbJ0CAAAECBAgQmEkBQXImy57OoAXJdGppJAQIECBAgAABAt0RECS7Uys9XUZAkDQtCBAgQIAAAQIECExfQJCcvrktViggSFaIqSkCBAgQIECAAAECBQUEyYJQFmungCDZzrroFQECBAgQIECAQNoCgmTa9U1+dIJk8iXu9AA9/qPT5dN5AgQIECBAYAUBQdL06LSAINnp8iXfeUEy+RIbIAECBAgQmFkBQXJmS5/GwAXJNOpoFAQIECBAgAABAt0SECS7VS+9XSQgSJoSBAgQIECAAAECBKYvIEhO39wWKxQQJCvE1BQBAgQIECBAgACBggKCZEEoi7VTQJBsZ130igABAgQIECBAIG0BQTLt+iY/OkEy+RIbIAECBAgQIECAQAsFBMkWFkWXigsIksWtLEmAAAECBAgQIECgKgFBsipJ7TQiIEg2wm6jBQU8/qMglMUIECBAgACBzgkIkp0rmQ4PCwiS5kObBQTJNldH3wgQIECAAIEyAoJkGT3rNi4gSDZeAh0gQIAAAQIECBCYQQFBcgaLntKQBcmUqmksBAgQIECAAAECXREQJLtSKf1cVkCQNDEIECBAgAABAgQITF9AkJy+uS1WKCBIVoipKQIECBAgQIAAAQIFBQTJglAWa6eAINnOuugVAQIECBAgQIBA2gKCZNr1TX50gmTyJTZAAgQIECBAgACBFgoIki0sii4VFxAki1tZcvoCHv8xfXNbJECAAAECBKYjIEhOx9lWahIQJGuC1WwlAoJkJYwaIUCAAAECBFooIEi2sCi6VFxAkCxuZUkCBAgQIECAAAECVQkIklVJaqcRAUGyEXYbJUCAAAECBAgQmHEBQXLGJ0DXhy9Idr2C+k+AAAECBAgQINBFAUGyi1XT5+0CgqTJQIAAAQIECBAgQGD6AoLk9M1tsUIBQbJCTE0RIECAAAECBAgQKCggSBaEslg7BQTJdtZFrwgQIECAAAECBNIWECQTq28WrPykLbBt27a0B5jQ6Dz+I6FiGgoBAgQIECCwQECQTGxCOEKXWEEXDUd9u1VfQbJb9dJbAgQIECBAoLiAIFncqhNLChqdKNPEnVTfiemsSIAAAQIECBAgUKGAIFkhZhuaEjTaUIX6+qC+9dlqmQABAgQIECBAoLiAIFncqhNLChqdKNPEnVTfiemsSIAAAQIECBAgUKGAIFkhZhuaEjTaUIX6+qC+9dlqmQABAgQIECBAoLiAIFncqhNLChqdKNPEnVTfiemsSIAAAQIECBAgUKGAIFkhZhuaEjTaUIX6+qC+9dlqmQABAgQIECBAoLiAIFncqhNLChqdKNPEnVTfiekaWdHjPxpht1ECBAgQIEBgCgKC5BSQp7kJQWOa2tPflvpO37zMFgXJMnrWJUCAAAECBNosIEi2uToT9E3QmACtQ6uob4eKpasECBAgQIAAgYQFBMnEiitoJFbQRcNR37Tra3QECBAgQIAAga4ICJJdqVTBfgoaBaE6upj6drRwuk2AAAECBAgQSExAkEytoKtWxbZt2xIbleEMBARJc4EAAQIECBAgQKANAoJkG6pQYR8EjQoxW9iU+rawKLpEgAABAgQIEJhBAUEysaILGokVdNFw1Dft+hodAQIECBAgQKArAoJkVypVsJ+CRkGoji6mvt0qnMd/dKteekuAAAECBAgUFxAki1t1YklBoxNlmriT6jsxXSMrCpKNsNsoAQIECBAgMAUBQXIKyNPchKAxTe3pb0t9p29uiwQIECBAgAABAksFBMnEZoWgkVhBFw1HfdOur9ERIECAAAECBLoiIEh2pVIF+yloFITq6GLq29HC6TYBAgQIECBAIDEBQTK1gnqOZGIVXTgcQTLp8hocAQIECBAgQKAzAoJkZ0pVrKOCRjGnri6lvl2tnH4TIECAAAECBNISECTTqmcIGokVdNFw1Dft+hodAQIECBAgQKArAoJkVypVsJ+CRkGoji6mvt0qnMd/dKteekuAAAECBAgUFxAki1t1YklBoxNlmriT6jsxXSMrCpKNsNsoAQIECBAgMAUBQXIKyNPcRG7QuO6MOHDNxrhiUac2XLgtzjy0QE/7618TJ2w7M4osXqDFpYsU3cYkyxVdZ9CrUcsP//uSP5fwzQHLre9E4FYiQIAAAQIECBAgMJ6AIDmeV+uXzg0aywaji+KYVYdFFAmT4waxNoiV6fNEQXJx0B7DV5Bsw4zRBwIECBAgQIAAgbzPpdt6P21Syg1CbepsC/uS67dSMDo64pzLj419++OaCz9n9f+8oZcxsyOQRf+tt0q2naOvifW9Fs66Ilv/D+PaA3sbOHJ9bNw41+oBp2+Jy9e+N1YdNvT3Y3tbX3yEr7/axphfLbYfPV08louO2d7WyD5vWRenLjiiOjymA+L0LZdH1oXtP5UEyYHHkO+yfc2fULn1zW/CEgQIECBAgAABAgRKCzgiWZqwXQ3kBo2RR+eyQHVqrJsPUhcdsypOXdcLer1Udd0ZB8aaa06Ibdm5r4vWX3m5jbF++1HO6+KMA9fExvUXDrXTOwV0w/Df54/kLXOqaC/h9fsSWQA7dV1syQLvgr5k/T8/jpg/5XZknxesM9ena06YP613uO1BWasKkv0QPvBdoa850ym3vu2ajnpDgAABAgQIECCQqEDrguSznvWs2LRpU6Lc0xnWigeZRwbJLFT1D0n2jsgtDJVzRyfnQ9qS8LYjfI5eLhv3cPvL/X1omzF0Hebi/o66NnFBUFvkvOL1jDnXe1YWJFfyLT4vBMniVpYkQIAAAQIECBCoT6B1QbK+oc5Gy7lBo9ARyeHTPQdu86d9Doe8Bae6rrTcNIJkllWHbyQ0dJrqSkFywem8y8yRyoLkonA+qq850zS3vrMxzY2SAAECBAgQIECgYQFBsuECVL353KAxKhgtOK1z4amXC/q4wumko5ebUpAc7sCoU2BHHtEcVYnFR2fnl+tfAzp/zWORNpc7bXawyZX+b1G3cutb9YTSXikBj/8oxWdlAgQIECBAoMUCgmSLizNJ13KDRsG7tg5f+zj6usTsksUd11KutFztp7YuDmNFgmT/dNuhayRHhOxsjIfF/LWc/aLMrXfukfPXbeYGyUV3bV2przlFz63vJJPGOrUJCJK10WqYAAECBAgQaFhAkGy4AFVvPjdoLDilcsfWlz5HctTdTOdvmtO/E+viO7mOOJ10e/gaXIM5CGPDfy97jeRcqJ2/AWxvA4P+7Qh+G7M+j3vX1nmihW3P33F2cHvXZW4OlPecztF9XXlG5Na36gmlPQIECBAgQIAAAQLLCAiSiU0LQSOxgi4ajvqmXV+jI0CAAAECBAh0RUCQ7EqlCvZT0CgI1dHF1LejhdNtAgQIECBAgEBiAoJkagVdtSpWfPxHYuOdteEIkrNWceMlQIAAAQIECLRTQJBsZ10m7pWgMTFdJ1ZU306USScJECBAgAABAskLCJKJlVjQSKygi4ajvmnX1+gIECBAgAABAl0RECS7UqmC/RQ0CkJ1dDH17VbhPP6jW/XSWwIECBAgQKC4gCBZ3KoTSwoanSjTxJ1U34npGllRkGyE3UYJECBAgACBKQgIklNAnuYmBI1pak9/W+o7fXNbJECAAAECBAgQWCogSCY2KwSNxAq6aDjqm3Z9jY4AAQIECBAg0BUBQbIrlSrYT0GjIFRHF1PfjhZOtwkQIECAAAECiQkIkqkV1HMkE6vowuEIkkmX1+AIECBAgAABAp0RECQ7U6piHRU0ijl1dSn17Wrl9JsAAQIECBAgkJaAIJlWPUPQSKygi4ajvmnX1+gIECBAgAABAl0RECS7UqmC/RQ0CkJ1dDH17VbhPP6jW/XSWwIECBAgQKC4gCBZ3KoTSwoanSjTxJ1U34npGllRkGyE3UYJECBAgACBKQgIklNAnuYmBI1pak9/W+o7fXNbJECAAAECBAgQWCogSCY2KwSNxAq6aDjqm3Z9jY4AAQIECBAg0BUBQbIrlSrYT0GjIFRHF1PfjhZOtwkQIECAAAECiQkIkqkV1HMkE6vowuEIkkmX1+AIECBAgAABAp0RECQ7U6piHRU0ijl1dSn17Wrl9JsAAQIECBAgkJaAIJlWPT1HMrF6Lh6OIJl4gQ2PAAECBAgQINARAUGyI4Uq2k1Bo6hUN5dT327VzeM/ulUvvSVAgAABAgSKCwiSxa06saSg0YkyTdxJ9Z2YrpEVBclG2G2UAAECBAgQmIKAIDkF5GluQtCYpvb0t6W+0ze3RQIECBAgQIAAgaUCgmRis0LQSKygi4ajvmnX1+gIECBAgAABAl0RECS7UqmC/cyChp+0BbZt25b2AI2OAAECBAgQIECg9QKCZOtLpIMECBAgQIAAAQIECBBol4Ag2a566A0BAgQIECBAgAABAgRaLyBItr5EOkiAAAECBAgQIECAAIF2CQiS7aqH3hAgkJCAx38kVExDIUCAAAECBBYICJImBAECBGoSECRrgtUsAQIECBAg0LiAINl4CXSAAAECBAgQIECAAAEC3RIQJLtVL70lQIAAAQIECBAgQIBA4wKCZOMl0AECBAgQIECAAAECBAh0S0CQ7Fa99JYAAQIECBAgQIAAAQKNCwiSjZdABwgQIECAAAECBAgQINAtAUGyW/XSWwIECBAgQIAAAQIECDQuIEg2XgIdIEAgVQGP/0i1ssZFgAABAgQICJLmAAECBGoSECRrgtUsAQIECBAg0LiAINl4CXSAAAECBAgQIECAAAEC3RIQJLtVL70lQIAAAQIECBAgQIBA4wKCZOMl0AECBAgQIECAAAECBAh0S0CQ7Fa99JYAAQIECBAgQIAAAQKNCwiSjZdABwgQIECAAAECBAgQINAtAUGyW/XSWwIECBAgQIAAAQIECDQuIEg2XgIdIEAgVQGP/0i1ssZFgAABAgQICJLmAAECBGoSECRrgtUsAQIECBAg0LiAINl4CXSAAAECBAgQIECAAAEC3RIQJLtVL70lQIAAAQIECBAgQIBA4wKCZOMl0AECBAgQIECAAAECBAh0S0CQ7Fa99JYAAQIECBAgQIAAAQKNCwiSjZdABwgQIECAAAECBAgQINAtAUGyW/XSWwIECBAgQIAAAQIECDQuIEg2XgIdIEAgVQGP/0i1ssZFgAABAgQICJLmAAECBGoSECRrgtUsAQIECBAg0LiAINl4CXSAAAECBAgQIECAAAEC3RIQJLtVL70lQIAAAQIECBAgQIBA4wKCZOMl0AECBAgQIECAAAECBAh0S0CQ7Fa99JYAAQIECBAgQIAAAQKNCwiSjZdABwgQIECAAAECBAgQINAtAUGyW/XSWwIECBAgQIAAAQIECDQuIEg2XgIdIEAgVQGP/0i1ssZFgAABAgQICJLmAAECBGoSECRrgtUsAQIECBAg0LiAINl4CXSAAAECBAgQIECAAAEC3RIQJLtVL70lQIAAAQIECBAgQIBA4wKCZOMl0AECBAgQIECAAAECBAh0S0CQ7Fa99JYAAQIECBAgQIAAAQKNCwiSjZdABwgQIECAAAECBAgQINAtAUGyW/XSWwIECBAgQIAAAQIECDQuIEg2XgIdIEAgVQGP/0i1ssZFgAABAgQICJLmAAECBGoSECRrgtUsAQIECBAg0LiAINl4CXSAAAECBAgQIECAAAEC3RIQJLtVL70lQIAAAQIECBAgQIBA4wKCZOMl0AECBAgQIECAAAECBAh0S0CQ7Fa99JYAAQIECBAgQIAAAQKNCwiSjZdABwgQIECAAAECBAgQINAtAUGyW/XSWwIECBAgQIAAAQIECDQuIEg2XgIdIEAgVQGP/0i1ssZFgAABAgQICJLmAAECBGoSECRrgtUsAQIECBAg0LiAINl4CXSAAAECBAgQIECAAAEC3RIQJLtVL70lQIAAAQIECBAgQIBA4wKCZOMl0AECBAgQIEDGNyKdAAACM0lEQVSAAAECBAh0S0CQ7Fa99JYAAQIECBAgQIAAAQKNCwiSjZdABwgQIECAAAECBAgQINAtAUGyW/XSWwIECBAgQIAAAQIECDQuIEg2XgIdIEAgVQGP/0i1ssZFgAABAgQICJLmAAECBGoSECRrgtUsAQIECBAg0LiAINl4CXSAAAECBAgQIECAAAEC3RIQJLtVL70lQIAAAQIECBAgQIBA4wKCZOMl0AECBAgQIECAAAECBAh0S0CQ7Fa99JYAAQIECBAgQIAAAQKNCwiSjZdABwgQIECAAAECBAgQINAtAUGyW/XSWwIECBAgQIAAAQIECDQuIEg2XgIdIEAgVQGP/0i1ssZFgAABAgQICJLmAAECBGoSECRrgtUsAQIECBAg0LiAINl4CXSAAAECBAgQIECAAAEC3RIQJLtVL70lQIAAAQIECBAgQIBA4wKCZOMl0AECBAgQIECAAAECBAh0S0CQ7Fa99JYAAQIECBAgQIAAAQKNCwiSjZdABwgQIECAAAECBAgQINAtAUGyW/XSWwIECBAgQIAAAQIECDQuIEg2XgIdIECAAAECBAgQIECAQLcEBMlu1UtvCRAgQIAAAQIECBAg0LiAINl4CXSAAAECBAgQIECAAAEC3RIQJLtVL70lQIAAAQIECBAgQIBA4wKCZOMl0AECBAgQIECAAAECBAh0S0CQ7Fa99JYAAQIECBAgQIAAAQKNCwiSjZdABwgQIECAAAECBAgQINAtgf8fNFz/ebMcKBMAAAAASUVORK5CYII=;" vertex="1" parent="qFvWysNFHT-1MRfpOzof-1">
          <mxGeometry x="30" y="20" width="374" height="209.1" as="geometry" />
        </mxCell>
        <mxCell id="wGcL2J76SYNbub800geK-5" value="" style="endArrow=none;html=1;rounded=0;entryX=0.668;entryY=0.67;entryDx=0;entryDy=0;entryPerimeter=0;dashed=1;strokeWidth=2;" edge="1" parent="qFvWysNFHT-1MRfpOzof-1" target="wGcL2J76SYNbub800geK-0">
          <mxGeometry width="50" height="50" relative="1" as="geometry">
            <mxPoint x="80" y="270" as="sourcePoint" />
            <mxPoint x="89.83999999999992" y="150.0602" as="targetPoint" />
          </mxGeometry>
        </mxCell>
        <mxCell id="wGcL2J76SYNbub800geK-6" value="" style="endArrow=none;html=1;rounded=0;entryX=0.802;entryY=0.67;entryDx=0;entryDy=0;entryPerimeter=0;dashed=1;strokeWidth=2;" edge="1" parent="qFvWysNFHT-1MRfpOzof-1" target="wGcL2J76SYNbub800geK-0">
          <mxGeometry width="50" height="50" relative="1" as="geometry">
            <mxPoint x="480" y="250" as="sourcePoint" />
            <mxPoint x="490.004" y="129.99699999999999" as="targetPoint" />
          </mxGeometry>
        </mxCell>
        <mxCell id="wGcL2J76SYNbub800geK-14" style="edgeStyle=orthogonalEdgeStyle;rounded=0;orthogonalLoop=1;jettySize=auto;html=1;exitX=1;exitY=0.5;exitDx=0;exitDy=0;entryX=0;entryY=0.5;entryDx=0;entryDy=0;fontSize=15;strokeWidth=1;" edge="1" parent="qFvWysNFHT-1MRfpOzof-1" source="wGcL2J76SYNbub800geK-10" target="wGcL2J76SYNbub800geK-13">
          <mxGeometry relative="1" as="geometry" />
        </mxCell>
        <mxCell id="wGcL2J76SYNbub800geK-10" value="&lt;div&gt;&amp;lt;container id=&quot;1&quot; style=&quot;1&quot;&amp;gt;&lt;/div&gt;&lt;div&gt;&lt;span style=&quot;white-space: pre&quot;&gt;	&lt;/span&gt;&amp;lt;table id=&quot;2&quot; style=&quot;2&quot;&amp;gt;&lt;/div&gt;&lt;div&gt;&lt;span style=&quot;white-space: pre&quot;&gt;	&lt;/span&gt;&lt;span style=&quot;white-space: pre&quot;&gt;	&lt;/span&gt;&amp;lt;header /&amp;gt;&lt;/div&gt;&lt;div&gt;&lt;span style=&quot;white-space: pre&quot;&gt;	&lt;/span&gt;&lt;span style=&quot;white-space: pre&quot;&gt;	&lt;/span&gt;&amp;lt;rows .....&lt;br&gt;&lt;/div&gt;&lt;div&gt;&lt;span style=&quot;white-space: pre&quot;&gt;	&lt;/span&gt;&amp;lt;/table&amp;gt;&lt;br&gt;&lt;/div&gt;&lt;div&gt;&amp;lt;/container&amp;gt;&lt;br&gt;&lt;/div&gt;" style="rounded=0;whiteSpace=wrap;html=1;fontSize=15;align=left;" vertex="1" parent="qFvWysNFHT-1MRfpOzof-1">
          <mxGeometry x="85" y="320" width="200" height="130" as="geometry" />
        </mxCell>
        <mxCell id="wGcL2J76SYNbub800geK-12" value="Transformed Data Model" style="text;html=1;strokeColor=none;fillColor=none;align=center;verticalAlign=middle;whiteSpace=wrap;rounded=0;fontSize=15;" vertex="1" parent="qFvWysNFHT-1MRfpOzof-1">
          <mxGeometry x="70" y="280" width="190" height="30" as="geometry" />
        </mxCell>
        <mxCell id="wGcL2J76SYNbub800geK-61" value="" style="edgeStyle=orthogonalEdgeStyle;rounded=0;orthogonalLoop=1;jettySize=auto;html=1;fontSize=15;strokeWidth=1;" edge="1" parent="qFvWysNFHT-1MRfpOzof-1" source="wGcL2J76SYNbub800geK-13" target="wGcL2J76SYNbub800geK-59">
          <mxGeometry relative="1" as="geometry" />
        </mxCell>
        <mxCell id="wGcL2J76SYNbub800geK-13" value="Combine" style="shape=parallelogram;perimeter=parallelogramPerimeter;whiteSpace=wrap;html=1;fixedSize=1;fontSize=15;size=20;" vertex="1" parent="qFvWysNFHT-1MRfpOzof-1">
          <mxGeometry x="355" y="355" width="190" height="60" as="geometry" />
        </mxCell>
        <mxCell id="wGcL2J76SYNbub800geK-57" style="edgeStyle=orthogonalEdgeStyle;rounded=0;orthogonalLoop=1;jettySize=auto;html=1;fontSize=15;strokeWidth=1;" edge="1" parent="qFvWysNFHT-1MRfpOzof-1" source="wGcL2J76SYNbub800geK-15">
          <mxGeometry relative="1" as="geometry">
            <mxPoint x="440" y="415" as="targetPoint" />
            <Array as="points">
              <mxPoint x="440" y="630" />
              <mxPoint x="440" y="415" />
            </Array>
          </mxGeometry>
        </mxCell>
        <mxCell id="wGcL2J76SYNbub800geK-15" value="" style="shape=card;whiteSpace=wrap;html=1;fontSize=15;" vertex="1" parent="qFvWysNFHT-1MRfpOzof-1">
          <mxGeometry x="480" y="490" width="431" height="280" as="geometry" />
        </mxCell>
        <mxCell id="wGcL2J76SYNbub800geK-16" value="Style 1" style="rounded=0;whiteSpace=wrap;html=1;fontSize=15;" vertex="1" parent="qFvWysNFHT-1MRfpOzof-1">
          <mxGeometry x="500" y="520" width="120" height="60" as="geometry" />
        </mxCell>
        <mxCell id="wGcL2J76SYNbub800geK-17" value="Style 2" style="rounded=0;whiteSpace=wrap;html=1;fontSize=15;" vertex="1" parent="qFvWysNFHT-1MRfpOzof-1">
          <mxGeometry x="500" y="610" width="120" height="60" as="geometry" />
        </mxCell>
        <mxCell id="wGcL2J76SYNbub800geK-40" value="Template" style="text;html=1;align=center;verticalAlign=middle;resizable=0;points=[];autosize=1;strokeColor=none;fillColor=none;fontSize=15;" vertex="1" parent="qFvWysNFHT-1MRfpOzof-1">
          <mxGeometry x="510" y="470" width="70" height="20" as="geometry" />
        </mxCell>
        <mxCell id="wGcL2J76SYNbub800geK-42" value="Container id=&quot;1&quot;" style="swimlane;fontSize=15;" vertex="1" parent="qFvWysNFHT-1MRfpOzof-1">
          <mxGeometry x="640" y="510" width="240" height="240" as="geometry" />
        </mxCell>
        <mxCell id="wGcL2J76SYNbub800geK-43" value="" style="shape=table;html=1;whiteSpace=wrap;startSize=0;container=1;collapsible=0;childLayout=tableLayout;fontSize=15;" vertex="1" parent="wGcL2J76SYNbub800geK-42">
          <mxGeometry x="30" y="60" width="180" height="120" as="geometry" />
        </mxCell>
        <mxCell id="wGcL2J76SYNbub800geK-44" value="" style="shape=tableRow;horizontal=0;startSize=0;swimlaneHead=0;swimlaneBody=0;top=0;left=0;bottom=0;right=0;collapsible=0;dropTarget=0;fillColor=none;points=[[0,0.5],[1,0.5]];portConstraint=eastwest;fontSize=15;" vertex="1" parent="wGcL2J76SYNbub800geK-43">
          <mxGeometry width="180" height="39" as="geometry" />
        </mxCell>
        <mxCell id="wGcL2J76SYNbub800geK-45" value="" style="shape=partialRectangle;html=1;whiteSpace=wrap;connectable=0;fillColor=none;top=0;left=0;bottom=0;right=0;overflow=hidden;fontSize=15;" vertex="1" parent="wGcL2J76SYNbub800geK-44">
          <mxGeometry width="60" height="39" as="geometry">
            <mxRectangle width="60" height="39" as="alternateBounds" />
          </mxGeometry>
        </mxCell>
        <mxCell id="wGcL2J76SYNbub800geK-46" value="" style="shape=partialRectangle;html=1;whiteSpace=wrap;connectable=0;fillColor=none;top=0;left=0;bottom=0;right=0;overflow=hidden;fontSize=15;" vertex="1" parent="wGcL2J76SYNbub800geK-44">
          <mxGeometry x="60" width="60" height="39" as="geometry">
            <mxRectangle width="60" height="39" as="alternateBounds" />
          </mxGeometry>
        </mxCell>
        <mxCell id="wGcL2J76SYNbub800geK-47" value="" style="shape=partialRectangle;html=1;whiteSpace=wrap;connectable=0;fillColor=none;top=0;left=0;bottom=0;right=0;overflow=hidden;fontSize=15;" vertex="1" parent="wGcL2J76SYNbub800geK-44">
          <mxGeometry x="120" width="60" height="39" as="geometry">
            <mxRectangle width="60" height="39" as="alternateBounds" />
          </mxGeometry>
        </mxCell>
        <mxCell id="wGcL2J76SYNbub800geK-48" value="" style="shape=tableRow;horizontal=0;startSize=0;swimlaneHead=0;swimlaneBody=0;top=0;left=0;bottom=0;right=0;collapsible=0;dropTarget=0;fillColor=none;points=[[0,0.5],[1,0.5]];portConstraint=eastwest;fontSize=15;" vertex="1" parent="wGcL2J76SYNbub800geK-43">
          <mxGeometry y="39" width="180" height="42" as="geometry" />
        </mxCell>
        <mxCell id="wGcL2J76SYNbub800geK-49" value="" style="shape=partialRectangle;html=1;whiteSpace=wrap;connectable=0;fillColor=none;top=0;left=0;bottom=0;right=0;overflow=hidden;fontSize=15;" vertex="1" parent="wGcL2J76SYNbub800geK-48">
          <mxGeometry width="60" height="42" as="geometry">
            <mxRectangle width="60" height="42" as="alternateBounds" />
          </mxGeometry>
        </mxCell>
        <mxCell id="wGcL2J76SYNbub800geK-50" value="" style="shape=partialRectangle;html=1;whiteSpace=wrap;connectable=0;fillColor=none;top=0;left=0;bottom=0;right=0;overflow=hidden;fontSize=15;" vertex="1" parent="wGcL2J76SYNbub800geK-48">
          <mxGeometry x="60" width="60" height="42" as="geometry">
            <mxRectangle width="60" height="42" as="alternateBounds" />
          </mxGeometry>
        </mxCell>
        <mxCell id="wGcL2J76SYNbub800geK-51" value="" style="shape=partialRectangle;html=1;whiteSpace=wrap;connectable=0;fillColor=none;top=0;left=0;bottom=0;right=0;overflow=hidden;fontSize=15;" vertex="1" parent="wGcL2J76SYNbub800geK-48">
          <mxGeometry x="120" width="60" height="42" as="geometry">
            <mxRectangle width="60" height="42" as="alternateBounds" />
          </mxGeometry>
        </mxCell>
        <mxCell id="wGcL2J76SYNbub800geK-52" value="" style="shape=tableRow;horizontal=0;startSize=0;swimlaneHead=0;swimlaneBody=0;top=0;left=0;bottom=0;right=0;collapsible=0;dropTarget=0;fillColor=none;points=[[0,0.5],[1,0.5]];portConstraint=eastwest;fontSize=15;" vertex="1" parent="wGcL2J76SYNbub800geK-43">
          <mxGeometry y="81" width="180" height="39" as="geometry" />
        </mxCell>
        <mxCell id="wGcL2J76SYNbub800geK-53" value="" style="shape=partialRectangle;html=1;whiteSpace=wrap;connectable=0;fillColor=none;top=0;left=0;bottom=0;right=0;overflow=hidden;fontSize=15;" vertex="1" parent="wGcL2J76SYNbub800geK-52">
          <mxGeometry width="60" height="39" as="geometry">
            <mxRectangle width="60" height="39" as="alternateBounds" />
          </mxGeometry>
        </mxCell>
        <mxCell id="wGcL2J76SYNbub800geK-54" value="" style="shape=partialRectangle;html=1;whiteSpace=wrap;connectable=0;fillColor=none;top=0;left=0;bottom=0;right=0;overflow=hidden;fontSize=15;" vertex="1" parent="wGcL2J76SYNbub800geK-52">
          <mxGeometry x="60" width="60" height="39" as="geometry">
            <mxRectangle width="60" height="39" as="alternateBounds" />
          </mxGeometry>
        </mxCell>
        <mxCell id="wGcL2J76SYNbub800geK-55" value="" style="shape=partialRectangle;html=1;whiteSpace=wrap;connectable=0;fillColor=none;top=0;left=0;bottom=0;right=0;overflow=hidden;pointerEvents=1;fontSize=15;" vertex="1" parent="wGcL2J76SYNbub800geK-52">
          <mxGeometry x="120" width="60" height="39" as="geometry">
            <mxRectangle width="60" height="39" as="alternateBounds" />
          </mxGeometry>
        </mxCell>
        <mxCell id="wGcL2J76SYNbub800geK-56" value="Table id=&quot;2&quot;" style="text;html=1;strokeColor=none;fillColor=none;align=center;verticalAlign=middle;whiteSpace=wrap;rounded=0;fontSize=15;" vertex="1" parent="wGcL2J76SYNbub800geK-42">
          <mxGeometry x="23" y="34" width="90" height="30" as="geometry" />
        </mxCell>
        <mxCell id="wGcL2J76SYNbub800geK-59" value="Document" style="shape=note;whiteSpace=wrap;html=1;backgroundOutline=1;darkOpacity=0.05;fontSize=15;" vertex="1" parent="qFvWysNFHT-1MRfpOzof-1">
          <mxGeometry x="640" y="335" width="80" height="100" as="geometry" />
        </mxCell>
      </root>
    </mxGraphModel>
  </diagram>
</mxfile>
